<svg width="182" height="143" viewBox="0 0 182 143" fill="none" xmlns="http://www.w3.org/2000/svg">
<g opacity="0.35">
<path d="M170.584 97.25L182.727 89.876L194.851 97.25M170.584 97.25V112.576M170.584 97.25L194.851 112.576M170.584 97.25H194.851M170.584 112.576L182.727 119.988L194.851 112.576M170.584 112.576L194.851 97.25M170.584 112.576H194.851M194.851 112.576V97.25" stroke="#10CFC9" stroke-width="0.5"/>
<path d="M146.334 97.25L158.477 89.876L170.602 97.25M146.334 97.25V112.576M146.334 97.25L170.602 112.576M146.334 97.25H170.602M146.334 112.576L158.477 119.988L170.602 112.576M146.334 112.576L170.602 97.25M146.334 112.576H170.602M170.602 112.576V97.25" stroke="#10CFC9" stroke-width="0.5"/>
<path d="M122.085 97.25L134.227 89.876L146.352 97.25M122.085 97.25V112.576M122.085 97.25L146.352 112.576M122.085 97.25H146.352M122.085 112.576L134.227 119.988L146.352 112.576M122.085 112.576L146.352 97.25M122.085 112.576H146.352M146.352 112.576V97.25" stroke="#10CFC9" stroke-width="0.5"/>
<path d="M134.21 119.969L146.352 112.595L158.477 119.969M134.21 119.969V135.295M134.21 119.969L158.477 135.295M134.21 119.969H158.477M134.21 135.295L146.352 142.708L158.477 135.295M134.21 135.295L158.477 119.969M134.21 135.295H158.477M158.477 135.295V119.969" stroke="#10CFC9" stroke-width="0.5"/>
<path d="M158.459 119.969L170.602 112.595L182.727 119.969M158.459 119.969V135.295M158.459 119.969L182.727 135.295M158.459 119.969H182.727M158.459 135.295L170.602 142.708L182.727 135.295M158.459 135.295L182.727 119.969M158.459 135.295H182.727M182.727 135.295V119.969" stroke="#10CFC9" stroke-width="0.5"/>
<path d="M158.459 74.5308L170.602 67.1567L182.727 74.5308M158.459 74.5308V89.8565M158.459 74.5308L182.727 89.8565M158.459 74.5308H182.727M158.459 89.8565L170.602 97.2691L182.727 89.8565M158.459 89.8565L182.727 74.5308M158.459 89.8565H182.727M182.727 89.8565V74.5308" stroke="#10CFC9" stroke-width="0.5"/>
<path d="M134.21 74.5308L146.352 67.1567L158.477 74.5308M134.21 74.5308V89.8565M134.21 74.5308L158.477 89.8565M134.21 74.5308H158.477M134.21 89.8565L146.352 97.2691L158.477 89.8565M134.21 89.8565L158.477 74.5308M134.21 89.8565H158.477M158.477 89.8565V74.5308" stroke="#10CFC9" stroke-width="0.5"/>
<path d="M109.96 74.5308L122.103 67.1567L134.228 74.5308M109.96 74.5308V89.8565M109.96 74.5308L134.228 89.8565M109.96 74.5308H134.228M109.96 89.8565L122.103 97.2691L134.228 89.8565M109.96 89.8565L134.228 74.5308M109.96 89.8565H134.228M134.228 89.8565V74.5308" stroke="#10CFC9" stroke-width="0.5"/>
<path d="M97.8353 97.25L109.978 89.876L122.103 97.25M97.8353 97.25V112.576M97.8353 97.25L122.103 112.576M97.8353 97.25H122.103M97.8353 112.576L109.978 119.988L122.103 112.576M97.8353 112.576L122.103 97.25M97.8353 112.576H122.103M122.103 112.576V97.25" stroke="#10CFC9" stroke-width="0.5"/>
<path d="M85.7104 74.5308L97.8531 67.1567L109.978 74.5308M85.7104 74.5308V89.8565M85.7104 74.5308L109.978 89.8565M85.7104 74.5308H109.978M85.7104 89.8565L97.8531 97.2691L109.978 89.8565M85.7104 89.8565L109.978 74.5308M85.7104 89.8565H109.978M109.978 89.8565V74.5308" stroke="#10CFC9" stroke-width="0.5"/>
<path d="M73.5859 51.8125L85.7285 44.4385L97.8533 51.8125M73.5859 51.8125V67.1382M73.5859 51.8125L97.8533 67.1382M73.5859 51.8125H97.8533M73.5859 67.1382L85.7285 74.5508L97.8533 67.1382M73.5859 67.1382L97.8533 51.8125M73.5859 67.1382H97.8533M97.8533 67.1382V51.8125" stroke="#10CFC9" stroke-width="0.5"/>
<path d="M97.8353 51.8125L109.978 44.4385L122.103 51.8125M97.8353 51.8125V67.1382M97.8353 51.8125L122.103 67.1382M97.8353 51.8125H122.103M97.8353 67.1382L109.978 74.5508L122.103 67.1382M97.8353 67.1382L122.103 51.8125M97.8353 67.1382H122.103M122.103 67.1382V51.8125" stroke="#10CFC9" stroke-width="0.5"/>
<path d="M122.085 51.8125L134.227 44.4385L146.352 51.8125M122.085 51.8125V67.1382M122.085 51.8125L146.352 67.1382M122.085 51.8125H146.352M122.085 67.1382L134.227 74.5508L146.352 67.1382M122.085 67.1382L146.352 51.8125M122.085 67.1382H146.352M146.352 67.1382V51.8125" stroke="#10CFC9" stroke-width="0.5"/>
<path d="M146.334 51.8125L158.477 44.4385L170.602 51.8125M146.334 51.8125V67.1382M146.334 51.8125L170.602 67.1382M146.334 51.8125H170.602M146.334 67.1382L158.477 74.5508L170.602 67.1382M146.334 67.1382L170.602 51.8125M146.334 67.1382H170.602M170.602 67.1382V51.8125" stroke="#10CFC9" stroke-width="0.5"/>
<path d="M170.584 51.8125L182.727 44.4385L194.851 51.8125M170.584 51.8125V67.1382M170.584 51.8125L194.851 67.1382M170.584 51.8125H194.851M170.584 67.1382L182.727 74.5508L194.851 67.1382M170.584 67.1382L194.851 51.8125M170.584 67.1382H194.851M194.851 67.1382V51.8125" stroke="#10CFC9" stroke-width="0.5"/>
<path d="M61.4608 74.5308L73.6034 67.1567L85.7282 74.5308M61.4608 74.5308V89.8565M61.4608 74.5308L85.7282 89.8565M61.4608 74.5308H85.7282M61.4608 89.8565L73.6034 97.2691L85.7282 89.8565M61.4608 89.8565L85.7282 74.5308M61.4608 89.8565H85.7282M85.7282 89.8565V74.5308" stroke="#10CFC9" stroke-width="0.5"/>
<path d="M49.3358 51.8125L61.4785 44.4385L73.6033 51.8125M49.3358 51.8125V67.1382M49.3358 51.8125L73.6033 67.1382M49.3358 51.8125H73.6033M49.3358 67.1382L61.4785 74.5508L73.6033 67.1382M49.3358 67.1382L73.6033 51.8125M49.3358 67.1382H73.6033M73.6033 67.1382V51.8125" stroke="#10CFC9" stroke-width="0.5"/>
<path d="M37.2111 29.0933L49.3538 21.7192L61.4786 29.0933M37.2111 29.0933V44.419M37.2111 29.0933L61.4786 44.419M37.2111 29.0933H61.4786M37.2111 44.419L49.3538 51.8315L61.4786 44.419M37.2111 44.419L61.4786 29.0933M37.2111 44.419H61.4786M61.4786 44.419V29.0933" stroke="#10CFC9" stroke-width="0.5"/>
<path d="M25.0864 51.8125L37.229 44.4385L49.3538 51.8125M25.0864 51.8125V67.1382M25.0864 51.8125L49.3538 67.1382M25.0864 51.8125H49.3538M25.0864 67.1382L37.229 74.5508L49.3538 67.1382M25.0864 67.1382L49.3538 51.8125M25.0864 67.1382H49.3538M49.3538 67.1382V51.8125" stroke="#10CFC9" stroke-width="0.5"/>
<path d="M12.9616 29.0933L25.1042 21.7192L37.229 29.0933M12.9616 29.0933V44.419M12.9616 29.0933L37.229 44.419M12.9616 29.0933H37.229M12.9616 44.419L25.1042 51.8315L37.229 44.419M12.9616 44.419L37.229 29.0933M12.9616 44.419H37.229M37.229 44.419V29.0933" stroke="#10CFC9" stroke-width="0.5"/>
<path d="M0.836731 6.37405L12.9794 -1L25.1042 6.37405M0.836731 6.37405V21.6997M0.836731 6.37405L25.1042 21.6997M0.836731 6.37405H25.1042M0.836731 21.6997L12.9794 29.1123L25.1042 21.6997M0.836731 21.6997L25.1042 6.37405M0.836731 21.6997H25.1042M25.1042 21.6997V6.37405" stroke="#10CFC9" stroke-width="0.5"/>
<path d="M25.0864 6.37405L37.229 -1L49.3538 6.37405M25.0864 6.37405V21.6997M25.0864 6.37405L49.3538 21.6997M25.0864 6.37405H49.3538M25.0864 21.6997L37.229 29.1123L49.3538 21.6997M25.0864 21.6997L49.3538 6.37405M25.0864 21.6997H49.3538M49.3538 21.6997V6.37405" stroke="#10CFC9" stroke-width="0.5"/>
<path d="M49.3358 6.37405L61.4785 -1L73.6033 6.37405M49.3358 6.37405V21.6997M49.3358 6.37405L73.6033 21.6997M49.3358 6.37405H73.6033M49.3358 21.6997L61.4785 29.1123L73.6033 21.6997M49.3358 21.6997L73.6033 6.37405M49.3358 21.6997H73.6033M73.6033 21.6997V6.37405" stroke="#10CFC9" stroke-width="0.5"/>
<path d="M73.5859 6.37405L85.7285 -1L97.8533 6.37405M73.5859 6.37405V21.6997M73.5859 6.37405L97.8533 21.6997M73.5859 6.37405H97.8533M73.5859 21.6997L85.7285 29.1123L97.8533 21.6997M73.5859 21.6997L97.8533 6.37405M73.5859 21.6997H97.8533M97.8533 21.6997V6.37405" stroke="#10CFC9" stroke-width="0.5"/>
<path d="M97.8353 6.37405L109.978 -1L122.103 6.37405M97.8353 6.37405V21.6997M97.8353 6.37405L122.103 21.6997M97.8353 6.37405H122.103M97.8353 21.6997L109.978 29.1123L122.103 21.6997M97.8353 21.6997L122.103 6.37405M97.8353 21.6997H122.103M122.103 21.6997V6.37405" stroke="#10CFC9" stroke-width="0.5"/>
<path d="M122.085 6.37405L134.227 -1L146.352 6.37405M122.085 6.37405V21.6997M122.085 6.37405L146.352 21.6997M122.085 6.37405H146.352M122.085 21.6997L134.227 29.1123L146.352 21.6997M122.085 21.6997L146.352 6.37405M122.085 21.6997H146.352M146.352 21.6997V6.37405" stroke="#10CFC9" stroke-width="0.5"/>
<path d="M146.334 6.37405L158.477 -1L170.602 6.37405M146.334 6.37405V21.6997M146.334 6.37405L170.602 21.6997M146.334 6.37405H170.602M146.334 21.6997L158.477 29.1123L170.602 21.6997M146.334 21.6997L170.602 6.37405M146.334 21.6997H170.602M170.602 21.6997V6.37405" stroke="#10CFC9" stroke-width="0.5"/>
<path d="M170.584 6.37405L182.727 -1L194.852 6.37405M170.584 6.37405V21.6997M170.584 6.37405L194.852 21.6997M170.584 6.37405H194.852M170.584 21.6997L182.727 29.1123L194.852 21.6997M170.584 21.6997L194.852 6.37405M170.584 21.6997H194.852M194.852 21.6997V6.37405" stroke="#10CFC9" stroke-width="0.5"/>
<path d="M61.4608 29.0933L73.6034 21.7192L85.7282 29.0933M61.4608 29.0933V44.419M61.4608 29.0933L85.7282 44.419M61.4608 29.0933H85.7282M61.4608 44.419L73.6034 51.8315L85.7282 44.419M61.4608 44.419L85.7282 29.0933M61.4608 44.419H85.7282M85.7282 44.419V29.0933" stroke="#10CFC9" stroke-width="0.5"/>
<path d="M85.7104 29.0933L97.8531 21.7192L109.978 29.0933M85.7104 29.0933V44.419M85.7104 29.0933L109.978 44.419M85.7104 29.0933H109.978M85.7104 44.419L97.8531 51.8315L109.978 44.419M85.7104 44.419L109.978 29.0933M85.7104 44.419H109.978M109.978 44.419V29.0933" stroke="#10CFC9" stroke-width="0.5"/>
<path d="M109.96 29.0933L122.103 21.7192L134.228 29.0933M109.96 29.0933V44.419M109.96 29.0933L134.228 44.419M109.96 29.0933H134.228M109.96 44.419L122.103 51.8315L134.228 44.419M109.96 44.419L134.228 29.0933M109.96 44.419H134.228M134.228 44.419V29.0933" stroke="#10CFC9" stroke-width="0.5"/>
<path d="M134.21 29.0933L146.352 21.7192L158.477 29.0933M134.21 29.0933V44.419M134.21 29.0933L158.477 44.419M134.21 29.0933H158.477M134.21 44.419L146.352 51.8315L158.477 44.419M134.21 44.419L158.477 29.0933M134.21 44.419H158.477M158.477 44.419V29.0933" stroke="#10CFC9" stroke-width="0.5"/>
<path d="M158.459 29.0933L170.602 21.7192L182.727 29.0933M158.459 29.0933V44.419M158.459 29.0933L182.727 44.419M158.459 29.0933H182.727M158.459 44.419L170.602 51.8315L182.727 44.419M158.459 44.419L182.727 29.0933M158.459 44.419H182.727M182.727 44.419V29.0933" stroke="#10CFC9" stroke-width="0.5"/>
</g>
<path opacity="0.65" d="M97.9741 37L122.052 22L146.129 37V67L122.052 51.5L97.9741 66.5V37Z" fill="#10CFC9" stroke="#10CFC9"/>
</svg>