<svg width="181" height="145" viewBox="0 0 181 145" fill="none" xmlns="http://www.w3.org/2000/svg">
<g opacity="0.35">
<path d="M10.5089 45.8525L-1.63379 53.2266L-13.7586 45.8525M10.5089 45.8525L10.5089 30.5268M10.5089 45.8525L-13.7586 30.5268M10.5089 45.8525L-13.7586 45.8525M10.5089 30.5268L-1.63379 23.1143L-13.7586 30.5268M10.5089 30.5268L-13.7586 45.8525M10.5089 30.5268L-13.7586 30.5268M-13.7586 30.5268L-13.7586 45.8525" stroke="#10CFC9" stroke-width="0.5"/>
<path d="M34.7586 45.8525L22.616 53.2266L10.4912 45.8525M34.7586 45.8525V30.5268M34.7586 45.8525L10.4912 30.5268M34.7586 45.8525L10.4912 45.8525M34.7586 30.5268L22.616 23.1143L10.4912 30.5268M34.7586 30.5268L10.4912 45.8525M34.7586 30.5268L10.4912 30.5268M10.4912 30.5268L10.4912 45.8525" stroke="#10CFC9" stroke-width="0.5"/>
<path d="M59.0082 45.8525L46.8655 53.2266L34.7407 45.8525M59.0082 45.8525V30.5268M59.0082 45.8525L34.7407 30.5268M59.0082 45.8525L34.7407 45.8525M59.0082 30.5268L46.8655 23.1143L34.7407 30.5268M59.0082 30.5268L34.7407 45.8525M59.0082 30.5268L34.7407 30.5268M34.7407 30.5268V45.8525" stroke="#10CFC9" stroke-width="0.5"/>
<path d="M46.8832 23.1333L34.7406 30.5073L22.6158 23.1333M46.8832 23.1333V7.80758M46.8832 23.1333L22.6158 7.80758M46.8832 23.1333L22.6158 23.1333M46.8832 7.80758L34.7406 0.395019L22.6158 7.80758M46.8832 7.80758L22.6158 23.1333M46.8832 7.80758L22.6158 7.80758M22.6158 7.80758L22.6158 23.1333" stroke="#10CFC9" stroke-width="0.5"/>
<path d="M22.6337 23.1333L10.491 30.5073L-1.63378 23.1333M22.6337 23.1333L22.6337 7.80758M22.6337 23.1333L-1.63378 7.80758M22.6337 23.1333L-1.63378 23.1333M22.6337 7.80758L10.491 0.395019L-1.63378 7.80758M22.6337 7.80758L-1.63378 23.1333M22.6337 7.80758L-1.63378 7.80758M-1.63378 7.80758L-1.63378 23.1333" stroke="#10CFC9" stroke-width="0.5"/>
<path d="M22.6337 68.5718L10.491 75.9458L-1.63378 68.5718M22.6337 68.5718L22.6337 53.2461M22.6337 68.5718L-1.63378 53.2461M22.6337 68.5718H-1.63378M22.6337 53.2461L10.491 45.8335L-1.63378 53.2461M22.6337 53.2461L-1.63378 68.5718M22.6337 53.2461H-1.63378M-1.63378 53.2461L-1.63378 68.5718" stroke="#10CFC9" stroke-width="0.5"/>
<path d="M46.8832 68.5718L34.7406 75.9458L22.6158 68.5718M46.8832 68.5718V53.2461M46.8832 68.5718L22.6158 53.2461M46.8832 68.5718H22.6158M46.8832 53.2461L34.7406 45.8335L22.6158 53.2461M46.8832 53.2461L22.6158 68.5718M46.8832 53.2461H22.6158M22.6158 53.2461L22.6158 68.5718" stroke="#10CFC9" stroke-width="0.5"/>
<path d="M71.1328 68.5718L58.9902 75.9458L46.8653 68.5718M71.1328 68.5718V53.2461M71.1328 68.5718L46.8653 53.2461M71.1328 68.5718H46.8653M71.1328 53.2461L58.9902 45.8335L46.8653 53.2461M71.1328 53.2461L46.8653 68.5718M71.1328 53.2461H46.8653M46.8653 53.2461V68.5718" stroke="#10CFC9" stroke-width="0.5"/>
<path d="M83.2577 45.8525L71.1151 53.2266L58.9902 45.8525M83.2577 45.8525V30.5268M83.2577 45.8525L58.9902 30.5268M83.2577 45.8525L58.9902 45.8525M83.2577 30.5268L71.1151 23.1143L58.9902 30.5268M83.2577 30.5268L58.9902 45.8525M83.2577 30.5268L58.9902 30.5268M58.9902 30.5268V45.8525" stroke="#10CFC9" stroke-width="0.5"/>
<path d="M95.3826 68.5718L83.2399 75.9458L71.1151 68.5718M95.3826 68.5718V53.2461M95.3826 68.5718L71.1151 53.2461M95.3826 68.5718H71.1151M95.3826 53.2461L83.2399 45.8335L71.1151 53.2461M95.3826 53.2461L71.1151 68.5718M95.3826 53.2461H71.1151M71.1151 53.2461V68.5718" stroke="#10CFC9" stroke-width="0.5"/>
<path d="M107.507 91.29L95.3645 98.6641L83.2397 91.29M107.507 91.29V75.9643M107.507 91.29L83.2397 75.9643M107.507 91.29H83.2397M107.507 75.9643L95.3645 68.5518L83.2397 75.9643M107.507 75.9643L83.2397 91.29M107.507 75.9643H83.2397M83.2397 75.9643V91.29" stroke="#10CFC9" stroke-width="0.5"/>
<path d="M83.2577 91.29L71.1151 98.6641L58.9902 91.29M83.2577 91.29V75.9643M83.2577 91.29L58.9902 75.9643M83.2577 91.29H58.9902M83.2577 75.9643L71.1151 68.5518L58.9902 75.9643M83.2577 75.9643L58.9902 91.29M83.2577 75.9643H58.9902M58.9902 75.9643V91.29" stroke="#10CFC9" stroke-width="0.5"/>
<path d="M59.0082 91.29L46.8655 98.6641L34.7407 91.29M59.0082 91.29V75.9643M59.0082 91.29L34.7407 75.9643M59.0082 91.29H34.7407M59.0082 75.9643L46.8655 68.5518L34.7407 75.9643M59.0082 75.9643L34.7407 91.29M59.0082 75.9643H34.7407M34.7407 75.9643V91.29" stroke="#10CFC9" stroke-width="0.5"/>
<path d="M34.7585 91.29L22.6159 98.6641L10.4911 91.29M34.7585 91.29V75.9643M34.7585 91.29L10.4911 75.9643M34.7585 91.29H10.4911M34.7585 75.9643L22.6159 68.5518L10.4911 75.9643M34.7585 75.9643L10.4911 91.29M34.7585 75.9643H10.4911M10.4911 75.9643L10.4911 91.29" stroke="#10CFC9" stroke-width="0.5"/>
<path d="M10.5089 91.29L-1.63379 98.6641L-13.7586 91.29M10.5089 91.29L10.5089 75.9643M10.5089 91.29L-13.7586 75.9643M10.5089 91.29H-13.7586M10.5089 75.9643L-1.63379 68.5518L-13.7586 75.9643M10.5089 75.9643L-13.7586 91.29M10.5089 75.9643H-13.7586M-13.7586 75.9643L-13.7586 91.29" stroke="#10CFC9" stroke-width="0.5"/>
<path d="M119.632 68.5718L107.49 75.9458L95.3648 68.5718M119.632 68.5718V53.2461M119.632 68.5718L95.3648 53.2461M119.632 68.5718H95.3648M119.632 53.2461L107.49 45.8335L95.3648 53.2461M119.632 53.2461L95.3648 68.5718M119.632 53.2461H95.3648M95.3648 53.2461V68.5718" stroke="#10CFC9" stroke-width="0.5"/>
<path d="M131.757 91.29L119.614 98.6641L107.49 91.29M131.757 91.29V75.9643M131.757 91.29L107.49 75.9643M131.757 91.29H107.49M131.757 75.9643L119.614 68.5518L107.49 75.9643M131.757 75.9643L107.49 91.29M131.757 75.9643H107.49M107.49 75.9643V91.29" stroke="#10CFC9" stroke-width="0.5"/>
<path d="M143.882 114.009L131.739 121.383L119.614 114.009M143.882 114.009V98.6835M143.882 114.009L119.614 98.6835M143.882 114.009H119.614M143.882 98.6835L131.739 91.271L119.614 98.6835M143.882 98.6835L119.614 114.009M143.882 98.6835H119.614M119.614 98.6835V114.009" stroke="#10CFC9" stroke-width="0.5"/>
<path d="M156.007 91.29L143.864 98.6641L131.739 91.29M156.007 91.29V75.9643M156.007 91.29L131.739 75.9643M156.007 91.29H131.739M156.007 75.9643L143.864 68.5518L131.739 75.9643M156.007 75.9643L131.739 91.29M156.007 75.9643H131.739M131.739 75.9643V91.29" stroke="#10CFC9" stroke-width="0.5"/>
<path d="M168.131 114.009L155.989 121.383L143.864 114.009M168.131 114.009V98.6835M168.131 114.009L143.864 98.6835M168.131 114.009H143.864M168.131 98.6835L155.989 91.271L143.864 98.6835M168.131 98.6835L143.864 114.009M168.131 98.6835H143.864M143.864 98.6835V114.009" stroke="#10CFC9" stroke-width="0.5"/>
<path d="M180.256 136.728L168.114 144.103L155.989 136.728M180.256 136.728V121.403M180.256 136.728L155.989 121.403M180.256 136.728H155.989M180.256 121.403L168.114 113.99L155.989 121.403M180.256 121.403L155.989 136.728M180.256 121.403H155.989M155.989 121.403V136.728" stroke="#10CFC9" stroke-width="0.5"/>
<path d="M156.007 136.728L143.864 144.103L131.739 136.728M156.007 136.728V121.403M156.007 136.728L131.739 121.403M156.007 136.728H131.739M156.007 121.403L143.864 113.99L131.739 121.403M156.007 121.403L131.739 136.728M156.007 121.403H131.739M131.739 121.403V136.728" stroke="#10CFC9" stroke-width="0.5"/>
<path d="M131.757 136.728L119.614 144.103L107.49 136.728M131.757 136.728V121.403M131.757 136.728L107.49 121.403M131.757 136.728H107.49M131.757 121.403L119.614 113.99L107.49 121.403M131.757 121.403L107.49 136.728M131.757 121.403H107.49M107.49 121.403V136.728" stroke="#10CFC9" stroke-width="0.5"/>
<path d="M107.507 136.728L95.3645 144.103L83.2397 136.728M107.507 136.728V121.403M107.507 136.728L83.2397 121.403M107.507 136.728H83.2397M107.507 121.403L95.3645 113.99L83.2397 121.403M107.507 121.403L83.2397 136.728M107.507 121.403H83.2397M83.2397 121.403V136.728" stroke="#10CFC9" stroke-width="0.5"/>
<path d="M83.2577 136.728L71.1151 144.103L58.9902 136.728M83.2577 136.728V121.403M83.2577 136.728L58.9902 121.403M83.2577 136.728H58.9902M83.2577 121.403L71.1151 113.99L58.9902 121.403M83.2577 121.403L58.9902 136.728M83.2577 121.403H58.9902M58.9902 121.403V136.728" stroke="#10CFC9" stroke-width="0.5"/>
<path d="M59.0082 136.728L46.8655 144.103L34.7407 136.728M59.0082 136.728V121.403M59.0082 136.728L34.7407 121.403M59.0082 136.728H34.7407M59.0082 121.403L46.8655 113.99L34.7407 121.403M59.0082 121.403L34.7407 136.728M59.0082 121.403H34.7407M34.7407 121.403V136.728" stroke="#10CFC9" stroke-width="0.5"/>
<path d="M34.7585 136.728L22.6159 144.103L10.4911 136.728M34.7585 136.728V121.403M34.7585 136.728L10.4911 121.403M34.7585 136.728H10.4911M34.7585 121.403L22.6159 113.99L10.4911 121.403M34.7585 121.403L10.4911 136.728M34.7585 121.403H10.4911M10.4911 121.403L10.4911 136.728" stroke="#10CFC9" stroke-width="0.5"/>
<path d="M10.5089 136.728L-1.63379 144.103L-13.7586 136.728M10.5089 136.728L10.5089 121.403M10.5089 136.728L-13.7586 121.403M10.5089 136.728H-13.7586M10.5089 121.403L-1.63379 113.99L-13.7586 121.403M10.5089 121.403L-13.7586 136.728M10.5089 121.403H-13.7586M-13.7586 121.403L-13.7586 136.728" stroke="#10CFC9" stroke-width="0.5"/>
<path d="M119.632 114.009L107.49 121.383L95.3648 114.009M119.632 114.009V98.6835M119.632 114.009L95.3648 98.6835M119.632 114.009H95.3648M119.632 98.6835L107.49 91.271L95.3648 98.6835M119.632 98.6835L95.3648 114.009M119.632 98.6835H95.3648M95.3648 98.6835V114.009" stroke="#10CFC9" stroke-width="0.5"/>
<path d="M95.3826 114.009L83.2399 121.383L71.1151 114.009M95.3826 114.009V98.6835M95.3826 114.009L71.1151 98.6835M95.3826 114.009H71.1151M95.3826 98.6835L83.2399 91.271L71.1151 98.6835M95.3826 98.6835L71.1151 114.009M95.3826 98.6835H71.1151M71.1151 98.6835V114.009" stroke="#10CFC9" stroke-width="0.5"/>
<path d="M71.1328 114.009L58.9902 121.383L46.8653 114.009M71.1328 114.009V98.6835M71.1328 114.009L46.8653 98.6835M71.1328 114.009H46.8653M71.1328 98.6835L58.9902 91.271L46.8653 98.6835M71.1328 98.6835L46.8653 114.009M71.1328 98.6835H46.8653M46.8653 98.6835V114.009" stroke="#10CFC9" stroke-width="0.5"/>
<path d="M46.8834 114.009L34.7407 121.383L22.6159 114.009M46.8834 114.009V98.6835M46.8834 114.009L22.6159 98.6835M46.8834 114.009H22.6159M46.8834 98.6835L34.7407 91.271L22.6159 98.6835M46.8834 98.6835L22.6159 114.009M46.8834 98.6835H22.6159M22.6159 98.6835L22.6159 114.009" stroke="#10CFC9" stroke-width="0.5"/>
<path d="M22.6337 114.009L10.491 121.383L-1.63378 114.009M22.6337 114.009L22.6337 98.6835M22.6337 114.009L-1.63378 98.6835M22.6337 114.009H-1.63378M22.6337 98.6835L10.491 91.271L-1.63378 98.6835M22.6337 98.6835L-1.63378 114.009M22.6337 98.6835H-1.63378M-1.63378 98.6835L-1.63378 114.009" stroke="#10CFC9" stroke-width="0.5"/>
</g>
<path opacity="0.65" d="M95.3276 113.749L71.25 129L47.1725 113.749L47.1725 84L71.25 98.8744L95.3276 84V113.749Z" fill="#10CFC9" stroke="#10CFC9"/>
</svg>