<svg width="148" height="44" viewBox="0 0 148 44" fill="none" xmlns="http://www.w3.org/2000/svg">
<path d="M60.9645 18.4273C59.1666 17.3035 57.0285 16.6068 55.6732 16.6068C54.318 16.6068 53.5135 17.09 53.5135 18.0508C53.5135 21.3098 62.5681 19.4893 62.5465 25.8554C62.5465 29.3166 59.6579 31.1877 55.8946 31.1877C53.1592 31.1735 50.5115 30.1817 48.395 28.3783L49.9338 25.1306C51.6778 26.7488 54.156 27.7827 55.954 27.7827C57.5306 27.7827 58.4808 27.1759 58.4808 26.097C58.4808 22.7594 49.4209 24.7092 49.4209 18.4385C49.4209 15.2302 52.0665 13.213 56.0026 13.213C58.2927 13.2028 60.539 13.867 62.4817 15.129L60.9645 18.4273ZM65.0194 13.3703H79.2194V16.7416H74.0253V31.0416H70.1919V16.7641H65.0194V13.3703ZM93.5221 31.0585L92.1885 27.6197H84.3218L82.9827 31.0585H79.0251L86.4059 13.3703H90.3689L97.6255 31.0585H93.5221ZM85.569 24.417H90.9683L88.2686 17.5451L85.569 24.417ZM108.656 13.3759C112.398 13.3759 114.725 15.0616 114.725 17.798C114.737 18.698 114.452 19.575 113.917 20.2827C113.383 20.9903 112.631 21.4857 111.788 21.6862C112.81 21.8427 113.74 22.3898 114.396 23.2208C115.051 24.0519 115.386 25.1073 115.335 26.1813C115.335 29.2155 112.857 31.0866 108.926 31.0866H100.827V13.3759H108.656ZM108.462 20.5007C109.92 20.5007 110.794 19.7702 110.794 18.5284C110.794 17.2867 109.92 16.6068 108.462 16.6349H104.682V20.5007H108.462ZM108.462 27.8052C110.26 27.8052 111.377 27.0241 111.377 25.6588C111.377 24.2934 110.26 23.591 108.462 23.6135H104.682V27.8052H108.462ZM119.584 13.3759H123.418V27.5748H130.701V31.0641H119.584V13.3759ZM134.443 13.3759H147.401V16.7023H138.293V20.5456H146.478V23.8551H138.293V27.7883H147.661V31.0978H134.459L134.443 13.3759Z" fill="white"/>
<path d="M18.9579 0.854511C18.3066 0.875907 17.6711 1.06926 17.1113 1.4164L2.65749 10.1032C2.07357 10.454 1.58858 10.9585 1.25121 11.566C0.913828 12.1735 0.735929 12.8627 0.735352 13.5644V30.9323C0.735929 31.6339 0.913828 32.3231 1.25121 32.9306C1.58858 33.5382 2.07357 34.0426 2.65749 34.3935L17.1113 43.0859C17.6746 43.4209 18.3093 43.6044 18.9579 43.6197H19.1091C19.7577 43.6044 20.3924 43.4209 20.9556 43.0859L35.4095 34.3935C35.9934 34.0426 36.4784 33.5382 36.8157 32.9306C37.1531 32.3231 37.331 31.6339 37.3316 30.9323V13.5419C37.331 12.8402 37.1531 12.151 36.8157 11.5435C36.4784 10.936 35.9934 10.4315 35.4095 10.0807L20.9556 1.39392C20.3958 1.04678 19.7604 0.853427 19.1091 0.832031L18.9579 0.854511Z" fill="#10CFC9"/>
<path d="M24.7456 18.1328C26.4248 18.1328 27.1159 19.6162 27.1537 21.6502H21.8948C22.5265 19.6499 23.2446 18.1328 24.7456 18.1328ZM13.4071 26.1734C11.5822 26.1734 10.8101 24.3754 10.8101 22.0604C10.8101 22.0604 10.8101 22.0323 10.8101 22.0155H16.7169C16.0258 24.3304 15.2537 26.1734 13.4017 26.1734H13.4071ZM31.2895 21.6502C31.1221 17.0596 29.0218 12.9747 24.3083 12.9747C19.0062 12.9466 17.9479 17.8182 16.8249 21.6502H6.73901V21.8188V22.0155C6.79301 27.005 9.02831 31.4832 13.9147 31.4832C19.5731 31.5113 20.5828 25.9655 21.776 22.0155H31.3219V21.6502H31.2895Z" fill="white"/>
</svg>
