<svg width="31" height="34" viewBox="0 0 31 34" fill="none" xmlns="http://www.w3.org/2000/svg">
<path d="M15.436 0.0178633C14.8842 0.0348649 14.346 0.188505 13.8718 0.46435L1.62821 7.36704C1.13358 7.64583 0.722756 8.04671 0.43697 8.52945C0.151184 9.0122 0.000489517 9.55984 0 10.1174V23.9183C0.000489517 24.4759 0.151184 25.0235 0.43697 25.5063C0.722756 25.989 1.13358 26.3899 1.62821 26.6687L13.8718 33.5758C14.3489 33.8421 14.8865 33.9879 15.436 34H15.564C16.1135 33.9879 16.6511 33.8421 17.1282 33.5758L29.3718 26.6687C29.8664 26.3899 30.2772 25.989 30.563 25.5063C30.8488 25.0235 30.9995 24.4759 31 23.9183V10.0995C30.9995 9.54198 30.8488 8.99434 30.563 8.51159C30.2772 8.02884 29.8664 7.62796 29.3718 7.34918L17.1282 0.446487C16.654 0.170642 16.1158 0.0170016 15.564 0L15.436 0.0178633Z" fill="#10CFC9"/>
<path d="M20.3384 13.7473C21.7608 13.7473 22.3462 14.926 22.3782 16.5423H17.9235C18.4586 14.9528 19.0669 13.7473 20.3384 13.7473ZM10.7338 20.1365C9.18787 20.1365 8.53385 18.7078 8.53385 16.8682C8.53385 16.8682 8.53385 16.8459 8.53385 16.8325H13.5374C12.952 18.672 12.2979 20.1365 10.7292 20.1365H10.7338ZM25.8816 16.5423C25.7398 12.8945 23.9607 9.64853 19.9679 9.64853C15.4766 9.62621 14.5802 13.4973 13.6289 16.5423H5.08533V16.6762V16.8325C5.13106 20.7973 7.02455 24.3558 11.1637 24.3558C15.9568 24.3781 16.8121 19.9713 17.8229 16.8325H25.909V16.5423H25.8816Z" fill="white"/>
</svg>
