<svg width="187" height="105" viewBox="0 0 187 105" fill="none" xmlns="http://www.w3.org/2000/svg">
<path d="M115.126 0.696406C115.029 0.637003 114.931 0.579346 114.833 0.523438H104.623C104.549 0.638749 104.479 0.755808 104.411 0.872867H115.42C115.322 0.81346 115.224 0.755804 115.126 0.696406ZM47.5991 35.1973V37.8006C47.6428 37.8041 47.6882 37.8041 47.7319 37.8058L47.6445 42.8096L47.5991 42.7852V43.2779L47.6358 43.2971L47.5991 45.3954V52.6286H47.9486V34.018C47.8507 34.3954 47.7342 34.7885 47.5991 35.1973ZM115.126 0.696406C115.029 0.637003 114.931 0.579346 114.833 0.523438H104.623C104.549 0.638749 104.479 0.755808 104.411 0.872867H115.42C115.322 0.81346 115.224 0.755804 115.126 0.696406ZM145.963 0.523438H48.8221C48.4979 0.523798 48.187 0.652766 47.9577 0.882046C47.7284 1.11133 47.5995 1.42219 47.5991 1.74644V103.256C47.5998 103.58 47.7289 103.89 47.9581 104.12C48.1873 104.349 48.498 104.478 48.8221 104.479H145.963C146.288 104.478 146.599 104.349 146.828 104.12C147.057 103.891 147.186 103.58 147.186 103.256V1.74644C147.186 1.42219 147.057 1.11132 146.828 0.882038C146.599 0.652757 146.288 0.523793 145.963 0.52344V0.523438ZM146.837 103.256C146.837 103.487 146.745 103.709 146.581 103.873C146.417 104.037 146.195 104.129 145.963 104.129H48.8221C48.5905 104.129 48.3683 104.037 48.2045 103.873C48.0407 103.709 47.9486 103.487 47.9486 103.256V1.74644C47.9489 1.51487 48.0411 1.2929 48.2048 1.12916C48.3686 0.965413 48.5906 0.873251 48.8221 0.872867H145.963C146.195 0.873248 146.417 0.965407 146.581 1.12915C146.745 1.2929 146.837 1.51487 146.837 1.74644V103.256Z" fill="#525F7E"/>
<path d="M61.6232 76.351C57.0971 76.2427 52.245 78.7787 50.957 83.119L75.5262 82.1188C75.0615 81.7977 74.5948 81.4805 74.1259 81.1673C70.3562 78.66 66.1493 76.4593 61.6232 76.351Z" fill="#DDE2E5"/>
<path d="M75.5261 82.1216C78.7933 84.38 81.9819 86.7903 85.6223 88.3581C94.6365 92.2402 105.013 90.4297 114.498 87.9065C123.983 85.3832 133.665 82.1772 143.393 83.4777C148.909 84.2152 154.117 86.3734 159.442 87.9926C164.767 89.6118 170.496 90.696 175.868 89.2423C181.24 87.7885 186.086 83.1787 186.226 77.615C145.669 70.1164 108.069 69.8937 75.5261 82.1216Z" fill="#DDE2E5"/>
<path d="M11.3053 84.3901C6.77924 84.2817 1.92708 86.8178 0.63916 91.1581L25.2083 90.1579C24.7437 89.8367 24.2769 89.5196 23.8081 89.2064C20.0384 86.6991 15.8314 84.4984 11.3053 84.3901Z" fill="#DDE2E5"/>
<path d="M25.2083 90.1567C28.4755 92.4152 31.664 94.8254 35.3044 96.3932C44.3187 100.275 54.6956 98.4649 64.1804 95.9416C73.6652 93.4184 83.3471 90.2124 93.0753 91.5129C98.5916 92.2503 103.8 94.4086 109.124 96.0278C114.449 97.6469 120.178 98.7312 125.55 97.2774C130.922 95.8237 135.768 91.2139 135.908 85.6502C95.3515 78.1515 57.7507 77.9289 25.2083 90.1567Z" fill="#DDE2E5"/>
<path d="M79.669 52.7383H54.2725C53.9102 52.7385 53.5629 52.8825 53.3067 53.1387C53.0505 53.3949 52.9065 53.7423 52.9062 54.1045V63.3574C52.9065 63.7197 53.0505 64.0671 53.3067 64.3233C53.5629 64.5794 53.9102 64.7235 54.2725 64.7237H79.669C80.0313 64.7235 80.3787 64.5794 80.6349 64.3233C80.8911 64.0671 81.0351 63.7197 81.0353 63.3574V54.1045C81.0351 53.7423 80.8911 53.3949 80.6349 53.1387C80.3787 52.8825 80.0313 52.7385 79.669 52.7383Z" fill="#FBBF24"/>
<path d="M55.4396 52.7383H54.7407V64.7237H55.4396V52.7383Z" fill="#9CABCE"/>
<path d="M58.4098 52.7383H57.7109V64.7237H58.4098V52.7383Z" fill="#9CABCE"/>
<path d="M61.3798 52.7383H60.6809V64.7237H61.3798V52.7383Z" fill="#9CABCE"/>
<path d="M64.35 52.7383H63.6511V64.7237H64.35V52.7383Z" fill="#9CABCE"/>
<path d="M67.3202 52.7383H66.6213V64.7237H67.3202V52.7383Z" fill="#9CABCE"/>
<path d="M70.2904 52.7383H69.5916V64.7237H70.2904V52.7383Z" fill="#9CABCE"/>
<path d="M73.2604 52.7383H72.5615V64.7237H73.2604V52.7383Z" fill="#F59E0B"/>
<path d="M76.2306 52.7383H75.5317V64.7237H76.2306V52.7383Z" fill="#F59E0B"/>
<path d="M79.2008 52.7383H78.502V64.7237H79.2008V52.7383Z" fill="#F59E0B"/>
<path d="M105.885 31.0978L102.767 24.3894C102.538 23.8972 102.173 23.4806 101.716 23.1887C101.258 22.8968 100.727 22.7417 100.184 22.7417H96.5102C96.7873 22.2637 96.9336 21.7211 96.9343 21.1686C96.9351 20.6161 96.7902 20.0732 96.5144 19.5944C96.2386 19.1157 95.8415 18.718 95.3631 18.4416C94.8847 18.1651 94.342 18.0195 93.7895 18.0195C93.2369 18.0195 92.6942 18.1651 92.2158 18.4416C91.7374 18.718 91.3403 19.1157 91.0645 19.5944C90.7887 20.0732 90.6439 20.6161 90.6446 21.1686C90.6453 21.7211 90.7916 22.2637 91.0688 22.7417H87.3949C86.8521 22.7417 86.3206 22.8968 85.863 23.1887C85.4055 23.4806 85.0408 23.8972 84.812 24.3894L81.6941 31.0978C81.4923 31.5318 81.4032 32.0097 81.435 32.4872C81.4667 32.9648 81.6183 33.4266 81.8757 33.8301C82.1331 34.2336 82.4881 34.5657 82.9077 34.7958C83.3274 35.0259 83.7983 35.1465 84.2769 35.1465H92.9159V67.6434H94.663V35.1465H103.302C103.781 35.1465 104.252 35.0259 104.671 34.7958C105.091 34.5657 105.446 34.2336 105.703 33.8301C105.961 33.4266 106.112 32.9648 106.144 32.4872C106.176 32.0097 106.087 31.5318 105.885 31.0978Z" fill="#202739"/>
<path d="M142.042 52.7383H116.646C116.283 52.7385 115.936 52.8825 115.68 53.1387C115.424 53.3949 115.28 53.7423 115.279 54.1045V63.3574C115.28 63.7197 115.424 64.0671 115.68 64.3233C115.936 64.5794 116.283 64.7235 116.646 64.7237H142.042C142.404 64.7235 142.752 64.5794 143.008 64.3233C143.264 64.0671 143.408 63.7197 143.408 63.3574V54.1045C143.408 53.7423 143.264 53.3949 143.008 53.1387C142.752 52.8825 142.404 52.7385 142.042 52.7383Z" fill="#F76C76"/>
<path d="M117.813 52.7383H117.114V64.7237H117.813V52.7383Z" fill="#F24D59"/>
<path d="M120.783 52.7383H120.084V64.7237H120.783V52.7383Z" fill="#F24D59"/>
<path d="M123.753 52.7383H123.054V64.7237H123.753V52.7383Z" fill="#F24D59"/>
<path d="M126.723 52.7383H126.024V64.7237H126.723V52.7383Z" fill="#F24D59"/>
<path d="M129.693 52.7383H128.994V64.7237H129.693V52.7383Z" fill="#F24D59"/>
<path d="M132.663 52.7383H131.965V64.7237H132.663V52.7383Z" fill="#F24D59"/>
<path d="M135.634 52.7383H134.935V64.7237H135.634V52.7383Z" fill="#F24D59"/>
<path d="M138.604 52.7383H137.905V64.7237H138.604V52.7383Z" fill="#F24D59"/>
<path d="M141.574 52.7383H140.875V64.7237H141.574V52.7383Z" fill="#F24D59"/>
<path d="M113.738 52.7383H88.3418C87.9796 52.7385 87.6322 52.8825 87.376 53.1387C87.1198 53.3949 86.9758 53.7423 86.9756 54.1045V63.3574C86.9758 63.7197 87.1198 64.0671 87.376 64.3233C87.6322 64.5794 87.9796 64.7235 88.3418 64.7237H113.738C114.101 64.7235 114.448 64.5794 114.704 64.3233C114.96 64.0671 115.104 63.7197 115.105 63.3574V54.1045C115.104 53.7423 114.96 53.3949 114.704 53.1387C114.448 52.8825 114.101 52.7385 113.738 52.7383Z" fill="#F76C76"/>
<path d="M89.5089 52.7383H88.8101V64.7237H89.5089V52.7383Z" fill="#9CABCE"/>
<path d="M92.4791 52.7383H91.7803V64.7237H92.4791V52.7383Z" fill="#9CABCE"/>
<path d="M95.4493 52.7383H94.7505V64.7237H95.4493V52.7383Z" fill="#9CABCE"/>
<path d="M98.4193 52.7383H97.7205V64.7237H98.4193V52.7383Z" fill="#9CABCE"/>
<path d="M101.39 52.7383H100.691V64.7237H101.39V52.7383Z" fill="#9CABCE"/>
<path d="M104.36 52.7383H103.661V64.7237H104.36V52.7383Z" fill="#9CABCE"/>
<path d="M107.33 52.7383H106.631V64.7237H107.33V52.7383Z" fill="#F24D59"/>
<path d="M110.3 52.7383H109.601V64.7237H110.3V52.7383Z" fill="#F24D59"/>
<path d="M113.27 52.7383H112.571V64.7237H113.27V52.7383Z" fill="#9CABCE"/>
<path d="M143.964 40.6836H118.567C118.205 40.6838 117.858 40.8278 117.602 41.084C117.345 41.3402 117.201 41.6876 117.201 42.0498V51.3027C117.201 51.665 117.345 52.0124 117.602 52.2686C117.858 52.5248 118.205 52.6688 118.567 52.669H143.964C144.326 52.6688 144.674 52.5248 144.93 52.2686C145.186 52.0124 145.33 51.665 145.33 51.3027V42.0498C145.33 41.6876 145.186 41.3402 144.93 41.084C144.674 40.8278 144.326 40.6838 143.964 40.6836Z" fill="#FBBF24"/>
<path d="M119.735 40.6836H119.036V52.669H119.735V40.6836Z" fill="#F59E0B"/>
<path d="M122.705 40.6836H122.006V52.669H122.705V40.6836Z" fill="#F59E0B"/>
<path d="M125.675 40.6836H124.976V52.669H125.675V40.6836Z" fill="#F59E0B"/>
<path d="M128.645 40.6836H127.946V52.669H128.645V40.6836Z" fill="#F59E0B"/>
<path d="M131.615 40.6836H130.916V52.669H131.615V40.6836Z" fill="#F59E0B"/>
<path d="M134.585 40.6836H133.886V52.669H134.585V40.6836Z" fill="#F59E0B"/>
<path d="M137.556 40.6836H136.857V52.669H137.556V40.6836Z" fill="#F59E0B"/>
<path d="M140.526 40.6836H139.827V52.669H140.526V40.6836Z" fill="#F59E0B"/>
<path d="M143.496 40.6836H142.797V52.669H143.496V40.6836Z" fill="#F59E0B"/>
<path d="M136.451 53.6133H111.055C110.692 53.6135 110.345 53.7575 110.089 54.0137C109.833 54.2699 109.689 54.6173 109.688 54.9795V64.2324C109.689 64.5947 109.833 64.9421 110.089 65.1983C110.345 65.4544 110.692 65.5985 111.055 65.5987H136.451C136.814 65.5985 137.161 65.4544 137.417 65.1983C137.673 64.9421 137.817 64.5947 137.818 64.2324V54.9795C137.817 54.6173 137.673 54.2699 137.417 54.0137C137.161 53.7575 136.814 53.6135 136.451 53.6133Z" fill="#10CFC9"/>
<path d="M112.222 53.6133H111.523V65.5987H112.222V53.6133Z" fill="#0BA29D"/>
<path d="M115.192 53.6133H114.493V65.5987H115.192V53.6133Z" fill="#0BA29D"/>
<path d="M118.162 53.6133H117.463V65.5987H118.162V53.6133Z" fill="#0BA29D"/>
<path d="M121.132 53.6133H120.433V65.5987H121.132V53.6133Z" fill="#0BA29D"/>
<path d="M124.102 53.6133H123.404V65.5987H124.102V53.6133Z" fill="#0BA29D"/>
<path d="M127.073 53.6133H126.374V65.5987H127.073V53.6133Z" fill="#0BA29D"/>
<path d="M130.043 53.6133H129.344V65.5987H130.043V53.6133Z" fill="#0BA29D"/>
<path d="M133.013 53.6133H132.314V65.5987H133.013V53.6133Z" fill="#0BA29D"/>
<path d="M135.983 53.6133H135.284V65.5987H135.983V53.6133Z" fill="#0BA29D"/>
<path d="M104.479 53.6133H79.0821C78.7198 53.6135 78.3724 53.7575 78.1162 54.0137C77.8601 54.2699 77.7161 54.6173 77.7158 54.9795V64.2324C77.7161 64.5947 77.8601 64.9421 78.1162 65.1983C78.3724 65.4544 78.7198 65.5985 79.0821 65.5987H104.479C104.841 65.5985 105.188 65.4544 105.444 65.1983C105.701 64.9421 105.845 64.5947 105.845 64.2324V54.9795C105.845 54.6173 105.701 54.2699 105.444 54.0137C105.188 53.7575 104.841 53.6135 104.479 53.6133Z" fill="#10CFC9"/>
<path d="M80.2491 53.6133H79.5503V65.5987H80.2491V53.6133Z" fill="#0BA29D"/>
<path d="M83.2191 53.6133H82.5203V65.5987H83.2191V53.6133Z" fill="#0BA29D"/>
<path d="M86.1893 53.6133H85.4905V65.5987H86.1893V53.6133Z" fill="#0BA29D"/>
<path d="M89.1596 53.6133H88.4607V65.5987H89.1596V53.6133Z" fill="#0BA29D"/>
<path d="M92.1298 53.6133H91.4309V65.5987H92.1298V53.6133Z" fill="#0BA29D"/>
<path d="M95.0997 53.6133H94.4009V65.5987H95.0997V53.6133Z" fill="#0BA29D"/>
<path d="M98.07 53.6133H97.3711V65.5987H98.07V53.6133Z" fill="#0BA29D"/>
<path d="M101.04 53.6133H100.341V65.5987H101.04V53.6133Z" fill="#0BA29D"/>
<path d="M104.01 53.6133H103.312V65.5987H104.01V53.6133Z" fill="#0BA29D"/>
<path d="M114.088 41.5586H88.6912C88.3289 41.5588 87.9815 41.7028 87.7254 41.959C87.4692 42.2152 87.3252 42.5626 87.325 42.9248V52.1778C87.3252 52.54 87.4692 52.8874 87.7254 53.1436C87.9815 53.3998 88.3289 53.5438 88.6912 53.544H114.088C114.45 53.5438 114.797 53.3998 115.054 53.1436C115.31 52.8874 115.454 52.54 115.454 52.1778V42.9248C115.454 42.5626 115.31 42.2152 115.054 41.959C114.797 41.7028 114.45 41.5588 114.088 41.5586Z" fill="#10CFC9"/>
<path d="M89.8583 41.5586H89.1594V53.544H89.8583V41.5586Z" fill="#0BA29D"/>
<path d="M92.8285 41.5586H92.1296V53.544H92.8285V41.5586Z" fill="#0BA29D"/>
<path d="M95.7987 41.5586H95.0999V53.544H95.7987V41.5586Z" fill="#0BA29D"/>
<path d="M98.7689 41.5586H98.0701V53.544H98.7689V41.5586Z" fill="#0BA29D"/>
<path d="M101.739 41.5586H101.04V53.544H101.739V41.5586Z" fill="#0BA29D"/>
<path d="M104.709 41.5586H104.01V53.544H104.709V41.5586Z" fill="#0BA29D"/>
<path d="M107.679 41.5586H106.98V53.544H107.679V41.5586Z" fill="#0BA29D"/>
<path d="M110.65 41.5586H109.951V53.544H110.65V41.5586Z" fill="#0BA29D"/>
<path d="M113.62 41.5586H112.921V53.544H113.62V41.5586Z" fill="#0BA29D"/>
<path d="M70.409 53.6133H45.0125C44.6502 53.6135 44.3028 53.7575 44.0467 54.0137C43.7905 54.2699 43.6465 54.6173 43.6462 54.9795V64.2324C43.6465 64.5947 43.7905 64.9421 44.0467 65.1983C44.3028 65.4544 44.6502 65.5985 45.0125 65.5987H70.409C70.7713 65.5985 71.1187 65.4544 71.3749 65.1983C71.631 64.9421 71.7751 64.5947 71.7753 64.2324V54.9795C71.7751 54.6173 71.631 54.2699 71.3749 54.0137C71.1187 53.7575 70.7713 53.6135 70.409 53.6133Z" fill="#10CFC9"/>
<path d="M46.1798 53.6133H45.481V65.5987H46.1798V53.6133Z" fill="#0BA29D"/>
<path d="M49.1498 53.6133H48.4509V65.5987H49.1498V53.6133Z" fill="#0BA29D"/>
<path d="M52.12 53.6133H51.4211V65.5987H52.12V53.6133Z" fill="#0BA29D"/>
<path d="M55.0902 53.6133H54.3914V65.5987H55.0902V53.6133Z" fill="#0BA29D"/>
<path d="M58.0604 53.6133H57.3616V65.5987H58.0604V53.6133Z" fill="#0BA29D"/>
<path d="M61.0304 53.6133H60.3315V65.5987H61.0304V53.6133Z" fill="#0BA29D"/>
<path d="M64.0006 53.6133H63.3018V65.5987H64.0006V53.6133Z" fill="#0BA29D"/>
<path d="M66.9708 53.6133H66.272V65.5987H66.9708V53.6133Z" fill="#0BA29D"/>
<path d="M69.9408 53.6133H69.2419V65.5987H69.9408V53.6133Z" fill="#0BA29D"/>
<path d="M76.6988 41.5586H51.3023C50.94 41.5588 50.5926 41.7028 50.3365 41.959C50.0803 42.2152 49.9363 42.5626 49.936 42.9248V52.1778C49.9363 52.54 50.0803 52.8874 50.3365 53.1436C50.5926 53.3998 50.94 53.5438 51.3023 53.544H76.6988C77.0611 53.5438 77.4085 53.3998 77.6647 53.1436C77.9208 52.8874 78.0649 52.54 78.0651 52.1778V42.9248C78.0649 42.5626 77.9208 42.2152 77.6647 41.959C77.4085 41.7028 77.0611 41.5588 76.6988 41.5586Z" fill="#10CFC9"/>
<path d="M52.4694 41.5586H51.7705V53.544H52.4694V41.5586Z" fill="#0BA29D"/>
<path d="M55.4396 41.5586H54.7407V53.544H55.4396V41.5586Z" fill="#0BA29D"/>
<path d="M58.4098 41.5586H57.7109V53.544H58.4098V41.5586Z" fill="#0BA29D"/>
<path d="M61.3798 41.5586H60.6809V53.544H61.3798V41.5586Z" fill="#0BA29D"/>
<path d="M64.35 41.5586H63.6511V53.544H64.35V41.5586Z" fill="#0BA29D"/>
<path d="M67.3202 41.5586H66.6213V53.544H67.3202V41.5586Z" fill="#0BA29D"/>
<path d="M70.2904 41.5586H69.5916V53.544H70.2904V41.5586Z" fill="#0BA29D"/>
<path d="M73.2604 41.5586H72.5615V53.544H73.2604V41.5586Z" fill="#0BA29D"/>
<path d="M76.2306 41.5586H75.5317V53.544H76.2306V41.5586Z" fill="#0BA29D"/>
<path d="M158.811 66.3072C158.769 66.1561 158.714 66.0087 158.649 65.8664L155.531 59.158C155.302 58.6658 154.937 58.2492 154.48 57.9573C154.022 57.6654 153.491 57.5103 152.948 57.5103H140.159C139.616 57.5103 139.084 57.6654 138.627 57.9573C138.169 58.2492 137.805 58.6658 137.576 59.158L135.012 64.6736H61.92L59.4376 59.3327C59.2088 58.8405 58.8442 58.4239 58.3866 58.132C57.929 57.8401 57.3975 57.685 56.8548 57.685H44.0656C43.5747 57.6852 43.0922 57.8125 42.6652 58.0545L40.5148 54.2147C40.3728 53.9611 40.1508 53.7618 39.8834 53.6479C39.616 53.5341 39.3184 53.5121 39.0372 53.5855C38.756 53.6589 38.5071 53.8235 38.3295 54.0534C38.1518 54.2834 38.0554 54.5658 38.0554 54.8564V85.0134C38.0554 85.4627 38.1439 85.9076 38.3159 86.3227C38.4878 86.7378 38.7398 87.115 39.0575 87.4327C39.3752 87.7504 39.7524 88.0024 40.1675 88.1744C40.5826 88.3463 41.0275 88.4348 41.4768 88.4348H139.348C139.804 88.4348 140.255 88.3438 140.675 88.167C141.095 87.9903 141.476 87.7314 141.794 87.4056L158.339 70.4871C158.877 69.9451 159.216 69.2376 159.301 68.479C159.387 67.7205 159.214 66.9553 158.811 66.3072Z" fill="#202739"/>
<path d="M141.591 64.2351H139.984C139.641 64.2347 139.313 64.0983 139.07 63.8559C138.828 63.6135 138.692 63.2848 138.691 62.9419V61.1603C138.692 60.8175 138.828 60.4888 139.07 60.2464C139.313 60.0039 139.641 59.8676 139.984 59.8672H141.591C141.934 59.8676 142.263 60.0039 142.505 60.2464C142.748 60.4888 142.884 60.8175 142.884 61.1603V62.942C142.884 63.2848 142.748 63.6135 142.505 63.8559C142.263 64.0983 141.934 64.2347 141.591 64.2351Z" fill="white"/>
<path d="M147.357 64.2351H145.75C145.407 64.2347 145.078 64.0983 144.836 63.8559C144.594 63.6135 144.457 63.2848 144.457 62.9419V61.1603C144.457 60.8175 144.594 60.4888 144.836 60.2464C145.078 60.0039 145.407 59.8676 145.75 59.8672H147.357C147.7 59.8676 148.028 60.0039 148.271 60.2464C148.513 60.4888 148.65 60.8175 148.65 61.1603V62.942C148.65 63.2848 148.513 63.6135 148.271 63.8559C148.028 64.0983 147.7 64.2347 147.357 64.2351Z" fill="white"/>
<path d="M153.122 64.2351H151.515C151.172 64.2347 150.844 64.0983 150.601 63.8559C150.359 63.6135 150.223 63.2848 150.222 62.9419V61.1603C150.223 60.8175 150.359 60.4888 150.601 60.2464C150.844 60.0039 151.172 59.8676 151.515 59.8672H153.122C153.465 59.8676 153.794 60.0039 154.036 60.2464C154.279 60.4888 154.415 60.8175 154.415 61.1603V62.942C154.415 63.2848 154.279 63.6135 154.036 63.8559C153.794 64.0983 153.465 64.2347 153.122 64.2351Z" fill="white"/>
<path d="M88.8273 29.4694H87.2204C86.8775 29.469 86.5488 29.3327 86.3064 29.0902C86.064 28.8478 85.9276 28.5191 85.9272 28.1763V26.3947C85.9276 26.0518 86.064 25.7232 86.3064 25.4807C86.5488 25.2383 86.8775 25.102 87.2204 25.1016H88.8273C89.1701 25.102 89.4988 25.2383 89.7412 25.4807C89.9836 25.7232 90.12 26.0518 90.1204 26.3947V28.1763C90.12 28.5191 89.9836 28.8478 89.7412 29.0902C89.4988 29.3327 89.1701 29.469 88.8273 29.4694Z" fill="white"/>
<path d="M94.5929 29.4694H92.986C92.6432 29.469 92.3145 29.3327 92.0721 29.0902C91.8296 28.8478 91.6933 28.5191 91.6929 28.1763V26.3947C91.6933 26.0518 91.8296 25.7232 92.0721 25.4807C92.3145 25.2383 92.6432 25.102 92.986 25.1016H94.5929C94.9357 25.102 95.2644 25.2383 95.5068 25.4807C95.7493 25.7232 95.8856 26.0518 95.886 26.3947V28.1763C95.8856 28.5191 95.7492 28.8478 95.5068 29.0902C95.2644 29.3327 94.9357 29.469 94.5929 29.4694Z" fill="white"/>
<path d="M100.359 29.4694H98.7516C98.4088 29.469 98.0801 29.3327 97.8377 29.0902C97.5953 28.8478 97.4589 28.5191 97.4585 28.1763V26.3947C97.4589 26.0518 97.5953 25.7232 97.8377 25.4807C98.0801 25.2383 98.4088 25.102 98.7516 25.1016H100.359C100.701 25.102 101.03 25.2383 101.272 25.4807C101.515 25.7232 101.651 26.0518 101.652 26.3947V28.1763C101.651 28.5191 101.515 28.8478 101.272 29.0902C101.03 29.3327 100.701 29.469 100.359 29.4694Z" fill="white"/>
<path d="M45.4982 64.4108H43.8913C43.5484 64.4104 43.2197 64.2741 42.9773 64.0316C42.7349 63.7892 42.5985 63.4605 42.5981 63.1177V61.3361C42.5985 60.9933 42.7349 60.6646 42.9773 60.4221C43.2197 60.1797 43.5484 60.0434 43.8913 60.043H45.4982C45.841 60.0434 46.1697 60.1797 46.4121 60.4221C46.6545 60.6646 46.7909 60.9933 46.7913 61.3361V63.1177C46.7909 63.4605 46.6545 63.7892 46.4121 64.0316C46.1697 64.2741 45.841 64.4104 45.4982 64.4108Z" fill="white"/>
<path d="M51.2638 64.4108H49.6569C49.3141 64.4104 48.9854 64.2741 48.743 64.0316C48.5005 63.7892 48.3642 63.4605 48.3638 63.1177V61.3361C48.3642 60.9933 48.5005 60.6646 48.743 60.4221C48.9854 60.1797 49.3141 60.0434 49.6569 60.043H51.2638C51.6066 60.0434 51.9353 60.1797 52.1777 60.4221C52.4202 60.6646 52.5565 60.9933 52.5569 61.3361V63.1177C52.5565 63.4605 52.4202 63.7892 52.1777 64.0316C51.9353 64.2741 51.6066 64.4104 51.2638 64.4108Z" fill="white"/>
<path d="M57.0292 64.4108H55.4223C55.0794 64.4104 54.7508 64.2741 54.5083 64.0316C54.2659 63.7892 54.1295 63.4605 54.1292 63.1177V61.3361C54.1295 60.9933 54.2659 60.6646 54.5083 60.4221C54.7508 60.1797 55.0794 60.0434 55.4223 60.043H57.0292C57.372 60.0434 57.7007 60.1797 57.9431 60.4221C58.1855 60.6646 58.3219 60.9933 58.3223 61.3361V63.1177C58.3219 63.4605 58.1855 63.7892 57.9431 64.0316C57.7007 64.2741 57.372 64.4104 57.0292 64.4108Z" fill="white"/>
<path d="M35.526 82.8119C30.9999 82.7036 26.1478 85.2396 24.8599 89.58L49.429 88.5798C48.9644 88.2586 48.4976 87.9414 48.0288 87.6283C44.2591 85.121 40.0521 82.9203 35.526 82.8119Z" fill="white"/>
<path d="M49.4292 88.5786C52.6964 90.837 55.8849 93.2473 59.5254 94.8151C68.5396 98.6972 78.9166 96.8867 88.4014 94.3635C97.8861 91.8403 107.568 88.6343 117.296 89.9348C122.813 90.6722 128.02 92.8304 133.345 94.4496C138.67 96.0688 144.399 97.1531 149.771 95.6993C155.143 94.2456 159.989 89.6357 160.129 84.0721C119.572 76.5734 81.9716 76.3508 49.4292 88.5786Z" fill="white"/>
<path d="M134.659 15.6933C137.235 15.6933 139.324 13.6047 139.324 11.0283C139.324 8.45188 137.235 6.36328 134.659 6.36328C132.082 6.36328 129.994 8.45188 129.994 11.0283C129.994 13.6047 132.082 15.6933 134.659 15.6933Z" fill="#F76C76"/>
<path d="M145.099 8.82103C144.968 8.38964 144.713 8.00615 144.366 7.71777C144.019 7.42938 143.596 7.24869 143.148 7.19793C143.137 7.19706 143.127 7.19706 143.116 7.19793C143.104 7.194 143.091 7.19108 143.078 7.1892C141.516 6.98653 139.779 7.47922 138.61 8.55197L138.597 8.56373C138.301 8.83778 137.94 9.03151 137.548 9.12651C137.155 9.2215 136.745 9.21461 136.357 9.10647C136.143 9.04746 135.921 9.02305 135.7 9.03417C135.227 9.06543 134.775 9.24175 134.406 9.53909C134.037 9.83643 133.769 10.2403 133.638 10.6957C133.624 10.7513 133.627 10.8101 133.649 10.8633C133.671 10.9165 133.709 10.9613 133.758 10.991C133.899 11.1111 134.066 11.1962 134.246 11.2391C134.632 11.3212 135.022 11.3963 135.411 11.4644C136.173 11.5972 136.939 11.705 137.709 11.7877C138.217 11.8418 138.727 11.8849 139.238 11.917C140.293 11.9833 141.353 11.9991 142.41 11.9659C142.934 11.9484 143.438 11.9309 143.916 11.7003C144.265 11.5287 144.563 11.2692 144.781 10.9473C144.986 10.6376 145.121 10.2868 145.176 9.91943C145.231 9.55208 145.205 9.17715 145.099 8.82103Z" fill="#EFF2FA"/>
<path d="M135.502 15.6147C135.493 15.4192 135.461 15.2256 135.404 15.0381C135.272 14.6068 135.017 14.2234 134.67 13.9351C134.323 13.6468 133.899 13.466 133.451 13.415C133.441 13.4142 133.431 13.4142 133.421 13.415C133.408 13.4113 133.395 13.4084 133.381 13.4063C132.517 13.3004 131.639 13.3906 130.815 13.6701C130.106 13.9013 129.454 14.2794 128.902 14.7797C128.606 15.0541 128.245 15.2481 127.852 15.3433C127.46 15.4385 127.05 15.4317 126.661 15.3235C126.447 15.2645 126.225 15.2402 126.003 15.2513C125.53 15.2825 125.079 15.4589 124.71 15.7562C124.341 16.0535 124.072 16.4574 123.941 16.9128C123.928 16.9685 123.932 17.027 123.954 17.08C123.975 17.133 124.013 17.1779 124.062 17.2081C124.203 17.3279 124.37 17.4129 124.549 17.4562C124.937 17.5383 125.325 17.6134 125.716 17.6816C126.478 17.8143 127.243 17.9221 128.012 18.0048C129.574 18.1724 131.146 18.232 132.716 18.183C133.238 18.1655 133.743 18.1481 134.222 17.9174C134.57 17.7458 134.867 17.4862 135.085 17.1644C135.391 16.708 135.538 16.1632 135.502 15.6147Z" fill="#EFF2FA"/>
<path d="M137.234 27.016C137.178 27.2591 137.217 27.5142 137.343 27.7295C137.417 27.839 137.525 27.9209 137.65 27.9623C137.775 28.0038 137.911 28.0024 138.035 27.9585C138.524 27.8068 139.006 27.6291 139.491 27.4644C139.557 27.4446 139.613 27.4 139.647 27.34C139.681 27.2799 139.691 27.209 139.674 27.1421C139.655 27.0754 139.61 27.0189 139.55 26.9847C139.49 26.9504 139.418 26.9412 139.351 26.959L138.141 27.3704C138.049 27.4015 137.958 27.4368 137.865 27.4623C137.855 27.4649 137.82 27.4727 137.822 27.4726C137.826 27.4721 137.854 27.4751 137.823 27.473C137.806 27.4677 137.806 27.4689 137.824 27.4764L137.8 27.4632C137.822 27.4808 137.798 27.4609 137.791 27.4535C137.784 27.447 137.765 27.421 137.78 27.4423C137.769 27.4271 137.76 27.411 137.752 27.3942C137.765 27.4225 137.741 27.3525 137.74 27.3428C137.73 27.2335 137.736 27.1234 137.758 27.016C137.758 26.9466 137.73 26.8801 137.681 26.831C137.632 26.782 137.565 26.7542 137.496 26.7539C137.427 26.7556 137.361 26.7838 137.313 26.8326C137.264 26.8813 137.236 26.947 137.234 27.016Z" fill="#525F7E"/>
<path d="M117.722 27.9349L119.013 29.5636C119.178 29.7709 119.53 29.5465 119.451 29.3087C119.29 28.8222 119.846 28.5511 120.23 28.471C120.739 28.3648 121.249 28.382 121.732 28.1633C122.039 28.0243 121.773 27.5724 121.468 27.7107C120.903 27.9666 120.244 27.8493 119.672 28.0982C119.161 28.3207 118.756 28.8755 118.946 29.448L119.384 29.193L118.092 27.5643C118.043 27.5156 117.976 27.4883 117.907 27.4883C117.837 27.4883 117.771 27.5156 117.722 27.5643C117.674 27.6142 117.647 27.6806 117.647 27.7496C117.647 27.8186 117.674 27.885 117.722 27.9349L117.722 27.9349Z" fill="#525F7E"/>
<path d="M115.101 8.89195L116.393 10.5207C116.557 10.7279 116.909 10.5036 116.831 10.2657C116.67 9.77923 117.225 9.50818 117.609 9.42808C118.118 9.3218 118.629 9.33904 119.112 9.12029C119.419 8.98132 119.152 8.52946 118.847 8.6677C118.282 8.9236 117.623 8.80629 117.051 9.0552C116.54 9.27769 116.136 9.83251 116.325 10.405L116.763 10.15L115.472 8.52132C115.422 8.47262 115.356 8.44531 115.286 8.44531C115.217 8.44531 115.15 8.47262 115.101 8.52132C115.053 8.57122 115.027 8.6376 115.027 8.70664C115.027 8.77567 115.053 8.84205 115.101 8.89195L115.101 8.89195Z" fill="#525F7E"/>
</svg>
