<svg width="199" height="199" viewBox="0 0 199 199" fill="none" xmlns="http://www.w3.org/2000/svg">
<path d="M17.8494 141.014L17.5818 140.914C17.5229 140.892 11.6683 138.648 8.92568 133.562C6.18298 128.476 7.52595 122.352 7.53983 122.291L7.60304 122.012L7.87061 122.112C7.92944 122.134 13.784 124.377 16.5267 129.464C19.2694 134.55 17.9264 140.674 17.9125 140.735L17.8494 141.014ZM9.36485 133.325C11.6836 137.626 16.3101 139.83 17.4824 140.333C17.7052 139.077 18.4042 133.997 16.0875 129.7C13.7711 125.405 9.14271 123.197 7.97 122.692C7.747 123.949 7.04829 129.029 9.36485 133.325Z" fill="#323C55"/>
<path d="M11.0217 131.779C15.9505 134.744 17.8487 140.634 17.8487 140.634C17.8487 140.634 11.7558 141.716 6.82701 138.751C1.89823 135.786 0 129.896 0 129.896C0 129.896 6.09291 128.814 11.0217 131.779Z" fill="#10CFC9"/>
<path d="M168.759 54.5781H113.798V53.4453H88.876V54.5781H33.6879C33.1997 54.5781 32.7163 54.6743 32.2652 54.8611C31.8142 55.0479 31.4043 55.3218 31.0591 55.667C30.7139 56.0122 30.44 56.4221 30.2532 56.8731C30.0664 57.3242 29.9702 57.8076 29.9702 58.2959V133.555C29.9702 134.541 30.3619 135.487 31.0591 136.184C31.7563 136.881 32.7019 137.273 33.6879 137.273H168.759C169.247 137.273 169.731 137.177 170.182 136.99C170.633 136.803 171.043 136.529 171.388 136.184C171.733 135.839 172.007 135.429 172.194 134.978C172.381 134.527 172.477 134.043 172.477 133.555V58.2959C172.477 57.8076 172.381 57.3242 172.194 56.8731C172.007 56.4221 171.733 56.0122 171.388 55.667C171.043 55.3218 170.633 55.0479 170.182 54.8611C169.731 54.6743 169.247 54.5781 168.759 54.5781Z" fill="#323C55"/>
<path d="M167.493 61.1484H34.9546V135.913H167.493V61.1484Z" fill="#10CFC9"/>
<path d="M101.11 59.1094C101.861 59.1094 102.47 58.5008 102.47 57.75C102.47 56.9992 101.861 56.3906 101.11 56.3906C100.36 56.3906 99.751 56.9992 99.751 57.75C99.751 58.5008 100.36 59.1094 101.11 59.1094Z" fill="#0C162D"/>
<path d="M159.884 70.6655H153.601V64.3828H159.884V70.6655ZM153.874 70.3923H159.611V64.656H153.874V70.3923Z" fill="#323C55"/>
<path d="M176.198 134.554H163.263V133.622C163.263 133.598 163.259 133.574 163.249 133.552C163.24 133.529 163.227 133.509 163.209 133.492C163.192 133.474 163.172 133.461 163.149 133.452C163.127 133.442 163.103 133.437 163.079 133.438H158.644C158.62 133.437 158.596 133.442 158.573 133.452C158.551 133.461 158.53 133.474 158.513 133.492C158.496 133.509 158.482 133.529 158.473 133.552C158.464 133.574 158.459 133.598 158.459 133.622V134.554H155.687V133.622C155.687 133.598 155.683 133.574 155.673 133.552C155.664 133.529 155.65 133.509 155.633 133.492C155.616 133.474 155.596 133.461 155.573 133.452C155.551 133.442 155.527 133.437 155.503 133.438H151.068C151.043 133.437 151.019 133.442 150.997 133.452C150.975 133.461 150.954 133.474 150.937 133.492C150.92 133.509 150.906 133.529 150.897 133.552C150.888 133.574 150.883 133.598 150.883 133.622V134.554H148.111V133.622C148.111 133.598 148.106 133.574 148.097 133.552C148.088 133.529 148.074 133.509 148.057 133.492C148.04 133.474 148.02 133.461 147.997 133.452C147.975 133.442 147.951 133.437 147.926 133.438H143.492C143.467 133.437 143.443 133.442 143.421 133.452C143.398 133.461 143.378 133.474 143.361 133.492C143.344 133.509 143.33 133.529 143.321 133.552C143.312 133.574 143.307 133.598 143.307 133.622V134.554H140.535V133.622C140.535 133.598 140.53 133.574 140.521 133.552C140.512 133.529 140.498 133.509 140.481 133.492C140.464 133.474 140.443 133.461 140.421 133.452C140.399 133.442 140.375 133.437 140.35 133.438H135.915C135.891 133.437 135.867 133.442 135.845 133.452C135.822 133.461 135.802 133.474 135.785 133.492C135.768 133.509 135.754 133.529 135.745 133.552C135.735 133.574 135.731 133.598 135.731 133.622V134.554H132.959V133.622C132.959 133.598 132.954 133.574 132.945 133.552C132.936 133.529 132.922 133.509 132.905 133.492C132.888 133.474 132.867 133.461 132.845 133.452C132.822 133.442 132.798 133.437 132.774 133.438H128.339C128.315 133.437 128.291 133.442 128.269 133.452C128.246 133.461 128.226 133.474 128.209 133.492C128.192 133.509 128.178 133.529 128.169 133.552C128.159 133.574 128.155 133.598 128.155 133.622V134.554H125.383V133.622C125.383 133.598 125.378 133.574 125.369 133.552C125.359 133.529 125.346 133.509 125.329 133.492C125.312 133.474 125.291 133.461 125.269 133.452C125.246 133.442 125.222 133.437 125.198 133.438H120.763C120.739 133.437 120.715 133.442 120.692 133.452C120.67 133.461 120.65 133.474 120.633 133.492C120.615 133.509 120.602 133.529 120.592 133.552C120.583 133.574 120.578 133.598 120.578 133.622V134.554H117.807V133.622C117.807 133.598 117.802 133.574 117.793 133.552C117.783 133.529 117.77 133.509 117.753 133.492C117.735 133.474 117.715 133.461 117.693 133.452C117.67 133.442 117.646 133.437 117.622 133.438H82.8826C82.8583 133.437 82.8343 133.442 82.8119 133.452C82.7894 133.461 82.7691 133.474 82.7519 133.492C82.7348 133.509 82.7211 133.529 82.7119 133.552C82.7026 133.574 82.6978 133.598 82.6978 133.622V134.554H79.926V133.622C79.926 133.598 79.9213 133.574 79.912 133.552C79.9027 133.529 79.8891 133.509 79.8719 133.492C79.8547 133.474 79.8344 133.461 79.812 133.452C79.7895 133.442 79.7655 133.437 79.7412 133.438H75.3064C75.2822 133.437 75.2581 133.442 75.2357 133.452C75.2133 133.461 75.1929 133.474 75.1758 133.492C75.1586 133.509 75.145 133.529 75.1357 133.552C75.1264 133.574 75.1217 133.598 75.1217 133.622V134.554H72.3499V133.622C72.3499 133.598 72.3451 133.574 72.3358 133.552C72.3265 133.529 72.3129 133.509 72.2958 133.492C72.2786 133.474 72.2583 133.461 72.2358 133.452C72.2134 133.442 72.1894 133.437 72.1651 133.438H67.7303C67.706 133.437 67.682 133.442 67.6596 133.452C67.6372 133.461 67.6168 133.474 67.5996 133.492C67.5825 133.509 67.5689 133.529 67.5596 133.552C67.5503 133.574 67.5455 133.598 67.5455 133.622V134.554H64.7738V133.622C64.7738 133.598 64.769 133.574 64.7597 133.552C64.7504 133.529 64.7368 133.509 64.7197 133.492C64.7025 133.474 64.6821 133.461 64.6597 133.452C64.6373 133.442 64.6133 133.437 64.589 133.438H60.1542C60.1299 133.437 60.1059 133.442 60.0835 133.452C60.061 133.461 60.0407 133.474 60.0235 133.492C60.0064 133.509 59.9927 133.529 59.9835 133.552C59.9742 133.574 59.9694 133.598 59.9694 133.622V134.554H57.1976V133.622C57.1976 133.598 57.1929 133.574 57.1836 133.552C57.1743 133.529 57.1607 133.509 57.1435 133.492C57.1264 133.474 57.106 133.461 57.0836 133.452C57.0612 133.442 57.0371 133.437 57.0129 133.438H52.578C52.5538 133.437 52.5298 133.442 52.5073 133.452C52.4849 133.461 52.4645 133.474 52.4474 133.492C52.4302 133.509 52.4166 133.529 52.4073 133.552C52.398 133.574 52.3933 133.598 52.3933 133.622V134.554H49.6215V133.622C49.6215 133.598 49.6167 133.574 49.6074 133.552C49.5982 133.529 49.5846 133.509 49.5674 133.492C49.5502 133.474 49.5299 133.461 49.5074 133.452C49.485 133.442 49.461 133.437 49.4367 133.438H45.0019C44.9777 133.437 44.9536 133.442 44.9312 133.452C44.9088 133.461 44.8884 133.474 44.8713 133.492C44.8541 133.509 44.8405 133.529 44.8312 133.552C44.8219 133.574 44.8171 133.598 44.8171 133.622V134.554H42.0454V133.622C42.0454 133.598 42.0406 133.574 42.0313 133.552C42.022 133.529 42.0084 133.509 41.9913 133.492C41.9741 133.474 41.9537 133.461 41.9313 133.452C41.9089 133.442 41.8849 133.437 41.8606 133.438H37.4258C37.4015 133.437 37.3775 133.442 37.3551 133.452C37.3327 133.461 37.3123 133.474 37.2951 133.492C37.278 133.509 37.2644 133.529 37.2551 133.552C37.2458 133.574 37.241 133.598 37.241 133.622V134.554H28.741C27.5648 134.554 26.4368 135.021 25.6051 135.853C24.7734 136.685 24.3062 137.813 24.3062 138.989V140.994C24.3062 142.171 24.7734 143.299 25.6051 144.13C26.4368 144.962 27.5648 145.429 28.741 145.429H176.198C177.374 145.429 178.503 144.962 179.334 144.13C180.166 143.299 180.633 142.171 180.633 140.994V138.989C180.633 137.813 180.166 136.685 179.334 135.853C178.503 135.021 177.374 134.554 176.198 134.554Z" fill="#323C55"/>
<path d="M198.874 140.879H6.06543V141.467H198.874V140.879Z" fill="#323C55"/>
<path d="M159.3 102.81H116.627V78.5156H159.3V102.81ZM117.049 102.387H158.877V78.9381H117.049V102.387Z" fill="#323C55"/>
<path d="M81.1361 107.668H43.1106V84.0078H81.1361V107.668ZM43.5331 107.246H80.7136V84.4303H43.5331V107.246Z" fill="#323C55"/>
<path d="M60.8759 98.5841L60.8395 98.1117C60.7305 97.1307 61.0575 96.0588 61.9659 94.9689C62.7834 94.0059 63.2376 93.2974 63.2376 92.4799C63.2376 91.5534 62.6562 90.9357 61.5117 90.9175C60.8571 90.9149 60.2171 91.1113 59.6767 91.4807L59.2407 90.3362C59.8403 89.9001 60.8759 89.6094 61.8387 89.6094C63.928 89.6094 64.8726 90.8994 64.8726 92.2799C64.8726 93.5155 64.1823 94.4057 63.3102 95.4411C62.5109 96.3858 62.2202 97.1852 62.2747 98.1117L62.2928 98.5841L60.8759 98.5841ZM60.4762 101.128C60.4664 100.979 60.4875 100.831 60.5381 100.691C60.5887 100.551 60.6677 100.424 60.7701 100.316C60.8725 100.209 60.9962 100.124 61.1332 100.066C61.2702 100.009 61.4176 99.9805 61.5662 99.983C62.2021 99.983 62.6381 100.455 62.6381 101.128C62.6441 101.273 62.6206 101.419 62.569 101.555C62.5174 101.691 62.4387 101.816 62.3377 101.921C62.2368 102.026 62.1156 102.11 61.9814 102.167C61.8473 102.225 61.703 102.254 61.5571 102.254C61.4113 102.254 61.267 102.225 61.1328 102.167C60.9987 102.11 60.8775 102.026 60.7765 101.921C60.6756 101.816 60.5969 101.691 60.5453 101.555C60.4937 101.419 60.4702 101.273 60.4762 101.128Z" fill="#DDE2E5"/>
<path d="M136.715 93.3029L136.679 92.8304C136.57 91.8495 136.897 90.7775 137.805 89.6876C138.623 88.7246 139.077 88.0162 139.077 87.1986C139.077 86.2721 138.496 85.6544 137.351 85.6363C136.697 85.6336 136.057 85.83 135.516 86.1995L135.08 85.0549C135.68 84.6188 136.715 84.3281 137.678 84.3281C139.768 84.3281 140.712 85.6181 140.712 86.9987C140.712 88.2342 140.022 89.1244 139.15 90.1599C138.351 91.1045 138.06 91.9039 138.114 92.8304L138.132 93.3029L136.715 93.3029ZM136.316 95.8464C136.306 95.6981 136.327 95.5495 136.378 95.4098C136.428 95.2702 136.507 95.1425 136.61 95.035C136.712 94.9274 136.836 94.8423 136.973 94.7849C137.11 94.7276 137.257 94.6993 137.406 94.7018C138.042 94.7018 138.478 95.174 138.478 95.8464C138.484 95.9921 138.46 96.1375 138.409 96.2739C138.357 96.4102 138.278 96.5348 138.177 96.64C138.076 96.7452 137.955 96.8289 137.821 96.8861C137.687 96.9433 137.543 96.9728 137.397 96.9728C137.251 96.9728 137.107 96.9433 136.972 96.8861C136.838 96.8289 136.717 96.7452 136.616 96.64C136.515 96.5348 136.437 96.4102 136.385 96.2739C136.333 96.1375 136.31 95.9921 136.316 95.8464Z" fill="#DDE2E5"/>
<path d="M101.97 126.779C112.038 126.779 120.2 118.618 120.2 108.55C120.2 98.4819 112.038 90.3203 101.97 90.3203C91.9023 90.3203 83.7407 98.4819 83.7407 108.55C83.7407 118.618 91.9023 126.779 101.97 126.779Z" fill="#202739"/>
<path d="M94.9294 133.514L89.4797 132.527L91.2473 121.148L96.6968 122.135L94.9294 133.514Z" fill="#202739"/>
<path d="M107.596 124.108L102.146 123.121L100.379 132.885L105.828 133.871L107.596 124.108Z" fill="#202739"/>
<path d="M109.471 134.403C109.66 133.467 107.788 132.298 105.29 131.794C102.791 131.289 100.612 131.64 100.423 132.577C100.234 133.514 102.106 134.682 104.605 135.187C107.103 135.691 109.282 135.34 109.471 134.403Z" fill="#202739"/>
<path d="M98.1204 134.11C98.2459 133.162 96.2993 132.123 93.7726 131.788C91.2458 131.453 89.0957 131.95 88.9702 132.898C88.8447 133.845 90.7913 134.885 93.318 135.219C95.8448 135.554 97.9949 135.057 98.1204 134.11Z" fill="#202739"/>
<path d="M103.246 110.32C106.687 110.32 109.477 107.531 109.477 104.09C109.477 100.649 106.687 97.8594 103.246 97.8594C99.8055 97.8594 97.0161 100.649 97.0161 104.09C97.0161 107.531 99.8055 110.32 103.246 110.32Z" fill="white"/>
<path d="M105.807 103.935C106.954 103.935 107.884 103.005 107.884 101.858C107.884 100.711 106.954 99.7812 105.807 99.7812C104.66 99.7812 103.73 100.711 103.73 101.858C103.73 103.005 104.66 103.935 105.807 103.935Z" fill="#323C55"/>
<path d="M87.5896 88.7177C87.3155 81.9689 93.132 76.2526 100.581 75.95C108.03 75.6474 114.291 80.8731 114.565 87.6219C114.84 94.3708 109.661 95.9042 102.212 96.2067C94.7631 96.5093 87.8638 95.4665 87.5896 88.7177Z" fill="white"/>
<path d="M119.442 108.018C124.349 106.894 128.04 104.733 127.687 103.193C127.334 101.652 123.07 101.315 118.163 102.44C113.257 103.565 109.565 105.725 109.918 107.266C110.271 108.806 114.535 109.143 119.442 108.018Z" fill="#202739"/>
<path d="M83.6581 113.967C88.5647 112.843 92.2562 110.682 91.9031 109.142C91.55 107.602 87.2861 107.265 82.3795 108.389C77.4728 109.514 73.7813 111.674 74.1344 113.215C74.4875 114.755 78.7514 115.092 83.6581 113.967Z" fill="#202739"/>
<path d="M96.9634 115.736C96.8662 116.273 96.8757 116.823 96.9914 117.356C97.107 117.889 97.3265 118.395 97.6373 118.843C97.9481 119.291 98.3442 119.674 98.8029 119.969C99.2616 120.264 99.7739 120.466 100.311 120.563C100.847 120.66 101.398 120.651 101.931 120.535C102.464 120.419 102.969 120.2 103.417 119.889C103.866 119.578 104.248 119.182 104.543 118.724C104.839 118.265 105.04 117.753 105.138 117.216C105.546 114.959 103.801 114.16 101.544 113.751C99.2865 113.342 97.372 113.479 96.9634 115.736Z" fill="white"/>
<path d="M62.62 56.2188H32.646V84.7309H62.62V56.2188Z" fill="#DDE2E5"/>
<path d="M59.2137 59.625H36.052V77.3369H59.2137V59.625Z" fill="white"/>
<path d="M48.6275 79.4258H36.0291V80.0889H48.6275V79.4258Z" fill="white"/>
<path d="M48.6275 81.4141H36.0291V82.0771H48.6275V81.4141Z" fill="white"/>
<path d="M40.1733 71.1366C41.6381 71.1366 42.8256 69.9492 42.8256 68.4843C42.8256 67.0195 41.6381 65.832 40.1733 65.832C38.7085 65.832 37.521 67.0195 37.521 68.4843C37.521 69.9492 38.7085 71.1366 40.1733 71.1366Z" fill="#323C55"/>
<path d="M47.6328 71.1366C49.0976 71.1366 50.2851 69.9492 50.2851 68.4843C50.2851 67.0195 49.0976 65.832 47.6328 65.832C46.1679 65.832 44.9805 67.0195 44.9805 68.4843C44.9805 69.9492 46.1679 71.1366 47.6328 71.1366Z" fill="#10CFC9"/>
<path d="M55.0925 71.1366C56.5573 71.1366 57.7448 69.9492 57.7448 68.4843C57.7448 67.0195 56.5573 65.832 55.0925 65.832C53.6277 65.832 52.4402 67.0195 52.4402 68.4843C52.4402 69.9492 53.6277 71.1366 55.0925 71.1366Z" fill="#DDE2E5"/>
<path d="M47.6328 59.2031C48.3652 59.2031 48.9589 58.6093 48.9589 57.8769C48.9589 57.1445 48.3652 56.5508 47.6328 56.5508C46.9004 56.5508 46.3066 57.1445 46.3066 57.8769C46.3066 58.6093 46.9004 59.2031 47.6328 59.2031Z" fill="#323C55"/>
<path d="M76.8768 111.426H46.9028V139.938H76.8768V111.426Z" fill="#DDE2E5"/>
<path d="M73.4706 114.832H50.3088V132.544H73.4706V114.832Z" fill="white"/>
<path d="M63.5254 117.742H55.4055V125.862H63.5254V117.742Z" fill="#10CFC9"/>
<path d="M58.5139 119.773V129.633H68.3738V119.773H58.5139ZM67.9462 129.206H58.9416V120.201H67.9462V129.206Z" fill="#323C55"/>
<path d="M62.8843 134.301H50.2859V134.964H62.8843V134.301Z" fill="white"/>
<path d="M61.8896 114.41C62.622 114.41 63.2158 113.816 63.2158 113.084C63.2158 112.352 62.622 111.758 61.8896 111.758C61.1572 111.758 60.5635 112.352 60.5635 113.084C60.5635 113.816 61.1572 114.41 61.8896 114.41Z" fill="#323C55"/>
<path d="M154.917 102.891H124.943V131.403H154.917V102.891Z" fill="#DDE2E5"/>
<path d="M151.51 106.297H128.349V124.009H151.51V106.297Z" fill="white"/>
<path d="M142.421 120.16H137.438V121.637H142.421V120.16Z" fill="#323C55"/>
<path d="M148.445 108.664H131.414V109.297H148.445V108.664Z" fill="#323C55"/>
<path d="M148.445 110.668H131.414V111.301H148.445V110.668Z" fill="#323C55"/>
<path d="M148.445 112.672H131.414V113.305H148.445V112.672Z" fill="#323C55"/>
<path d="M148.445 114.676H131.414V115.309H148.445V114.676Z" fill="#323C55"/>
<path d="M148.445 116.68H131.414V117.313H148.445V116.68Z" fill="#323C55"/>
<path d="M140.924 125.766H128.326V126.429H140.924V125.766Z" fill="white"/>
<path d="M145.897 127.422H128.326V128.085H145.897V127.422Z" fill="white"/>
<path d="M139.93 105.875C140.662 105.875 141.256 105.281 141.256 104.549C141.256 103.816 140.662 103.223 139.93 103.223C139.197 103.223 138.604 103.816 138.604 104.549C138.604 105.281 139.197 105.875 139.93 105.875Z" fill="#323C55"/>
</svg>
