<svg width="149" height="133" viewBox="0 0 149 133" fill="none" xmlns="http://www.w3.org/2000/svg">
<path d="M111.737 41.5561C88.224 23.2235 55.5117 22.4744 31.6465 40.3365C19.0307 49.7791 9.25016 64.2254 11.0297 86.2214C11.6586 94.0017 13.409 100.384 15.9628 105.61C26.3064 126.791 68.79 125.976 71.1495 125.973C72.678 125.971 74.2066 126.006 75.7352 126.076C81.0894 126.325 86.4153 127.006 91.6622 128.113C99.1429 129.69 108.666 130.483 117.175 127.496C118.621 126.99 120.026 126.373 121.377 125.648C126.053 123.134 131.288 120.732 134.348 114.77C136.648 110.296 138.323 104.686 139.129 97.6976C142.064 72.2487 127.4 53.7675 111.737 41.5561Z" fill="#EFF2FA"/>
<path d="M75.8267 132.833C113.194 132.833 143.487 129.863 143.487 126.2C143.487 122.536 113.194 119.566 75.8267 119.566C38.4592 119.566 8.16675 122.536 8.16675 126.2C8.16675 129.863 38.4592 132.833 75.8267 132.833Z" fill="#323C55"/>
<path opacity="0.1" d="M72.1784 129.516C107.165 129.516 135.527 128.031 135.527 126.199C135.527 124.368 107.165 122.883 72.1784 122.883C37.1921 122.883 8.83008 124.368 8.83008 126.199C8.83008 128.031 37.1921 129.516 72.1784 129.516Z" fill="black"/>
<path d="M107.915 40.6289V47.7605H98.3801V125.536H118.28V50.7209V47.7605V40.6289H107.915Z" fill="#525F7E"/>
<path d="M56.1304 88.2854V75.7852H43.9215V88.2854H39.3433V126.199H60.5699V88.2854H56.1304Z" fill="#525F7E"/>
<path d="M58.5799 108.289H41.9966V126.199H58.5799V108.289Z" fill="#323C55"/>
<path opacity="0.1" d="M45.3132 108.289H41.9966V126.199H45.3132V108.289Z" fill="black"/>
<path d="M91.4686 0.167969V6.06982H67.6171V0.167969H60.5701V126.201H98.3801V0.167969H91.4686Z" fill="#323C55"/>
<path opacity="0.1" d="M96.3899 35.9883H91.0833V40.6316H96.3899V35.9883Z" fill="black"/>
<path opacity="0.1" d="M96.3899 27.3633H91.7466V32.0066H96.3899V27.3633Z" fill="black"/>
<path opacity="0.1" d="M96.3899 47.2617H91.7466V51.9051H96.3899V47.2617Z" fill="black"/>
<path opacity="0.1" d="M65.8767 0.167969H60.5701V126.201H65.8767V0.167969Z" fill="black"/>
<path d="M33.4458 61.9357V58.5391H30.1125V61.9357H24.0867V126.199H39.3433V61.9357H33.4458Z" fill="#323C55"/>
<path opacity="0.1" d="M32.0466 58.5391H29.3933V61.8557H32.0466V58.5391Z" fill="black"/>
<path opacity="0.1" d="M25.4133 61.8555H24.0867V126.199H25.4133V61.8555Z" fill="black"/>
<path opacity="0.1" d="M96.3899 57.875H91.7466V126.198H96.3899V57.875Z" fill="black"/>
<path opacity="0.1" d="M39.3433 61.8555H35.3633V74.4588H39.3433V61.8555Z" fill="black"/>
<path d="M74.5 47.9258H66.54V51.9058H74.5V47.9258Z" fill="#F76C76"/>
<path d="M90.42 14.7617H81.7966V18.0784H90.42V14.7617Z" fill="#F76C76"/>
<path d="M90.42 81.0938H81.7966V85.0738H90.42V81.0938Z" fill="#F76C76"/>
<path d="M74.5 105.637H66.54V108.29H74.5V105.637Z" fill="#F76C76"/>
<path d="M36.0267 77.1133H28.0667V80.4299H36.0267V77.1133Z" fill="#F76C76"/>
<path d="M53.9366 110.281H46.6399V112.935H53.9366V110.281Z" fill="#F76C76"/>
<path opacity="0.1" d="M56.5899 92.3711H43.3232V97.0144H56.5899V92.3711Z" fill="black"/>
<path opacity="0.1" d="M113.637 54.5586H100.37V58.5386H113.637V54.5586Z" fill="black"/>
<path opacity="0.1" d="M113.637 65.1719H100.37V70.4785H113.637V65.1719Z" fill="black"/>
<path opacity="0.1" d="M113.637 77.1133H100.37V82.4199H113.637V77.1133Z" fill="black"/>
<path opacity="0.1" d="M113.637 88.3906H100.37V93.6973H113.637V88.3906Z" fill="black"/>
<path opacity="0.1" d="M113.637 100.328H100.37V105.635H113.637V100.328Z" fill="black"/>
<path opacity="0.1" d="M113.637 110.941H100.37V116.911H113.637V110.941Z" fill="black"/>
<path d="M122.232 78.0511V63.1836H112.477V78.0511H108.993V126.2H125.577V78.0511H122.232Z" fill="#323C55"/>
<path opacity="0.1" d="M116.29 63.1836H112.973V77.7769H116.29V63.1836Z" fill="black"/>
<path opacity="0.1" d="M112.973 77.7773H108.993V126.201H112.973V77.7773Z" fill="black"/>
<path opacity="0.1" d="M125.577 102.32H116.953V107.627H125.577V102.32Z" fill="black"/>
<path d="M124.25 95.0234H118.28V98.3401H124.25V95.0234Z" fill="#F76C76"/>
<path d="M148.793 98.366C148.793 110.639 141.666 114.924 132.873 114.924C124.081 114.924 116.953 110.639 116.953 98.366C116.953 86.0933 132.873 70.4805 132.873 70.4805C132.873 70.4805 148.793 86.0933 148.793 98.366Z" fill="#10CFC9"/>
<path d="M131.937 112.603L132.099 102.439L138.843 89.8643L132.124 100.844L132.197 96.274L136.845 87.1766L132.216 95.0648L132.347 86.8451L137.325 79.6023L132.368 85.5526L132.45 70.4805L131.935 90.4331L131.978 89.61L126.917 81.7158L131.896 91.1901L131.425 100.37L131.411 100.126L125.577 91.8189L131.393 100.987L131.334 102.135L131.323 102.152L131.328 102.247L130.132 125.537H131.731L131.922 113.507L137.725 104.362L131.937 112.603Z" fill="#323C55"/>
<path d="M31.3835 98.366C31.3835 110.639 24.4043 114.924 15.7951 114.924C7.18592 114.924 0.206787 110.639 0.206787 98.366C0.206787 86.0933 15.7951 70.4805 15.7951 70.4805C15.7951 70.4805 31.3835 86.0933 31.3835 98.366Z" fill="#10CFC9"/>
<path d="M15.508 112.603L15.6781 102.439L22.7601 89.8644L15.7049 100.844L15.7814 96.2741L20.6621 87.1767L15.8017 95.0647V95.0649L15.9392 86.8452L21.1657 79.6023L15.9609 85.5526L16.0469 70.4805L15.5065 90.4331L15.5509 89.61L10.2371 81.7159L15.4657 91.19L14.9707 100.37L14.9559 100.126L8.83008 91.819L14.9373 100.987L14.8755 102.135L14.8644 102.152L14.8693 102.247L13.6132 125.537H15.2915L15.4929 113.507L21.5852 104.362L15.508 112.603Z" fill="#323C55"/>
</svg>
