<svg width="358" height="248" viewBox="0 0 358 248" fill="none" xmlns="http://www.w3.org/2000/svg">
<g clip-path="url(#clip0_1005_19216)">
<path d="M67.9178 53.2401C79.21 53.2401 88.3641 44.1052 88.3641 32.8368C88.3641 21.5684 79.21 12.4336 67.9178 12.4336C56.6256 12.4336 47.4714 21.5684 47.4714 32.8368C47.4714 44.1052 56.6256 53.2401 67.9178 53.2401Z" fill="#F24D59"/>
<path d="M167.397 109.387C167.397 157.53 138.716 174.339 103.337 174.339C67.9582 174.339 39.2778 157.53 39.2778 109.387C39.2778 61.2449 103.337 0 103.337 0C103.337 0 167.397 61.2449 167.397 109.387Z" fill="#FAFBFF"/>
<path d="M101.004 166.975L101.66 126.684L128.963 76.8386L101.763 120.364L102.058 102.247L120.875 66.1846L102.135 97.4532L102.666 64.8699L122.816 36.1593L102.749 59.7461L103.081 0L100.998 79.0931L101.169 75.8302L80.6821 44.5377L100.841 82.0937L98.9318 118.483L98.8749 117.518L75.2568 84.587L98.8033 120.93L98.5647 125.481L98.5219 125.549L98.5414 125.923L93.6985 218.247H100.169L100.945 170.56L124.434 134.306L101.004 166.975Z" fill="#323C55"/>
<path d="M358 129.105C358 168.512 334.524 182.272 305.564 182.272C276.605 182.272 253.128 168.512 253.128 129.105C253.128 89.6982 305.564 39.5664 305.564 39.5664C305.564 39.5664 358 89.6982 358 129.105Z" fill="#FAFBFF"/>
<path d="M303.654 176.243L304.191 143.264L326.54 102.463L304.275 138.09L304.517 123.261L319.92 93.7414L304.581 119.336L305.015 92.6655L321.509 69.1645L305.083 88.4717L305.354 39.5664L303.649 104.308L303.79 101.637L287.02 76.0225L303.521 106.764L301.958 136.551L301.911 135.76L282.579 108.805L301.853 138.553L301.657 142.278L301.623 142.335L301.639 142.64L297.674 218.212H302.971L303.606 179.178L322.833 149.502L303.654 176.243Z" fill="#323C55"/>
<path d="M177.178 225.875C275.03 225.875 354.356 221.873 354.356 216.937C354.356 212.001 275.03 208 177.178 208C79.3252 208 0 212.001 0 216.937C0 221.873 79.3252 225.875 177.178 225.875Z" fill="#323C55"/>
<path d="M285.113 233.233C301.873 233.233 315.459 232.548 315.459 231.703C315.459 230.857 301.873 230.172 285.113 230.172C268.353 230.172 254.767 230.857 254.767 231.703C254.767 232.548 268.353 233.233 285.113 233.233Z" fill="#323C55"/>
<path d="M175.302 247.999C192.062 247.999 205.648 247.314 205.648 246.468C205.648 245.623 192.062 244.938 175.302 244.938C158.542 244.938 144.955 245.623 144.955 246.468C144.955 247.314 158.542 247.999 175.302 247.999Z" fill="#323C55"/>
<path d="M91.9906 237.584C130.281 237.584 161.321 236.019 161.321 234.087C161.321 232.156 130.281 230.59 91.9906 230.59C53.7004 230.59 22.6602 232.156 22.6602 234.087C22.6602 236.019 53.7004 237.584 91.9906 237.584Z" fill="#323C55"/>
<path d="M31.0158 205.714C44.9546 205.714 56.2542 194.438 56.2542 180.529C56.2542 166.62 44.9546 155.344 31.0158 155.344C17.077 155.344 5.77734 166.62 5.77734 180.529C5.77734 194.438 17.077 205.714 31.0158 205.714Z" fill="#202739"/>
<path d="M26.9488 200.246L19.282 200.156L19.1201 213.864L26.787 213.954L26.9488 200.246Z" fill="#202739"/>
<path d="M42.2826 200.426L34.6157 200.336L34.4539 214.043L42.1207 214.134L42.2826 200.426Z" fill="#2F2E41"/>
<path d="M31.8964 214.173C31.912 212.853 29.0642 211.749 25.5356 211.708C22.007 211.666 19.1339 212.703 19.1183 214.023C19.1027 215.344 21.9506 216.448 25.4791 216.489C29.0077 216.531 31.8808 215.494 31.8964 214.173Z" fill="#202739"/>
<path d="M47.2338 214.033C47.2494 212.712 44.4015 211.608 40.873 211.567C37.3444 211.525 34.4713 212.562 34.4557 213.883C34.4401 215.203 37.288 216.307 40.8165 216.349C44.3451 216.39 47.2182 215.353 47.2338 214.033Z" fill="#2F2E41"/>
<path d="M31.7298 182.766C36.4937 182.766 40.3556 178.912 40.3556 174.158C40.3556 169.405 36.4937 165.551 31.7298 165.551C26.9659 165.551 23.104 169.405 23.104 174.158C23.104 178.912 26.9659 182.766 31.7298 182.766Z" fill="white"/>
<path d="M31.73 177.027C33.318 177.027 34.6053 175.743 34.6053 174.158C34.6053 172.574 33.318 171.289 31.73 171.289C30.142 171.289 28.8547 172.574 28.8547 174.158C28.8547 175.743 30.142 177.027 31.73 177.027Z" fill="#525F7E"/>
<path d="M6.81194 156.82C4.88173 147.69 11.5042 138.564 21.6037 136.438C31.7032 134.312 41.4553 139.991 43.3855 149.121C45.3157 158.252 38.6003 161.532 28.5008 163.658C18.4013 165.784 8.74216 165.951 6.81194 156.82Z" fill="#10CFC9"/>
<path d="M69.5151 194.578C69.5151 212.137 59.0556 218.267 46.152 218.267C45.853 218.267 45.5546 218.264 45.2566 218.257C44.6588 218.245 44.0666 218.216 43.4816 218.176C31.8363 217.354 22.7888 210.908 22.7888 194.578C22.7888 177.679 44.4296 156.355 46.0552 154.777L46.058 154.775C46.1206 154.713 46.152 154.684 46.152 154.684C46.152 154.684 69.5151 177.02 69.5151 194.578Z" fill="#10CFC9"/>
<path d="M45.3007 215.581L53.8457 203.666L45.2793 216.889L45.2566 218.257C44.6587 218.245 44.0665 218.216 43.4815 218.176L44.4025 200.61L44.3954 200.473L44.411 200.448L44.4979 198.789L35.9102 185.533L44.5249 197.544L44.5448 197.897L45.2409 184.624L37.8888 170.926L45.3306 182.294L46.0551 154.777L46.058 154.684V154.775L45.937 176.473L53.2564 167.871L45.9071 178.343L45.7135 190.226L52.5475 178.821L45.685 191.975L45.5769 198.581L55.4983 182.708L45.5398 200.887L45.3007 215.581Z" fill="#3F3D56"/>
<path d="M227.62 205.441C241.559 205.441 252.859 194.165 252.859 180.256C252.859 166.346 241.559 155.07 227.62 155.07C213.681 155.07 202.382 166.346 202.382 180.256C202.382 194.165 213.681 205.441 227.62 205.441Z" fill="#202739"/>
<path d="M229.775 200.272L222.446 202.52L226.481 215.623L233.81 213.375L229.775 200.272Z" fill="#2F2E41"/>
<path d="M244.432 195.78L237.103 198.027L241.139 211.131L248.468 208.883L244.432 195.78Z" fill="#2F2E41"/>
<path d="M233.339 216.186C236.712 215.152 239.132 213.29 238.743 212.028C238.354 210.765 235.305 210.581 231.932 211.615C228.558 212.65 226.139 214.512 226.528 215.774C226.917 217.036 229.966 217.221 233.339 216.186Z" fill="#2F2E41"/>
<path d="M247.904 211.389C251.277 210.355 253.696 208.493 253.307 207.231C252.919 205.969 249.869 205.784 246.496 206.818C243.123 207.853 240.704 209.715 241.092 210.977C241.481 212.239 244.531 212.424 247.904 211.389Z" fill="#2F2E41"/>
<path d="M226.354 182.578C231.118 182.578 234.98 178.725 234.98 173.971C234.98 169.217 231.118 165.363 226.354 165.363C221.59 165.363 217.728 169.217 217.728 173.971C217.728 178.725 221.59 182.578 226.354 182.578Z" fill="white"/>
<path d="M226.354 176.84C227.942 176.84 229.23 175.555 229.23 173.971C229.23 172.386 227.942 171.102 226.354 171.102C224.766 171.102 223.479 172.386 223.479 173.971C223.479 175.555 224.766 176.84 226.354 176.84Z" fill="#525F7E"/>
<path d="M197.323 165.041C192.694 156.933 196.212 146.227 205.181 141.129C214.149 136.03 225.172 138.47 229.801 146.578C234.43 154.686 229.037 159.854 220.069 164.952C211.1 170.051 201.953 173.15 197.323 165.041Z" fill="#10CFC9"/>
<path d="M182.609 191.364C182.609 207.481 173.007 213.109 161.163 213.109C160.888 213.109 160.614 213.106 160.341 213.1C159.792 213.088 159.248 213.062 158.711 213.026C148.021 212.271 139.716 206.354 139.716 191.364C139.716 175.851 159.582 156.277 161.074 154.828L161.076 154.826C161.134 154.77 161.163 154.742 161.163 154.742C161.163 154.742 182.609 175.246 182.609 191.364Z" fill="#10CFC9"/>
<path d="M160.381 210.643L168.225 199.706L160.361 211.844L160.341 213.1C159.792 213.088 159.248 213.062 158.711 213.026L159.557 196.9L159.55 196.775L159.564 196.752L159.644 195.229L151.761 183.061L159.669 194.086L159.687 194.41L160.326 182.226L153.577 169.652L160.408 180.088L161.074 154.828L161.076 154.742V154.826L160.965 174.744L167.684 166.848L160.938 176.46L160.76 187.369L167.033 176.9L160.734 188.974L160.635 195.038L169.742 180.467L160.601 197.154L160.381 210.643Z" fill="#3F3D56"/>
<path d="M266.95 198.082C266.95 215.641 256.49 221.771 243.587 221.771C243.288 221.771 242.989 221.768 242.691 221.761C242.094 221.748 241.501 221.72 240.916 221.68C229.271 220.858 220.224 214.412 220.224 198.082C220.224 181.183 241.864 159.859 243.49 158.281L243.493 158.278C243.555 158.217 243.587 158.188 243.587 158.188C243.587 158.188 266.95 180.524 266.95 198.082Z" fill="#10CFC9"/>
<path d="M242.736 219.085L251.28 207.17L242.714 220.393L242.691 221.761C242.094 221.748 241.501 221.72 240.916 221.68L241.837 204.114L241.83 203.977L241.846 203.952L241.933 202.293L233.345 189.037L241.96 201.048L241.98 201.4L242.676 188.128L235.324 174.43L242.765 185.798L243.49 158.281L243.493 158.188V158.278L243.372 179.977L250.691 171.375L243.342 181.847L243.148 193.73L249.982 182.325L243.12 195.479L243.012 202.085L252.933 186.212L242.975 204.391L242.736 219.085Z" fill="#3F3D56"/>
<path d="M229.223 195.33C230.161 193.357 225.816 189.342 219.519 186.362C213.222 183.382 207.357 182.565 206.42 184.538C205.482 186.51 209.827 190.525 216.124 193.506C222.421 196.486 228.286 197.303 229.223 195.33Z" fill="#202739"/>
<path d="M34.9753 193.025C35.7893 190.998 31.2049 187.258 24.7358 184.67C18.2667 182.083 12.3626 181.628 11.5486 183.655C10.7346 185.681 15.319 189.422 21.7881 192.009C28.2572 194.597 34.1613 195.051 34.9753 193.025Z" fill="#202739"/>
</g>
<defs>
<clipPath id="clip0_1005_19216">
<rect width="358" height="248" fill="white"/>
</clipPath>
</defs>
</svg>
