<svg width="234" height="150" viewBox="0 0 234 150" fill="none" xmlns="http://www.w3.org/2000/svg">
<g filter="url(#filter0_d_9_1026)">
<path d="M230 122.789H24.4355V0H230V122.789Z" fill="#323C55"/>
</g>
<g filter="url(#filter1_d_9_1026)">
<path d="M216.561 18.6322H10.9961V141.421H216.561V18.6322Z" fill="#10CFC9"/>
</g>
<path opacity="0.1" d="M139.43 18.6321L10.9961 106.802V85.6833L108.668 18.6321H139.43Z" fill="black"/>
<path opacity="0.1" d="M200.983 18.6321V20.7671L25.2298 141.421H10.9961V130.077L173.334 18.6321H200.983Z" fill="black"/>
<path d="M29.1324 119.734H28.5215V141.421H29.1324V119.734Z" fill="#3F3D56"/>
<path d="M28.8646 127.371C33.082 127.371 36.5008 123.952 36.5008 119.735C36.5008 115.517 33.082 112.098 28.8646 112.098C24.6473 112.098 21.2285 115.517 21.2285 119.735C21.2285 123.952 24.6473 127.371 28.8646 127.371Z" fill="#3F3D56"/>
<path d="M71.5894 101.102H70.9785V141.421H71.5894V101.102Z" fill="#3F3D56"/>
<path d="M71.3217 109.655C75.539 109.655 78.9578 106.236 78.9578 102.019C78.9578 97.8014 75.539 94.3826 71.3217 94.3826C67.1044 94.3826 63.6855 97.8014 63.6855 102.019C63.6855 106.236 67.1044 109.655 71.3217 109.655Z" fill="#323C55"/>
<path d="M114.046 67.198H113.435V141.421H114.046V67.198Z" fill="#3F3D56"/>
<path d="M113.778 74.8341C117.996 74.8341 121.414 71.4153 121.414 67.198C121.414 62.9807 117.996 59.5619 113.778 59.5619C109.561 59.5619 106.142 62.9807 106.142 67.198C106.142 71.4153 109.561 74.8341 113.778 74.8341Z" fill="#323C55"/>
<path d="M156.502 89.4955H155.892V141.421H156.502V89.4955Z" fill="#3F3D56"/>
<path d="M156.235 97.1316C160.453 97.1316 163.871 93.7128 163.871 89.4955C163.871 85.2782 160.453 81.8594 156.235 81.8594C152.018 81.8594 148.599 85.2782 148.599 89.4955C148.599 93.7128 152.018 97.1316 156.235 97.1316Z" fill="#323C55"/>
<path d="M198.96 45.2059H198.349V141.421H198.96V45.2059Z" fill="#3F3D56"/>
<path d="M198.692 52.8421C202.909 52.8421 206.328 49.4233 206.328 45.2059C206.328 40.9886 202.909 37.5698 198.692 37.5698C194.474 37.5698 191.056 40.9886 191.056 45.2059C191.056 49.4233 194.474 52.8421 198.692 52.8421Z" fill="#323C55"/>
<path d="M12.8288 119.429H10.9961V120.04H12.8288V119.429Z" fill="#3F3D56"/>
<path d="M24.3133 120.04H21.442V119.429H24.3133V120.04ZM18.5709 120.04H15.6997V119.429H18.5709V120.04Z" fill="#3F3D56"/>
<path d="M29.0172 119.429H27.1846V120.04H29.0172V119.429Z" fill="#323C55"/>
<path d="M12.8288 101.713H10.9961V102.324H12.8288V101.713Z" fill="#3F3D56"/>
<path d="M64.7135 102.324H61.0075V101.713H64.7135V102.324ZM57.3014 102.324H53.5954V101.713H57.3014V102.324ZM49.8893 102.324H46.1833V101.713H49.8893V102.324ZM42.4771 102.324H38.771V101.713H42.4771V102.324ZM35.0649 102.324H31.3589V101.713H35.0649V102.324ZM27.6528 102.324H23.9468V101.713H27.6528V102.324ZM20.2407 102.324H16.5347V101.713H20.2407V102.324Z" fill="#3F3D56"/>
<path d="M70.2521 101.713H68.4194V102.324H70.2521V101.713Z" fill="#3F3D56"/>
<path d="M12.8288 89.1899H10.9961V89.8008H12.8288V89.1899Z" fill="#3F3D56"/>
<path d="M145.672 89.8008H141.982V89.1899H145.672V89.8008ZM138.292 89.8008H134.602V89.1899H138.292L138.292 89.8008ZM130.912 89.8008H127.222V89.1899H130.912L130.912 89.8008ZM123.532 89.8008H119.841V89.1899H123.531L123.532 89.8008ZM116.151 89.8008H112.461V89.1899H116.151L116.151 89.8008ZM108.771 89.8008H105.081V89.1899H108.771L108.771 89.8008ZM101.391 89.8008H97.7008V89.1899H101.391L101.391 89.8008ZM94.0107 89.8008H90.3206V89.1899H94.0107L94.0107 89.8008ZM86.6305 89.8008H82.9404V89.1899H86.6305L86.6305 89.8008ZM79.2504 89.8008H75.5602V89.1899H79.2503L79.2504 89.8008ZM71.8702 89.8008H68.18V89.1899H71.8701L71.8702 89.8008ZM64.49 89.8008H60.7999V89.1899H64.49L64.49 89.8008ZM57.1098 89.8008H53.4195V89.1899H57.1098L57.1098 89.8008ZM49.7294 89.8008H46.0393V89.1899H49.7294L49.7294 89.8008ZM42.3492 89.8008H38.6591V89.1899H42.3492L42.3492 89.8008ZM34.969 89.8008H31.2789V89.1899H34.969L34.969 89.8008ZM27.5889 89.8008H23.8987V89.1899H27.5888L27.5889 89.8008ZM20.2087 89.8008H16.5186V89.1899H20.2087L20.2087 89.8008Z" fill="#3F3D56"/>
<path d="M151.195 89.1899H149.362V89.8008H151.195V89.1899Z" fill="#3F3D56"/>
<path d="M12.8288 66.8925H10.9961V67.5033H12.8288V66.8925Z" fill="#3F3D56"/>
<path d="M103.436 67.5033H99.6606V66.8925H103.436V67.5033ZM95.8853 67.5033H92.1099V66.8925H95.8853V67.5033ZM88.3346 67.5033H84.5594V66.8925H88.3346V67.5033ZM80.7841 67.5033H77.0087V66.8925H80.7841L80.7841 67.5033ZM73.2335 67.5033H69.4582V66.8925H73.2335V67.5033ZM65.6829 67.5033H61.9075V66.8925H65.6829L65.6829 67.5033ZM58.1323 67.5033H54.357V66.8925H58.1323L58.1323 67.5033ZM50.5816 67.5033H46.8064V66.8925H50.5816V67.5033ZM43.0311 67.5033H39.2558V66.8925H43.0311L43.0311 67.5033ZM35.4804 67.5033H31.7052V66.8925H35.4804V67.5033ZM27.9299 67.5033H24.1547V66.8925H27.9299V67.5033ZM20.3793 67.5033H16.604V66.8925H20.3793V67.5033Z" fill="#3F3D56"/>
<path d="M109.044 66.8925H107.211V67.5033H109.044V66.8925Z" fill="#3F3D56"/>
<path d="M12.8278 45.5052L10.9951 45.5115L10.9972 46.1224L12.8299 46.1161L12.8278 45.5052Z" fill="#3F3D56"/>
<path d="M16.4415 46.1045L16.4395 45.4936L20.051 45.4819L20.053 46.0927L16.4415 46.1045ZM23.6644 46.0811L23.6623 45.4702L27.2738 45.4584L27.2759 46.0693L23.6644 46.0811ZM30.8873 46.0575L30.8852 45.4467L34.4967 45.4349L34.4988 46.0458L30.8873 46.0575ZM38.1103 46.0341L38.1082 45.4232L41.7195 45.4115L41.7216 46.0223L38.1103 46.0341ZM45.3331 46.0106L45.331 45.3997L48.9424 45.3879L48.9445 45.9988L45.3331 46.0106ZM52.556 45.9871L52.5539 45.3763L56.1654 45.3645L56.1675 45.9754L52.556 45.9871ZM59.7788 45.9636L59.7767 45.3527L63.3882 45.3409L63.3903 45.9518L59.7788 45.9636ZM67.0017 45.9402L66.9996 45.3293L70.6111 45.3175L70.6132 45.9284L67.0017 45.9402ZM74.2245 45.9166L74.2224 45.3057L77.8339 45.2939L77.836 45.9048L74.2245 45.9166ZM81.4475 45.8932L81.4454 45.2823L85.0568 45.2705L85.0589 45.8814L81.4475 45.8932ZM88.6704 45.8696L88.6683 45.2587L92.2796 45.247L92.2817 45.8578L88.6704 45.8696ZM95.8932 45.8462L95.8911 45.2353L99.5026 45.2235L99.5047 45.8344L95.8932 45.8462ZM103.116 45.8226L103.114 45.2118L106.725 45.2L106.728 45.8109L103.116 45.8226ZM110.339 45.7992L110.337 45.1883L113.948 45.1766L113.95 45.7874L110.339 45.7992ZM117.562 45.7757L117.56 45.1648L121.171 45.153L121.173 45.7639L117.562 45.7757ZM124.785 45.7522L124.783 45.1414L128.394 45.1296L128.396 45.7405L124.785 45.7522ZM132.008 45.7287L132.006 45.1178L135.617 45.106L135.619 45.7169L132.008 45.7287ZM139.231 45.7053L139.228 45.0944L142.84 45.0826L142.842 45.6935L139.231 45.7053ZM146.453 45.6817L146.451 45.0708L150.063 45.059L150.065 45.6699L146.453 45.6817ZM153.676 45.6583L153.674 45.0474L157.286 45.0356L157.288 45.6465L153.676 45.6583ZM160.899 45.6347L160.897 45.0238L164.509 45.0121L164.511 45.6229L160.899 45.6347ZM168.122 45.6113L168.12 45.0004L171.731 44.9886L171.733 45.5995L168.122 45.6113ZM175.345 45.5877L175.343 44.9769L178.954 44.9651L178.956 45.576L175.345 45.5877ZM182.568 45.5643L182.566 44.9534L186.177 44.9417L186.179 45.5525L182.568 45.5643ZM189.791 45.5408L189.789 44.9299L193.4 44.9181L193.402 45.529L189.791 45.5408Z" fill="#3F3D56"/>
<path d="M198.844 44.9009L197.011 44.9062L197.013 45.5171L198.846 45.5118L198.844 44.9009Z" fill="#3F3D56"/>
<path d="M6.1089 42.4569H0V48.5658H6.1089V42.4569Z" fill="#323C55"/>
<path d="M6.1089 64.1434H0V70.2523H6.1089V64.1434Z" fill="#323C55"/>
<path d="M6.1089 86.4409H0V92.5498H6.1089V86.4409Z" fill="#323C55"/>
<path d="M6.1089 98.9642H0V105.073H6.1089V98.9642Z" fill="#323C55"/>
<path d="M6.1089 116.68H0V122.789H6.1089V116.68Z" fill="#323C55"/>
<path d="M168.047 74.917C167.322 74.917 166.614 74.702 166.011 74.2993C165.408 73.8965 164.938 73.3241 164.661 72.6543C164.383 71.9846 164.311 71.2476 164.452 70.5366C164.594 69.8256 164.943 69.1725 165.455 68.6599C165.968 68.1473 166.621 67.7982 167.332 67.6567C168.043 67.5153 168.78 67.5879 169.45 67.8653C170.12 68.1427 170.692 68.6125 171.095 69.2153C171.498 69.8181 171.713 70.5267 171.713 71.2516C171.711 72.2234 171.325 73.1551 170.638 73.8422C169.951 74.5293 169.019 74.9159 168.047 74.917ZM168.047 68.1972C167.443 68.1972 166.853 68.3763 166.35 68.712C165.848 69.0476 165.456 69.5246 165.225 70.0828C164.994 70.6409 164.934 71.255 165.051 71.8475C165.169 72.44 165.46 72.9843 165.887 73.4115C166.315 73.8386 166.859 74.1295 167.451 74.2474C168.044 74.3653 168.658 74.3048 169.216 74.0736C169.774 73.8424 170.251 73.4509 170.587 72.9486C170.922 72.4463 171.102 71.8558 171.102 71.2516C171.101 70.4418 170.779 69.6654 170.206 69.0928C169.633 68.5202 168.857 68.1981 168.047 68.1972Z" fill="white"/>
<path d="M86.4935 130.203C85.7685 130.203 85.0599 129.988 84.4571 129.585C83.8544 129.182 83.3846 128.61 83.1071 127.94C82.8297 127.27 82.7571 126.533 82.8986 125.822C83.04 125.111 83.3891 124.458 83.9017 123.945C84.4143 123.433 85.0674 123.084 85.7784 122.942C86.4894 122.801 87.2264 122.873 87.8961 123.151C88.5659 123.428 89.1383 123.898 89.5411 124.501C89.9438 125.104 90.1588 125.812 90.1588 126.537C90.1577 127.509 89.7712 128.441 89.084 129.128C88.3969 129.815 87.4652 130.201 86.4935 130.203V130.203ZM86.4935 123.483C85.8894 123.483 85.2988 123.662 84.7965 123.997C84.2942 124.333 83.9027 124.81 83.6715 125.368C83.4403 125.926 83.3799 126.541 83.4977 127.133C83.6156 127.726 83.9065 128.27 84.3336 128.697C84.7608 129.124 85.3051 129.415 85.8976 129.533C86.4901 129.651 87.1042 129.59 87.6624 129.359C88.2205 129.128 88.6975 128.736 89.0332 128.234C89.3688 127.732 89.5479 127.141 89.5479 126.537C89.547 125.727 89.2249 124.951 88.6523 124.378C88.0797 123.806 87.3033 123.484 86.4935 123.483V123.483Z" fill="white"/>
<path d="M50.451 41.3181C49.7261 41.3181 49.0174 41.1031 48.4146 40.7004C47.8119 40.2976 47.3421 39.7252 47.0647 39.0554C46.7872 38.3857 46.7146 37.6487 46.8561 36.9377C46.9975 36.2267 47.3466 35.5736 47.8592 35.061C48.3718 34.5484 49.0249 34.1993 49.7359 34.0579C50.4469 33.9164 51.1839 33.989 51.8536 34.2664C52.5234 34.5439 53.0958 35.0137 53.4986 35.6164C53.9014 36.2192 54.1163 36.9278 54.1163 37.6528C54.1152 38.6245 53.7287 39.5562 53.0415 40.2433C52.3544 40.9305 51.4228 41.317 50.451 41.3181V41.3181ZM50.451 34.5983C49.8469 34.5983 49.2563 34.7775 48.754 35.1131C48.2517 35.4487 47.8602 35.9258 47.629 36.4839C47.3979 37.042 47.3374 37.6562 47.4552 38.2487C47.5731 38.8412 47.864 39.3854 48.2912 39.8126C48.7183 40.2398 49.2626 40.5307 49.8551 40.6485C50.4476 40.7664 51.0617 40.7059 51.6199 40.4747C52.178 40.2435 52.655 39.852 52.9907 39.3497C53.3263 38.8474 53.5054 38.2569 53.5054 37.6528C53.5045 36.843 53.1824 36.0666 52.6098 35.4939C52.0372 34.9213 51.2608 34.5992 50.451 34.5983V34.5983Z" fill="white"/>
<defs>
<filter id="filter0_d_9_1026" x="20.4355" y="0" width="213.564" height="130.789" filterUnits="userSpaceOnUse" color-interpolation-filters="sRGB">
<feFlood flood-opacity="0" result="BackgroundImageFix"/>
<feColorMatrix in="SourceAlpha" type="matrix" values="0 0 0 0 0 0 0 0 0 0 0 0 0 0 0 0 0 0 127 0" result="hardAlpha"/>
<feOffset dy="4"/>
<feGaussianBlur stdDeviation="2"/>
<feComposite in2="hardAlpha" operator="out"/>
<feColorMatrix type="matrix" values="0 0 0 0 0 0 0 0 0 0 0 0 0 0 0 0 0 0 0.25 0"/>
<feBlend mode="normal" in2="BackgroundImageFix" result="effect1_dropShadow_9_1026"/>
<feBlend mode="normal" in="SourceGraphic" in2="effect1_dropShadow_9_1026" result="shape"/>
</filter>
<filter id="filter1_d_9_1026" x="6.99609" y="18.6322" width="213.564" height="130.789" filterUnits="userSpaceOnUse" color-interpolation-filters="sRGB">
<feFlood flood-opacity="0" result="BackgroundImageFix"/>
<feColorMatrix in="SourceAlpha" type="matrix" values="0 0 0 0 0 0 0 0 0 0 0 0 0 0 0 0 0 0 127 0" result="hardAlpha"/>
<feOffset dy="4"/>
<feGaussianBlur stdDeviation="2"/>
<feComposite in2="hardAlpha" operator="out"/>
<feColorMatrix type="matrix" values="0 0 0 0 0 0 0 0 0 0 0 0 0 0 0 0 0 0 0.25 0"/>
<feBlend mode="normal" in2="BackgroundImageFix" result="effect1_dropShadow_9_1026"/>
<feBlend mode="normal" in="SourceGraphic" in2="effect1_dropShadow_9_1026" result="shape"/>
</filter>
</defs>
</svg>
