<svg width="312" height="312" viewBox="0 0 312 312" fill="none" xmlns="http://www.w3.org/2000/svg">
<path d="M281.32 239.625H30.1521V240.166H281.32V239.625Z" fill="#323C55"/>
<path d="M49.9074 141.529L49.6968 142.027L281.032 239.852L281.242 239.354L49.9074 141.529Z" fill="#323C55"/>
<path d="M281.32 141.484H30.1521V142.025H281.32V141.484Z" fill="#323C55"/>
<path d="M247.254 153.245C247.289 164.686 245.069 176.021 240.721 186.603C236.372 197.186 229.982 206.807 221.913 214.918C221.024 215.813 220.114 216.687 219.185 217.541C218.066 218.573 216.918 219.575 215.741 220.544C215.516 220.731 215.292 220.915 215.065 221.096C210.415 224.864 205.38 228.129 200.043 230.837C199.727 230.997 199.411 231.156 199.092 231.313C198.586 231.562 198.075 231.805 197.564 232.043C178.648 240.845 157.137 242.305 137.205 236.139C102.31 225.308 76.925 192.294 76.925 153.245C76.925 105.388 115.054 66.5938 162.09 66.5938C209.125 66.5938 247.254 105.388 247.254 153.245Z" fill="#10CFC9"/>
<path d="M181.052 135.066L181.119 135.063L180.853 134.477C180.553 133.648 180.187 132.844 179.758 132.074L171.935 114.897C171.685 114.349 171.281 113.886 170.772 113.564C170.262 113.242 169.67 113.076 169.068 113.086L159.161 113.251C158.52 113.262 157.899 113.471 157.382 113.85C156.866 114.229 156.48 114.759 156.277 115.367L150.049 134.073C149.844 134.597 149.666 135.131 149.516 135.673L149.305 136.308L149.354 136.307C148.777 138.773 148.778 141.34 149.356 143.807C149.933 146.274 151.073 148.573 152.686 150.527C154.299 152.481 156.341 154.036 158.653 155.071C160.966 156.106 163.486 156.593 166.018 156.494C168.549 156.395 171.024 155.712 173.248 154.5C175.473 153.287 177.387 151.577 178.842 149.503C180.297 147.429 181.254 145.048 181.637 142.543C182.02 140.039 181.82 137.48 181.052 135.066H181.052Z" fill="#323C55"/>
<path d="M162.588 117.454L159.471 134.496L159.822 134.56L162.94 117.518L162.588 117.454Z" fill="#10CFC9"/>
<path d="M166.335 117.389L165.985 117.465L169.665 134.394L170.015 134.318L166.335 117.389Z" fill="#10CFC9"/>
<path d="M158.081 104.864L170.776 104.652C170.871 104.651 170.963 104.687 171.031 104.753C171.099 104.819 171.138 104.909 171.14 105.004C171.141 105.099 171.105 105.19 171.039 105.259C170.973 105.327 170.883 105.366 170.788 105.368L158.093 105.579C158.046 105.58 157.999 105.571 157.956 105.554C157.912 105.537 157.872 105.511 157.839 105.479C157.805 105.446 157.778 105.407 157.759 105.364C157.74 105.321 157.73 105.274 157.73 105.227C157.729 105.18 157.737 105.134 157.754 105.09C157.772 105.046 157.797 105.007 157.83 104.973C157.863 104.939 157.902 104.912 157.945 104.893C157.988 104.875 158.034 104.865 158.081 104.864Z" fill="#323C55"/>
<path d="M158.215 107.544L170.91 107.332C171.005 107.331 171.097 107.367 171.165 107.433C171.233 107.499 171.272 107.589 171.274 107.684C171.275 107.779 171.239 107.87 171.173 107.938C171.107 108.007 171.017 108.046 170.922 108.047L158.227 108.259C158.132 108.26 158.041 108.224 157.973 108.158C157.904 108.092 157.865 108.002 157.864 107.907C157.862 107.812 157.898 107.721 157.964 107.653C158.03 107.584 158.12 107.545 158.215 107.544Z" fill="#323C55"/>
<path d="M158.349 110.223L171.044 110.012C171.139 110.01 171.231 110.046 171.299 110.112C171.367 110.178 171.406 110.269 171.408 110.363C171.409 110.458 171.373 110.55 171.307 110.618C171.241 110.686 171.151 110.725 171.056 110.727L158.361 110.938C158.266 110.94 158.175 110.904 158.107 110.838C158.038 110.772 157.999 110.682 157.998 110.587C157.996 110.492 158.032 110.4 158.098 110.332C158.164 110.264 158.254 110.225 158.349 110.223Z" fill="#323C55"/>
<path d="M164.386 102.208C161.868 102.25 159.85 103.687 159.879 105.419L168.998 105.267C168.969 103.535 166.904 102.166 164.386 102.208Z" fill="#323C55"/>
<path d="M165.789 137.012C166.287 137.045 166.758 137.247 167.126 137.583C167.221 137.661 167.313 137.743 167.406 137.825C167.7 138.132 168.061 138.368 168.46 138.515C169.334 138.753 170.196 138.062 170.924 137.355L171.174 137.611C170.373 138.389 169.414 139.146 168.366 138.86C167.913 138.7 167.504 138.438 167.169 138.093C167.079 138.014 166.989 137.934 166.898 137.858C166.599 137.61 166.022 137.225 165.509 137.425C165.296 137.529 165.107 137.675 164.952 137.854C164.833 137.98 164.703 138.097 164.566 138.202C164.284 138.402 163.949 138.514 163.604 138.525C163.259 138.535 162.918 138.443 162.625 138.26C162.519 138.19 162.418 138.114 162.321 138.032C162.162 137.874 161.964 137.762 161.747 137.705C161.443 137.663 161.167 137.88 160.874 138.109C160.597 138.378 160.243 138.554 159.862 138.612C159.849 138.613 159.836 138.613 159.823 138.613C159.11 138.625 158.658 137.912 158.379 137.37L158.697 137.206C159.077 137.943 159.443 138.279 159.843 138.255C160.149 138.196 160.431 138.047 160.653 137.828C160.992 137.562 161.342 137.288 161.796 137.351C162.079 137.413 162.339 137.552 162.546 137.754C162.633 137.827 162.724 137.896 162.818 137.959C163.051 138.102 163.32 138.173 163.593 138.165C163.866 138.157 164.131 138.069 164.355 137.913C164.478 137.818 164.593 137.714 164.699 137.602C164.887 137.386 165.119 137.212 165.379 137.092C165.51 137.041 165.649 137.014 165.789 137.012Z" fill="#10CFC9"/>
<path d="M164.789 66.5078H164.417V102.191H164.789V66.5078Z" fill="#323C55"/>
<path d="M276.966 128.334C274.7 136.711 266.938 141.9 266.938 141.9C266.938 141.9 262.85 133.506 265.116 125.128C267.382 116.751 275.145 111.562 275.145 111.562C275.145 111.562 279.233 119.957 276.966 128.334Z" fill="#10CFC9"/>
<path d="M256.35 128.334C258.616 136.711 266.378 141.9 266.378 141.9C266.378 141.9 270.467 133.506 268.2 125.128C265.934 116.751 258.172 111.562 258.172 111.562C258.172 111.562 254.084 119.957 256.35 128.334Z" fill="#10CFC9"/>
<path d="M259.68 126.535C265.899 132.589 266.658 141.895 266.658 141.895C266.658 141.895 257.335 141.385 251.117 135.332C244.898 129.278 244.139 119.973 244.139 119.973C244.139 119.973 253.461 120.482 259.68 126.535Z" fill="#323C55"/>
<path d="M273.636 126.535C267.418 132.589 266.658 141.895 266.658 141.895C266.658 141.895 275.981 141.385 282.2 135.332C288.418 129.278 289.178 119.973 289.178 119.973C289.178 119.973 279.855 120.482 273.636 126.535Z" fill="#323C55"/>
<path d="M55.5382 226.205C53.272 234.582 45.5096 239.771 45.5096 239.771C45.5096 239.771 41.4215 231.377 43.6878 222.999C45.954 214.622 53.7164 209.434 53.7164 209.434C53.7164 209.434 57.8045 217.828 55.5382 226.205Z" fill="#10CFC9"/>
<path d="M34.9219 226.205C37.1882 234.582 44.9505 239.771 44.9505 239.771C44.9505 239.771 49.0386 231.377 46.7724 222.999C44.5061 214.622 36.7438 209.434 36.7438 209.434C36.7438 209.434 32.6557 217.828 34.9219 226.205Z" fill="#10CFC9"/>
<path d="M38.2518 224.406C44.4704 230.46 45.23 239.766 45.23 239.766C45.23 239.766 35.9072 239.257 29.6886 233.203C23.47 227.149 22.7104 217.844 22.7104 217.844C22.7104 217.844 32.0332 218.353 38.2518 224.406Z" fill="#323C55"/>
<path d="M52.2084 224.406C45.9898 230.46 45.2302 239.766 45.2302 239.766C45.2302 239.766 54.553 239.257 60.7716 233.203C66.9902 227.149 67.7498 217.844 67.7498 217.844C67.7498 217.844 58.427 218.353 52.2084 224.406Z" fill="#323C55"/>
<path d="M203.947 148.815C206.819 148.815 209.147 146.486 209.147 143.614C209.147 140.742 206.819 138.414 203.947 138.414C201.075 138.414 198.747 140.742 198.747 143.614C198.747 146.486 201.075 148.815 203.947 148.815Z" fill="#202739"/>
<path d="M198.375 141.384C198.375 140.101 198.849 138.864 199.706 137.91C200.563 136.956 201.743 136.352 203.018 136.214C202.292 136.135 201.557 136.21 200.862 136.433C200.166 136.657 199.526 137.024 198.982 137.512C198.438 138 198.003 138.597 197.705 139.264C197.407 139.931 197.253 140.653 197.253 141.384C197.253 142.114 197.407 142.837 197.705 143.504C198.003 144.171 198.438 144.768 198.982 145.256C199.526 145.743 200.166 146.111 200.862 146.335C201.557 146.558 202.292 146.633 203.018 146.553C201.743 146.416 200.563 145.812 199.706 144.858C198.849 143.904 198.375 142.666 198.375 141.384Z" fill="#202739"/>
<path d="M198.747 143.613C198.747 143.613 197.939 147.328 202.986 148.814L198.747 143.613Z" fill="#10CFC9"/>
<path d="M206.097 178.936C215.739 178.936 223.556 171.119 223.556 161.478C223.556 151.836 215.739 144.02 206.097 144.02C196.456 144.02 188.639 151.836 188.639 161.478C188.639 171.119 196.456 178.936 206.097 178.936Z" fill="#202739"/>
<path d="M215.75 220.582C215.524 220.767 215.299 220.949 215.07 221.128C210.389 224.86 205.321 228.094 199.948 230.776C199.63 230.934 199.311 231.092 198.99 231.248C198.481 231.494 197.967 231.735 197.452 231.971L188.444 229.017L188.547 226.894V226.886L188.939 218.788L188.849 216.02L215.75 220.582Z" fill="#131E37"/>
<path d="M199.092 231.31C198.586 231.559 198.075 231.803 197.564 232.04C194.069 233.675 190.463 235.063 186.774 236.196C186.755 236.142 186.744 236.085 186.742 236.028L188.615 226.871L188.718 226.914L199.092 231.31Z" fill="#525F7E"/>
<path d="M201.74 180.001C208.125 180.001 213.301 174.825 213.301 168.44C213.301 162.055 208.125 156.879 201.74 156.879C195.355 156.879 190.178 162.055 190.178 168.44C190.178 174.825 195.355 180.001 201.74 180.001Z" fill="#A0616A"/>
<path d="M211.114 169.066C211.114 169.066 212.988 178.44 216.426 180.628L197.365 203.125L190.178 196.251L195.49 186.877C195.49 186.877 201.427 183.44 199.552 178.753L211.114 169.066Z" fill="#A0616A"/>
<path d="M233.733 200.109C230.346 205.461 226.382 210.426 221.913 214.915C221.721 210.724 221.305 207.269 220.488 206.247C220.486 206.247 220.484 206.246 220.483 206.244L210.488 203.121C210.488 203.121 212.675 182.498 217.987 181.562C217.987 181.562 218.758 181.719 219.956 182.082C223.816 183.244 232.106 186.521 233.298 193.434C233.637 195.642 233.783 197.876 233.733 200.109Z" fill="#A0616A"/>
<path d="M195.49 186.877C195.49 186.877 186.116 186.564 180.18 194.064C174.243 201.563 159.869 207.187 159.869 207.187L123.936 221.248C123.936 221.248 117.374 209.687 113.312 213.749C109.25 217.811 120.811 228.122 126.123 226.872C131.435 225.623 163.619 215.936 163.619 215.936L189.241 204.375L195.49 186.877Z" fill="#A0616A"/>
<path d="M220.617 206.257L219.322 217.59C218.21 218.627 217.07 219.632 215.9 220.605C215.677 220.792 215.455 220.977 215.229 221.159C206.266 218.382 192.22 218.692 189.44 218.787C189.123 218.795 188.951 218.803 188.951 218.803L188.643 212.217C185.664 211.215 184.686 209.025 184.659 206.616C184.614 202.247 187.711 197.161 187.711 197.161C188.267 196.599 192.422 188.64 193.281 186.99C193.381 186.797 193.437 186.691 193.437 186.691L197.163 185.752C197.163 185.752 197.152 185.782 197.13 185.836C196.797 186.778 193.902 195.297 198.887 195.592C203.792 195.885 214.461 181.969 215.93 180.018C216.04 179.872 216.099 179.793 216.099 179.793L220.136 181.988C220.12 181.994 220.104 181.997 220.088 182.002C217.622 182.694 215.339 188.694 215.339 188.694C208.901 200.157 220.33 206.111 220.612 206.255C220.613 206.256 220.615 206.257 220.617 206.257Z" fill="#131E37"/>
<path d="M202.368 154.871C196.213 154.871 191.224 157.781 191.224 161.371C191.224 162.978 192.227 164.446 193.883 165.58L196.028 164.026L195.444 166.461C195.686 166.573 195.934 166.682 196.191 166.782L199.396 163.043V167.636C200.379 167.794 201.373 167.872 202.368 167.872C208.522 167.872 213.511 164.961 213.511 161.371C213.511 157.781 208.522 154.871 202.368 154.871Z" fill="#202739"/>
<path d="M225.194 156.94C228.066 156.94 230.395 154.611 230.395 151.739C230.395 148.867 228.066 146.539 225.194 146.539C222.322 146.539 219.994 148.867 219.994 151.739C219.994 154.611 222.322 156.94 225.194 156.94Z" fill="#202739"/>
<path d="M219.623 149.509C219.623 148.226 220.097 146.989 220.954 146.035C221.811 145.081 222.991 144.477 224.266 144.339C224.081 144.319 223.895 144.309 223.709 144.309C223.002 144.308 222.302 144.451 221.652 144.729C221.002 145.008 220.416 145.416 219.929 145.929C219.443 146.442 219.066 147.049 218.821 147.712C218.577 148.376 218.471 149.082 218.508 149.788C218.546 150.494 218.728 151.185 219.042 151.818C219.356 152.452 219.796 153.015 220.335 153.472C220.873 153.93 221.5 154.273 222.176 154.48C222.852 154.688 223.563 154.755 224.266 154.678C222.991 154.541 221.811 153.937 220.954 152.983C220.097 152.029 219.623 150.791 219.623 149.509Z" fill="#202739"/>
<path d="M219.994 151.738C219.994 151.738 219.187 155.453 224.234 156.939L219.994 151.738Z" fill="#10CFC9"/>
<path d="M213.77 169.535C214.268 169.535 214.672 168.625 214.672 167.504C214.672 166.382 214.268 165.473 213.77 165.473C213.271 165.473 212.867 166.382 212.867 167.504C212.867 168.625 213.271 169.535 213.77 169.535Z" fill="#A0616A"/>
<path d="M114.143 175.359L100.441 178.679L100.397 178.689L98.9074 180.038L98.4787 180.425L97.5597 180.259L95.9329 179.965L97.0665 176.138L97.2791 168.84L96.4997 164.376L100.822 161.4C100.822 161.4 109.254 160.905 114.143 175.359Z" fill="#EFF2FA"/>
<path opacity="0.1" d="M100.441 178.68C100.256 179.076 100.645 178.815 100.432 179.222L98.4482 179.86L97.5597 180.26L95.9329 179.966L97.0665 176.14L97.2791 168.842L96.4997 164.378L100.822 161.402C100.822 161.402 105.461 167.972 100.441 178.68Z" fill="black"/>
<path d="M130.298 164.875C130.298 164.875 112.3 173.236 105.002 174.511C97.7043 175.787 98.342 183.085 98.342 183.085L139.225 176.708C139.225 176.708 137.808 170.118 130.298 164.875Z" fill="#EFF2FA"/>
<path d="M95.5786 163.458C95.5786 163.458 98.6963 171.039 95.2244 180.463L99.2631 182.305L100.822 180.463L100.857 180.286L96.5706 179.896C96.5706 179.896 100.113 170.402 97.2083 163.812C97.2083 163.812 96.5706 162.395 95.5786 163.458Z" fill="#10CFC9"/>
<path d="M155.026 219.643C139.084 216.1 124.24 223.434 124.24 223.434L124.199 223.398L118.288 218.12L95.189 180.425L100.822 180.46C116.481 171.107 138.517 172.383 138.517 172.383C148.012 183.153 155.026 219.643 155.026 219.643Z" fill="#323C55"/>
<path opacity="0.1" d="M124.199 223.399L118.288 218.121L95.189 180.426L100.822 180.461C100.822 180.461 123.273 210.113 124.199 223.399Z" fill="black"/>
<path d="M126.793 193.988C131.62 192.507 134.769 188.821 133.828 185.753C132.887 182.685 128.212 181.398 123.386 182.878C118.56 184.359 115.41 188.046 116.351 191.113C117.292 194.181 121.967 195.468 126.793 193.988Z" fill="#EFF2FA"/>
<path d="M30.2248 146.579C33.0618 146.579 35.3617 144.279 35.3617 141.442C35.3617 138.605 33.0618 136.305 30.2248 136.305C27.3878 136.305 25.0879 138.605 25.0879 141.442C25.0879 144.279 27.3878 146.579 30.2248 146.579Z" fill="#323C55"/>
<path d="M281.123 245.262C283.96 245.262 286.26 242.962 286.26 240.125C286.26 237.288 283.96 234.988 281.123 234.988C278.286 234.988 275.986 237.288 275.986 240.125C275.986 242.962 278.286 245.262 281.123 245.262Z" fill="#323C55"/>
<path d="M52.6651 146.037C54.9048 146.037 56.7205 144.221 56.7205 141.981C56.7205 139.741 54.9048 137.926 52.6651 137.926C50.4253 137.926 48.6096 139.741 48.6096 141.981C48.6096 144.221 50.4253 146.037 52.6651 146.037Z" fill="#10CFC9"/>
<path d="M281.123 146.037C283.362 146.037 285.178 144.221 285.178 141.981C285.178 139.741 283.362 137.926 281.123 137.926C278.883 137.926 277.067 139.741 277.067 141.981C277.067 144.221 278.883 146.037 281.123 146.037Z" fill="#10CFC9"/>
<path d="M30.2249 243.638C32.4647 243.638 34.2803 241.823 34.2803 239.583C34.2803 237.343 32.4647 235.527 30.2249 235.527C27.9851 235.527 26.1694 237.343 26.1694 239.583C26.1694 241.823 27.9851 243.638 30.2249 243.638Z" fill="#10CFC9"/>
</svg>
