<svg width="130" height="130" viewBox="0 0 130 130" fill="none" xmlns="http://www.w3.org/2000/svg">
<path d="M106.994 105.236L105.501 105.236L104.792 99.4805H106.994L106.994 105.236Z" fill="#FFCFD3"/>
<path d="M107.374 106.683L102.562 106.683V106.622C102.563 106.125 102.76 105.649 103.111 105.298C103.462 104.946 103.939 104.749 104.435 104.749H104.436L107.374 104.749L107.374 106.683Z" fill="#202739"/>
<path d="M101.273 105.236L99.7803 105.236L99.0704 99.4805H101.273L101.273 105.236Z" fill="#FFCFD3"/>
<path d="M101.653 106.683L96.8414 106.683V106.622C96.8415 106.125 97.0388 105.649 97.39 105.298C97.7412 104.946 98.2176 104.749 98.7143 104.749H98.7144L101.653 104.749L101.653 106.683Z" fill="#202739"/>
<path d="M36.8008 106.46V60.2289C36.8008 59.9441 36.9139 59.6711 37.1152 59.4697C37.3166 59.2684 37.5896 59.1553 37.8744 59.1553H42.6654C42.9501 59.1553 43.2232 59.2684 43.4245 59.4697C43.6259 59.6711 43.739 59.9441 43.739 60.2289V106.581L36.8008 106.46Z" fill="#525F7E"/>
<path d="M52.6246 106.605V69.8446C52.6246 69.5599 52.7377 69.2868 52.9391 69.0854C53.1404 68.8841 53.4135 68.771 53.6982 68.771H58.4892C58.774 68.771 59.0471 68.8841 59.2484 69.0854C59.4497 69.2868 59.5628 69.5599 59.5628 69.8446V106.526L52.6246 106.605Z" fill="#525F7E"/>
<path d="M24.5067 62.9308C24.4361 62.9308 24.3671 62.9104 24.308 62.872C24.2488 62.8336 24.2021 62.7789 24.1733 62.7145C24.1446 62.6501 24.1351 62.5788 24.146 62.5091C24.1569 62.4394 24.1878 62.3744 24.2349 62.3219L40.2543 44.4541L56.0196 53.3069L71.8787 25.9805L88.0347 39.2781C88.0718 39.3086 88.1025 39.346 88.1251 39.3884C88.1476 39.4307 88.1617 39.4771 88.1663 39.5248C88.171 39.5726 88.1662 39.6208 88.1522 39.6667C88.1382 39.7126 88.1153 39.7553 88.0848 39.7923C88.0543 39.8293 88.0168 39.86 87.9745 39.8826C87.9321 39.9051 87.8857 39.9191 87.838 39.9237C87.7902 39.9283 87.742 39.9235 87.6962 39.9095C87.6503 39.8955 87.6076 39.8725 87.5706 39.842L72.0786 27.091L56.2898 54.2963L40.4072 45.3776L24.7787 62.8094C24.7445 62.8477 24.7025 62.8783 24.6557 62.8992C24.6088 62.9201 24.558 62.9309 24.5067 62.9308Z" fill="#525F7E"/>
<path d="M24.4458 65.9737C26.3282 65.9737 27.8541 64.4478 27.8541 62.5655C27.8541 60.6831 26.3282 59.1572 24.4458 59.1572C22.5635 59.1572 21.0376 60.6831 21.0376 62.5655C21.0376 64.4478 22.5635 65.9737 24.4458 65.9737Z" fill="#10CFC9"/>
<path d="M40.2698 48.3243C42.1521 48.3243 43.6781 46.7984 43.6781 44.9161C43.6781 43.0337 42.1521 41.5078 40.2698 41.5078C38.3875 41.5078 36.8616 43.0337 36.8616 44.9161C36.8616 46.7984 38.3875 48.3243 40.2698 48.3243Z" fill="#DDE2E5"/>
<path d="M56.0938 57.21C57.9761 57.21 59.502 55.6841 59.502 53.8018C59.502 51.9195 57.9761 50.3936 56.0938 50.3936C54.2115 50.3936 52.6855 51.9195 52.6855 53.8018C52.6855 55.6841 54.2115 57.21 56.0938 57.21Z" fill="#EFF2FA"/>
<path d="M71.9176 29.9439C73.8 29.9439 75.3259 28.418 75.3259 26.5357C75.3259 24.6534 73.8 23.1274 71.9176 23.1274C70.0353 23.1274 68.5094 24.6534 68.5094 26.5357C68.5094 28.418 70.0353 29.9439 71.9176 29.9439Z" fill="#10CFC9"/>
<path d="M102.349 55.3272C104.231 55.3272 105.757 53.8013 105.757 51.919C105.757 50.0367 104.231 48.5107 102.349 48.5107C100.466 48.5107 98.9403 50.0367 98.9403 51.919C98.9403 53.8013 100.466 55.3272 102.349 55.3272Z" fill="#10CFC9"/>
<path d="M101.143 78.4697C102.419 78.6234 105.681 77.4597 105.858 79.23C107.537 84.1726 107.487 103.119 107.487 103.119L104.931 103.241C104.931 103.241 102.888 88.1867 101.922 84.9661C101.438 88.8805 101.523 103.849 101.523 103.849L99.2099 103.971C99.2099 103.971 97.1354 91.2245 97.1236 87.4833C96.8714 84.7428 97.4898 80.6819 97.2251 78.0327C98.49 78.4336 99.8213 78.5821 101.143 78.4697L101.143 78.4697Z" fill="#525F7E"/>
<path d="M84.2726 106.441V53.1564C84.2726 52.473 84.7533 51.9189 85.3462 51.9189H90.1372C90.7301 51.9189 91.2108 52.4729 91.2108 53.1564V106.581L84.2726 106.441Z" fill="#525F7E"/>
<path d="M96.804 64.1305C96.2924 63.0845 95.6675 62.0979 94.9405 61.1884C94.7886 61.0108 94.6502 60.822 94.5266 60.6236C94.2649 60.1696 94.187 59.6364 94.0215 59.1398C93.5589 57.7473 92.405 56.6287 92.1238 55.1887C92.0215 54.6653 91.1578 56.1866 91.3849 56.8356C91.7903 58.0102 91.8426 59.2542 92.3587 60.3887C92.8748 61.5232 93.481 62.6114 93.9265 63.7714C94.1797 64.4299 94.3818 65.1103 94.753 65.7189C95.1243 66.3276 95.7037 66.8376 96.4036 66.9289C96.3988 66.4876 96.4658 66.0486 96.602 65.6289C96.7541 65.1493 97.0244 64.5845 96.804 64.1305Z" fill="#FFCFD3"/>
<path d="M104.462 64.9192C104.43 64.0585 104.565 63.1999 104.857 62.3898C104.969 62.0794 105.101 61.7642 105.09 61.4343C105.074 61.1276 104.928 60.8464 104.795 60.5688C104.337 59.6133 104.016 58.6006 103.7 57.5903L103.091 55.6853C102.893 55.5398 104.051 55.4893 104.298 55.8314C105.107 56.9537 105.719 58.2427 106.359 59.4685C106.523 59.7606 106.662 60.0655 106.776 60.3802C106.932 60.8902 107.006 61.4219 106.995 61.9553C106.995 62.9522 106.863 63.9454 106.727 64.9338C106.64 65.5534 106.527 66.2277 106.059 66.6379C105.572 66.0147 105.082 65.4061 104.462 64.9192Z" fill="#FFCFD3"/>
<path d="M101.243 63.9328C102.638 63.9328 103.769 62.802 103.769 61.4071C103.769 60.0122 102.638 58.8813 101.243 58.8813C99.8483 58.8813 98.7175 60.0122 98.7175 61.4071C98.7175 62.802 99.8483 63.9328 101.243 63.9328Z" fill="#FFCFD3"/>
<path d="M99.19 58.8875C99.1616 58.8108 99.1552 58.7278 99.1716 58.6477C99.1879 58.5676 99.2263 58.4937 99.2824 58.4343C99.3455 58.3846 99.4292 58.366 99.4969 58.3186C99.593 58.2378 99.6717 58.1383 99.7281 58.0261C99.9006 57.7846 100.153 57.6121 100.441 57.5391C100.728 57.4661 101.033 57.4973 101.299 57.6272C101.717 57.8457 101.969 58.2832 102.34 58.5777C102.529 58.7303 102.747 58.8436 102.937 58.9962C103.316 59.3243 103.586 59.7609 103.71 60.2473C103.833 60.7303 103.905 61.225 103.925 61.7231C103.944 61.8726 103.939 62.0243 103.907 62.1718C103.869 62.2955 103.812 62.4125 103.737 62.5187C103.356 63.0968 102.853 63.6218 102.223 63.9201C101.593 64.2184 100.826 64.267 100.205 63.9548C100.142 63.9295 100.088 63.8865 100.05 63.831C100.014 63.7466 100.006 63.6534 100.025 63.564C100.059 63.2106 99.9892 62.8551 99.8242 62.5408C99.7085 62.3095 99.5351 62.1106 99.4426 61.8713C99.3566 61.6034 99.3198 61.3222 99.3339 61.0412C99.3229 60.3131 99.3724 59.5882 99.19 58.8875Z" fill="#131E37"/>
<path d="M20.9767 106.514V80.7888C20.9767 80.4589 21.4574 80.1914 22.0503 80.1914H26.8413C27.4342 80.1914 27.9149 80.4592 27.9149 80.7888V106.581L20.9767 106.514Z" fill="#525F7E"/>
<path d="M114.805 106.848H15.0936C15.0614 106.848 15.0304 106.836 15.0076 106.813C14.9847 106.79 14.9719 106.759 14.9719 106.727C14.9719 106.694 14.9847 106.663 15.0076 106.641C15.0304 106.618 15.0614 106.605 15.0936 106.605H114.805C114.837 106.605 114.868 106.618 114.891 106.641C114.914 106.663 114.927 106.694 114.927 106.727C114.927 106.759 114.914 106.79 114.891 106.813C114.868 106.836 114.837 106.848 114.805 106.848H114.805Z" fill="#EFF2FA"/>
<path d="M68.4485 106.423V45.955C68.4485 45.1795 68.9292 44.5508 69.5221 44.5508H74.3131C74.906 44.5508 75.3867 45.1795 75.3867 45.955V106.581L68.4485 106.423Z" fill="#10CFC9"/>
<path d="M91.3144 56.524C91.9194 56.524 92.4099 56.0335 92.4099 55.4285C92.4099 54.8235 91.9194 54.333 91.3144 54.333C90.7093 54.333 90.2189 54.8235 90.2189 55.4285C90.2189 56.0335 90.7093 56.524 91.3144 56.524Z" fill="#FFCFD3"/>
<path d="M103.487 56.0372C104.092 56.0372 104.582 55.5467 104.582 54.9417C104.582 54.3367 104.092 53.8462 103.487 53.8462C102.882 53.8462 102.391 54.3367 102.391 54.9417C102.391 55.5467 102.882 56.0372 103.487 56.0372Z" fill="#FFCFD3"/>
<path d="M106.149 68.5026C106.256 68.4048 107.127 63.3083 107.122 63.1934C107.108 62.5655 105.193 61.8484 104.809 62.0979C104.447 62.3333 103.818 65.0344 103.412 65.5263L102.983 64.7758H99.5751L99.3686 65.1595C98.9214 64.89 98.5191 64.6416 98.3756 64.5594C98.3263 64.526 98.2726 64.4996 98.216 64.4809C97.8617 64.4017 97.5293 64.2455 97.2422 64.0233C96.9622 63.8078 95.663 61.5514 95.3148 61.611C94.9217 61.6768 93.5955 62.8234 93.6107 63.9238C93.7777 63.9202 95.9495 68.2629 95.98 68.4248C96.1467 69.1088 96.6974 79.0852 96.8751 79.5502C97.6938 79.4711 97.0474 79.3299 97.8399 79.5502C98.6931 79.7876 99.5939 79.5307 100.474 79.4358C100.84 79.3995 101.209 79.3833 101.577 79.3871C102.916 79.3932 104.827 79.4675 106.123 79.7998C106.13 78.9501 105.384 77.1121 105.108 76.31C105.072 76.0702 105.073 75.8263 105.112 75.5869C105.147 75.2936 105.86 68.827 106.149 68.5026Z" fill="#EFF2FA"/>
</svg>
