<svg width="358" height="293" viewBox="0 0 358 293" fill="none" xmlns="http://www.w3.org/2000/svg">
<path d="M82.0732 59.2446L83.5972 184.802L149.45 216.835L147.926 91.2783L82.0732 59.2446Z" fill="#EFF2FA"/>
<path d="M62.0625 49.2146L12.856 150.094L79.6222 182.572L78.0982 57.0151L62.0625 49.2146Z" fill="#EFF2FA"/>
<path d="M358 190.932L225.1 126.284L226.624 251.841L308.794 291.812L358 190.932Z" fill="#EFF2FA"/>
<path d="M153.879 91.2781L155.403 216.835L221.255 248.868L219.731 123.311L153.879 91.2781Z" fill="#EFF2FA"/>
<path d="M302.515 96.6263L294.246 96.9465L294.658 107.564L302.927 107.244L302.515 96.6263Z" fill="#10CFC9"/>
<path d="M265.212 133.812C265.212 133.812 253.76 128.347 253.943 133.066C254.126 137.785 265.487 140.89 265.487 140.89L265.212 133.812Z" fill="#FFB9B9"/>
<path d="M271.495 173.74C271.495 173.74 266.092 186.945 264.096 196.475C262.099 206.004 259.059 219.118 262.97 228.419C266.88 237.72 277.998 265.055 278.113 268.004C278.227 270.953 277.16 273.948 279.523 273.857C281.886 273.765 294.743 269.723 295.265 267.931C295.787 266.138 290.879 261.602 290.879 261.602L278.758 223.672L291.404 198.962L300.526 235.826L302.312 281.836C302.312 281.836 311.081 279.133 312.354 281.447C312.354 281.447 316.282 275.978 316.781 273.596C317.28 271.213 314.926 225.816 314.926 225.816C314.926 225.816 322.975 174.109 316.477 174.361C309.98 174.612 284.53 159.057 271.495 173.74Z" fill="#202739"/>
<path d="M279.431 271.497C279.431 271.497 273.438 284.726 272.87 285.339C272.302 285.951 268.397 292.01 271.35 291.896C274.304 291.781 281.277 288.558 286.41 283.633C291.543 278.708 298.31 270.175 297.697 269.608C297.083 269.041 292.88 267.432 292.88 267.432L279.431 271.497Z" fill="#0C162D"/>
<path d="M303.379 278.84C303.379 278.84 303.017 284.762 301.928 287.167C300.838 289.572 300.975 293.112 303.929 292.997C306.882 292.883 314.515 291.406 314.515 291.406C314.515 291.406 314.968 287.844 314.355 287.277C313.741 286.71 311.126 280.313 312.239 278.497C313.352 276.682 303.379 278.84 303.379 278.84Z" fill="#0C162D"/>
<path d="M307.748 86.676C307.748 86.676 314.044 96.475 316.499 98.743C318.953 101.011 312.048 106.004 312.048 106.004L299.69 107.664C299.69 107.664 299.845 96.4341 299.209 95.2773C298.572 94.1204 307.748 86.676 307.748 86.676Z" fill="#FFB9B9"/>
<path d="M297.007 99.4979C297.007 99.4979 299.552 104.125 301.915 104.034C304.278 103.942 316.499 98.743 317.021 96.9505C317.543 95.1581 321.069 109.79 321.069 109.79L291.165 162.344L283.871 157.31L287.405 126.454L290.308 109.8L297.007 99.4979Z" fill="#10CFC9"/>
<path d="M318.124 146.531C316.931 149.023 316.186 151.622 316.289 154.282C316.294 154.4 316.298 154.518 316.309 154.636C316.592 160.095 318.606 166.409 319.328 171.001C319.853 174.295 319.703 176.699 317.773 177.264C313.094 178.627 318.456 179.601 300.351 185.619C282.246 191.636 279.087 186.442 279.041 185.262C278.995 184.083 281.605 175.12 280.991 174.553C280.378 173.986 272.406 181.975 269.997 180.886C267.589 179.798 269.723 173.808 269.723 173.808C269.723 173.808 275.148 161.192 275.034 158.243C274.919 155.293 283.253 141.383 283.253 141.383L288.921 104.537C288.921 104.537 291.1 99.7266 294.03 99.0224C296.961 98.3181 299.392 99.9962 299.392 99.9962L294.488 110.82L289.315 129.924L290.18 136.98C290.18 136.98 296.197 124.341 300.148 119.462C304.1 114.583 312.524 103.032 312.524 103.032C312.524 103.032 314.491 96.4046 313.007 94.4239C311.522 92.4375 319.2 92.1401 322.474 100.284C324.21 104.6 327.027 111.037 328.792 117.029C330.364 122.338 331.107 127.301 329.549 130.138C327.168 134.472 321.178 140.169 318.124 146.531Z" fill="#323C55"/>
<path opacity="0.1" d="M329.549 130.138C327.168 134.472 321.177 140.169 318.124 146.531C317.326 143.661 316.353 140.692 316.353 140.692C316.353 140.692 312.621 120.751 323.66 115.597C325.489 115.421 327.319 115.931 328.792 117.029C330.364 122.338 331.107 127.301 329.549 130.138Z" fill="black"/>
<path d="M285.725 128.882L276.366 131.607L263.371 132.11L262.034 143.386L283.39 144.922C283.39 144.922 288.724 129.947 285.725 128.882Z" fill="#323C55"/>
<path d="M300.986 166.795C300.986 166.795 288.466 168.87 291.323 172.633C294.181 176.395 305.273 172.439 305.273 172.439L300.986 166.795Z" fill="#FFB9B9"/>
<path opacity="0.1" d="M316.309 154.636C316.592 160.095 318.606 166.409 319.328 171.001C315.34 174.771 311.547 178.096 310.117 178.151C307.164 178.266 302.416 177.859 300.667 178.517C298.917 179.176 297.892 167.991 297.892 167.991C297.892 167.991 298.936 164.406 303.592 162.454C306.735 161.133 312.76 157.55 316.309 154.636Z" fill="black"/>
<path d="M323.523 112.058C323.523 112.058 333.519 110.49 332.979 127.052C332.439 143.614 334.032 154.186 330.012 157.295C325.992 160.405 312.933 174.498 309.98 174.612C307.027 174.726 302.278 174.32 300.529 174.978C298.78 175.637 297.754 164.452 297.754 164.452C297.754 164.452 298.798 160.867 303.455 158.914C308.111 156.962 319.082 150.039 318.991 147.679C318.899 145.32 316.216 137.153 316.216 137.153C316.216 137.153 312.483 117.212 323.523 112.058Z" fill="#323C55"/>
<path d="M298.934 101.186C306.116 101.186 311.939 95.3714 311.939 88.199C311.939 81.0266 306.116 75.2122 298.934 75.2122C291.752 75.2122 285.929 81.0266 285.929 88.199C285.929 95.3714 291.752 101.186 298.934 101.186Z" fill="#FFB9B9"/>
<path d="M290.178 69.585C289.864 69.8548 289.488 70.0431 289.084 70.1329C288.881 70.169 288.672 70.1235 288.503 70.0064C288.334 69.8892 288.217 69.7098 288.18 69.5074C287.882 70.1236 287.547 70.7804 286.939 71.0965C286.332 71.4127 285.393 71.1476 285.305 70.4691C285.216 70.9843 284.988 71.4654 284.645 71.8602C284.268 72.2191 283.585 72.3096 283.256 71.9066C283.522 73.3584 283.357 74.8515 283.441 76.3251C283.525 77.7987 283.918 79.3609 285.033 80.3299C286.659 81.7431 289.104 81.3943 291.242 81.1266C291.566 81.0588 291.901 81.0771 292.215 81.1798C293.016 81.5205 292.98 82.6337 292.991 83.5029C293.056 85.028 293.661 86.4806 294.697 87.6028C295.733 88.7251 297.134 89.4443 298.651 89.6327C299.5 89.7636 300.366 89.5524 301.059 89.0458C301.666 88.5318 301.976 87.694 302.672 87.3079C303.804 86.6798 305.177 87.5958 306.004 88.5904C306.832 89.5849 307.647 90.8083 308.929 90.9904C310.625 91.2312 311.916 89.5056 312.55 87.9168C313.424 85.6899 313.843 83.3107 313.781 80.9196C313.72 78.5286 313.18 76.1739 312.193 73.9945C308.653 66.288 296.56 65.069 290.178 69.585Z" fill="#202739"/>
<path d="M221.359 80.2827C236.154 80.2827 248.148 68.3053 248.148 53.5304C248.148 38.7555 236.154 26.7781 221.359 26.7781C206.564 26.7781 194.57 38.7555 194.57 53.5304C194.57 68.3053 206.564 80.2827 221.359 80.2827Z" fill="#10CFC9"/>
<path d="M192.215 25.3052C198.387 31.6277 207.868 32.3934 207.868 32.3934C207.868 32.3934 207.343 22.9085 201.171 16.586C194.998 10.2636 185.517 9.4978 185.517 9.4978C185.517 9.4978 186.043 18.9828 192.215 25.3052Z" fill="#323C55"/>
<path d="M194.285 22.0555C202.822 24.355 208.114 32.2488 208.114 32.2488C208.114 32.2488 199.565 36.4145 191.028 34.1151C182.491 31.8156 177.199 23.9218 177.199 23.9218C177.199 23.9218 185.748 19.7561 194.285 22.0555Z" fill="#11BEB9"/>
<path d="M202.665 16.0275C202.722 24.8571 209.021 31.975 209.021 31.975C209.021 31.975 215.229 24.7772 215.172 15.9475C215.116 7.11787 208.816 0 208.816 0C208.816 0 202.609 7.19783 202.665 16.0275Z" fill="#323C55"/>
<path d="M206.414 15.12C210.968 22.6887 209.299 32.0408 209.299 32.0408C209.299 32.0408 200.247 29.1218 195.693 21.5531C191.139 13.9845 192.808 4.63232 192.808 4.63232C192.808 4.63232 201.86 7.55138 206.414 15.12Z" fill="#10CFC9"/>
<path d="M218.935 65.2244C226.538 65.2244 232.702 59.0694 232.702 51.4767C232.702 43.8841 226.538 37.729 218.935 37.729C211.332 37.729 205.169 43.8841 205.169 51.4767C205.169 59.0694 211.332 65.2244 218.935 65.2244Z" fill="#F2F2F2"/>
<path d="M212.493 60.1889C214.958 60.1889 216.957 58.1927 216.957 55.7302C216.957 53.2677 214.958 51.2715 212.493 51.2715C210.027 51.2715 208.028 53.2677 208.028 55.7302C208.028 58.1927 210.027 60.1889 212.493 60.1889Z" fill="#323C55"/>
<path d="M77.3899 290.898C92.1849 290.898 104.179 278.921 104.179 264.146C104.179 249.371 92.1849 237.394 77.3899 237.394C62.5948 237.394 50.6011 249.371 50.6011 264.146C50.6011 278.921 62.5948 290.898 77.3899 290.898Z" fill="#10CFC9"/>
<path d="M65.6931 225.322C68.002 233.846 75.9105 239.125 75.9105 239.125C75.9105 239.125 80.0756 230.584 77.7667 222.061C75.4578 213.537 67.5492 208.259 67.5492 208.259C67.5492 208.259 63.3842 216.799 65.6931 225.322Z" fill="#323C55"/>
<path d="M69.0864 223.491C75.4221 229.65 76.1959 239.118 76.1959 239.118C76.1959 239.118 66.6976 238.6 60.362 232.441C54.0263 226.281 53.2524 216.813 53.2524 216.813C53.2524 216.813 62.7507 217.331 69.0864 223.491Z" fill="#10CFC9"/>
<path d="M79.3447 222.299C75.0895 230.04 77.1218 239.32 77.1218 239.32C77.1218 239.32 86.0533 236.051 90.3086 228.311C94.5638 220.571 92.5315 211.291 92.5315 211.291C92.5315 211.291 83.6 214.559 79.3447 222.299Z" fill="#323C55"/>
<path d="M83.0614 223.329C83.3492 232.154 77.3321 239.512 77.3321 239.512C77.3321 239.512 70.8483 232.561 70.5605 223.736C70.2728 214.911 76.2899 207.553 76.2899 207.553C76.2899 207.553 82.7737 214.504 83.0614 223.329Z" fill="#11BEB9"/>
<path d="M76.2738 274.921C83.8768 274.921 90.0403 268.766 90.0403 261.174C90.0403 253.581 83.8768 247.426 76.2738 247.426C68.6708 247.426 62.5073 253.581 62.5073 261.174C62.5073 268.766 68.6708 274.921 76.2738 274.921Z" fill="#F2F2F2"/>
<path d="M80.7385 258.945C83.2043 258.945 85.2033 256.948 85.2033 254.486C85.2033 252.023 83.2043 250.027 80.7385 250.027C78.2726 250.027 76.2737 252.023 76.2737 254.486C76.2737 256.948 78.2726 258.945 80.7385 258.945Z" fill="#323C55"/>
<path d="M143.246 290.527H3.7207V291.27H143.246V290.527Z" fill="#2F2E41"/>
<path d="M348.999 292.013H209.474V292.757H348.999V292.013Z" fill="#2F2E41"/>
<path d="M35.6767 291.069L35.0154 290.728C43.6035 274.148 39.0111 252.615 33.6467 237.472C30.0041 227.293 25.358 217.501 19.7769 208.239L20.4058 207.842C26.0159 217.151 30.6862 226.993 34.348 237.223C39.7618 252.506 44.3865 274.253 35.6767 291.069Z" fill="#2F2E41"/>
<path d="M42.0446 207.975L37.2173 234.357L37.9491 234.491L42.7764 208.108L42.0446 207.975Z" fill="#2F2E41"/>
<path d="M9.94632 230.453L9.40137 230.959L34.3297 257.711L34.8747 257.205L9.94632 230.453Z" fill="#2F2E41"/>
<path d="M54.7616 259.839L42.1172 277.307L42.7203 277.742L55.3647 260.275L54.7616 259.839Z" fill="#2F2E41"/>
<path d="M44.2758 200.981C46.3307 200.981 47.9965 199.317 47.9965 197.265C47.9965 195.213 46.3307 193.55 44.2758 193.55C42.221 193.55 40.5552 195.213 40.5552 197.265C40.5552 199.317 42.221 200.981 44.2758 200.981Z" fill="#10CFC9"/>
<path d="M3.72067 229.591C5.77554 229.591 7.44133 227.928 7.44133 225.876C7.44133 223.823 5.77554 222.16 3.72067 222.16C1.6658 222.16 0 223.823 0 225.876C0 227.928 1.6658 229.591 3.72067 229.591Z" fill="#323C55"/>
<path d="M20.0913 233.307C22.1461 233.307 23.8119 231.643 23.8119 229.591C23.8119 227.539 22.1461 225.875 20.0913 225.875C18.0364 225.875 16.3706 227.539 16.3706 229.591C16.3706 231.643 18.0364 233.307 20.0913 233.307Z" fill="#323C55"/>
<path d="M12.6504 247.798C14.7052 247.798 16.371 246.134 16.371 244.082C16.371 242.03 14.7052 240.366 12.6504 240.366C10.5955 240.366 8.92969 242.03 8.92969 244.082C8.92969 246.134 10.5955 247.798 12.6504 247.798Z" fill="#10CFC9"/>
<path d="M59.1584 257.087C61.2133 257.087 62.8791 255.423 62.8791 253.371C62.8791 251.319 61.2133 249.656 59.1584 249.656C57.1035 249.656 55.4377 251.319 55.4377 253.371C55.4377 255.423 57.1035 257.087 59.1584 257.087Z" fill="#323C55"/>
<path d="M46.8803 261.174C48.9352 261.174 50.601 259.51 50.601 257.458C50.601 255.406 48.9352 253.743 46.8803 253.743C44.8255 253.743 43.1597 255.406 43.1597 257.458C43.1597 259.51 44.8255 261.174 46.8803 261.174Z" fill="#323C55"/>
<path d="M55.4382 273.064C57.4931 273.064 59.1589 271.4 59.1589 269.348C59.1589 267.296 57.4931 265.633 55.4382 265.633C53.3833 265.633 51.7175 267.296 51.7175 269.348C51.7175 271.4 53.3833 273.064 55.4382 273.064Z" fill="#323C55"/>
<path d="M16.3711 205.44C18.4259 205.44 20.0917 203.776 20.0917 201.724C20.0917 199.672 18.4259 198.009 16.3711 198.009C14.3162 198.009 12.6504 199.672 12.6504 201.724C12.6504 203.776 14.3162 205.44 16.3711 205.44Z" fill="#323C55"/>
<path d="M255.46 66.5984H76.1235V173.979H255.46V66.5984Z" fill="#323C55"/>
<path d="M83.1929 72.5432C84.2203 72.5432 85.0532 71.7115 85.0532 70.6854C85.0532 69.6594 84.2203 68.8276 83.1929 68.8276C82.1654 68.8276 81.3325 69.6594 81.3325 70.6854C81.3325 71.7115 82.1654 72.5432 83.1929 72.5432Z" fill="#10CFC9"/>
<path d="M89.8901 72.5432C90.9176 72.5432 91.7505 71.7115 91.7505 70.6854C91.7505 69.6594 90.9176 68.8276 89.8901 68.8276C88.8627 68.8276 88.0298 69.6594 88.0298 70.6854C88.0298 71.7115 88.8627 72.5432 89.8901 72.5432Z" fill="#10CFC9"/>
<path d="M96.5874 72.5432C97.6148 72.5432 98.4477 71.7115 98.4477 70.6854C98.4477 69.6594 97.6148 68.8276 96.5874 68.8276C95.56 68.8276 94.7271 69.6594 94.7271 70.6854C94.7271 71.7115 95.56 72.5432 96.5874 72.5432Z" fill="#10CFC9"/>
<path d="M255.46 74.8403H76.2737V75.5835H255.46V74.8403Z" fill="#2F2E41"/>
<path d="M180.674 96.6946V130.135H131.997L123.004 140.91L124.031 130.135H119.656V96.6946H180.674Z" fill="#10CFC9"/>
<path opacity="0.1" d="M180.674 108.213H158.722V130.135H180.674V108.213Z" fill="black"/>
<path d="M163.559 113.043H224.578V146.484H220.202L221.23 157.259L212.238 146.484H163.559V113.043Z" fill="#EFF2FA"/>
<path opacity="0.1" d="M123.376 146.302C130.773 146.302 136.77 145.718 136.77 144.997C136.77 144.277 130.773 143.692 123.376 143.692C115.978 143.692 109.981 144.277 109.981 144.997C109.981 145.718 115.978 146.302 123.376 146.302Z" fill="black"/>
<path opacity="0.1" d="M221.23 163.947C229.655 163.947 236.484 163.282 236.484 162.461C236.484 161.64 229.655 160.975 221.23 160.975C212.805 160.975 205.975 161.64 205.975 162.461C205.975 163.282 212.805 163.947 221.23 163.947Z" fill="black"/>
</svg>
