<svg width="217" height="213" viewBox="0 0 217 213" fill="none" xmlns="http://www.w3.org/2000/svg">
<path d="M202.626 89.0402L216.987 80.9153C217.18 72.2224 215.259 63.6135 211.389 55.8359C208.078 70.9311 190.653 78.1129 182.614 91.2929C180.138 95.4229 178.619 100.06 178.169 104.86C177.72 109.66 178.351 114.5 180.017 119.021L179.072 130.725C186.495 128.492 193.346 124.669 199.156 119.52C204.966 114.37 209.595 108.017 212.725 100.898C214.442 96.8864 215.649 92.6737 216.317 88.3594C209.621 89.0751 202.626 89.0402 202.626 89.0402Z" fill="#EFF2FA"/>
<path d="M14.374 89.0402L0.0133199 80.9153C-0.18039 72.2224 1.74129 63.6135 5.6115 55.8359C8.92243 70.9311 26.3467 78.1129 34.3861 91.2929C36.8621 95.4229 38.3812 100.06 38.8308 104.86C39.2803 109.66 38.6489 114.5 36.9831 119.021L37.9276 130.725C30.5055 128.492 23.6535 124.669 17.8438 119.52C12.0341 114.37 7.40482 108.017 4.27482 100.898C2.5583 96.8864 1.3515 92.6737 0.682917 88.3594C7.3785 89.0751 14.374 89.0402 14.374 89.0402Z" fill="#EFF2FA"/>
<path d="M183.86 101.383H33.2136C30.86 101.385 28.6035 102.322 26.9393 103.987C25.275 105.653 24.3388 107.911 24.3362 110.266V204.115C24.3389 206.47 25.275 208.728 26.9393 210.393C28.6035 212.059 30.86 212.995 33.2136 212.998H183.86C186.214 212.996 188.47 212.059 190.135 210.394C191.799 208.728 192.735 206.47 192.738 204.115V110.266C192.735 107.911 191.799 105.653 190.135 103.987C188.47 102.322 186.214 101.385 183.86 101.383Z" fill="#10CFC9"/>
<path d="M183.86 101.383H33.2136C30.86 101.385 28.6035 102.322 26.9393 103.987C25.275 105.653 24.3388 107.911 24.3362 110.266V204.115C24.3389 206.47 25.275 208.728 26.9393 210.393C28.6035 212.059 30.86 212.995 33.2136 212.998H183.86C186.214 212.996 188.47 212.059 190.135 210.394C191.799 208.728 192.735 206.47 192.738 204.115V110.266C192.735 107.911 191.799 105.653 190.135 103.987C188.47 102.322 186.214 101.385 183.86 101.383ZM186.774 168.796C186.738 178.351 182.961 187.51 176.253 194.31C169.545 201.11 160.441 205.009 150.894 205.17C135.608 205.369 159.352 205.447 140.916 205.447C98.7589 205.447 54.8011 205.044 38.4 204.782C36.2421 204.738 34.1871 203.851 32.6737 202.311C31.1604 200.771 30.3086 198.7 30.3003 196.541V110.273C30.3011 109.499 30.6081 108.758 31.1539 108.21C31.6998 107.663 32.4401 107.354 33.213 107.351H183.854C184.627 107.352 185.368 107.659 185.915 108.205C186.462 108.751 186.771 109.492 186.774 110.265V168.796Z" fill="#323C55"/>
<path d="M165.316 47.3438H50.5388C49.5233 47.3452 48.5329 47.6602 47.703 48.2458C46.8731 48.8314 46.244 49.6591 45.9016 50.6157L28.1751 100.379C27.9106 101.122 27.8281 101.917 27.9346 102.699C28.0411 103.48 28.3335 104.224 28.7872 104.869C29.2409 105.514 29.8426 106.04 30.5418 106.404C31.2411 106.767 32.0173 106.958 32.8054 106.959L186.74 107.232H186.747C187.562 107.232 188.363 107.03 189.081 106.644C189.798 106.257 190.408 105.699 190.857 105.018C191.305 104.337 191.578 103.556 191.65 102.744C191.723 101.932 191.593 101.115 191.272 100.366L191.003 100.481L191.272 100.366L169.841 50.3293C169.462 49.4427 168.831 48.6871 168.026 48.1563C167.222 47.6256 166.279 47.343 165.316 47.3438Z" fill="#323C55"/>
<path d="M191.67 101.447C191.67 102.114 191.534 102.775 191.272 103.388L169.842 141.905C169.46 142.789 168.829 143.543 168.025 144.073C167.22 144.603 166.279 144.886 165.316 144.887H50.5408C49.5249 144.886 48.534 144.571 47.7034 143.986C46.8728 143.401 46.2429 142.574 45.8996 141.617L28.1765 103.375C27.9592 102.765 27.8641 102.119 27.8966 101.473C27.929 100.827 28.0884 100.194 28.3656 99.6095C28.6428 99.0251 29.0324 98.5011 29.5121 98.0675C29.9918 97.6339 30.5522 97.2991 31.1613 97.0823C31.6882 96.8919 32.2441 96.7945 32.8043 96.7943L51.608 96.7588L59.2827 96.7455L160.272 96.5683L167.951 96.555L186.741 96.5195H186.746C188.052 96.5197 189.304 97.039 190.228 97.963C191.151 98.8871 191.67 100.14 191.67 101.447Z" fill="#323C55"/>
<path d="M44.5073 171.781C46.7833 171.781 78.0377 173.693 78.0377 175.97C78.0377 178.247 46.7833 180.028 44.5073 180.028C43.4143 180.028 42.3661 179.594 41.5932 178.821C40.8204 178.047 40.3862 176.998 40.3862 175.905C40.3862 174.811 40.8204 173.762 41.5932 172.989C42.3661 172.216 43.4143 171.781 44.5073 171.781Z" fill="#323C55"/>
<path d="M158.168 17.0703H61.3909C58.7972 17.0733 56.3107 18.1056 54.4768 19.9407C52.6428 21.7758 51.6112 24.2638 51.6082 26.859V144.887H165.316C166.25 144.89 167.165 144.623 167.951 144.12V26.859C167.948 24.2638 166.916 21.7758 165.083 19.9407C163.249 18.1056 160.762 17.0733 158.168 17.0703Z" fill="#EFF2FA"/>
<path d="M121.23 25.0078H68.1933C65.8316 25.0101 63.5672 25.9496 61.8968 27.6202C60.2264 29.2907 59.2864 31.556 59.283 33.9192V144.888H160.272V64.0741C160.26 53.7168 156.143 43.787 148.824 36.4633C141.504 29.1395 131.581 25.0198 121.23 25.0078Z" fill="white"/>
<path d="M143.067 135.031H76.4879C75.9123 135.031 75.3604 135.26 74.9535 135.667C74.5465 136.074 74.3179 136.627 74.3179 137.203C74.3179 137.778 74.5465 138.331 74.9535 138.738C75.3604 139.145 75.9123 139.374 76.4879 139.374H143.067C143.643 139.374 144.194 139.145 144.601 138.738C145.008 138.331 145.237 137.778 145.237 137.203C145.237 136.627 145.008 136.074 144.601 135.667C144.194 135.26 143.643 135.031 143.067 135.031Z" fill="#EFF2FA"/>
<path d="M143.067 126.445H76.4876C75.9115 126.445 75.359 126.674 74.9517 127.082C74.5443 127.49 74.3154 128.042 74.3154 128.619C74.3154 129.195 74.5443 129.748 74.9517 130.156C75.359 130.563 75.9115 130.792 76.4876 130.792H143.067C143.643 130.792 144.195 130.563 144.603 130.156C145.01 129.748 145.239 129.195 145.239 128.619C145.239 128.042 145.01 127.49 144.603 127.082C144.195 126.674 143.643 126.445 143.067 126.445Z" fill="#EFF2FA"/>
<path d="M105.349 117.859H76.4879C75.9123 117.859 75.3604 118.088 74.9535 118.495C74.5465 118.903 74.3179 119.455 74.3179 120.031C74.3179 120.607 74.5465 121.159 74.9535 121.566C75.3604 121.973 75.9123 122.202 76.4879 122.202H105.349C105.924 122.202 106.476 121.973 106.883 121.566C107.29 121.159 107.519 120.607 107.519 120.031C107.519 119.455 107.29 118.903 106.883 118.495C106.476 118.088 105.924 117.859 105.349 117.859Z" fill="#EFF2FA"/>
<path d="M143.067 99.875H76.4876C75.9115 99.875 75.359 100.104 74.9517 100.512C74.5443 100.919 74.3154 101.472 74.3154 102.049C74.3154 102.625 74.5443 103.178 74.9517 103.585C75.359 103.993 75.9115 104.222 76.4876 104.222H143.067C143.643 104.222 144.195 103.993 144.603 103.585C145.01 103.178 145.239 102.625 145.239 102.049C145.239 101.472 145.01 100.919 144.603 100.512C144.195 100.104 143.643 99.875 143.067 99.875Z" fill="#EFF2FA"/>
<path d="M143.067 91.293H76.4879C75.9123 91.293 75.3604 91.5217 74.9535 91.9289C74.5465 92.3361 74.3179 92.8884 74.3179 93.4643C74.3179 94.0402 74.5465 94.5925 74.9535 94.9997C75.3604 95.4069 75.9123 95.6356 76.4879 95.6356H143.067C143.643 95.6356 144.194 95.4069 144.601 94.9997C145.008 94.5925 145.237 94.0402 145.237 93.4643C145.237 92.8884 145.008 92.3361 144.601 91.9289C144.194 91.5217 143.643 91.293 143.067 91.293Z" fill="#EFF2FA"/>
<path d="M105.349 82.707H76.4876C75.9115 82.707 75.359 82.936 74.9517 83.3437C74.5443 83.7513 74.3154 84.3041 74.3154 84.8806C74.3154 85.457 74.5443 86.0099 74.9517 86.4175C75.359 86.8251 75.9115 87.0541 76.4876 87.0541H105.349C105.925 87.0541 106.477 86.8251 106.885 86.4175C107.292 86.0099 107.521 85.457 107.521 84.8806C107.521 84.3041 107.292 83.7513 106.885 83.3437C106.477 82.936 105.925 82.707 105.349 82.707Z" fill="#EFF2FA"/>
<path d="M143.067 64.7266H76.4876C75.9115 64.7266 75.359 64.9556 74.9517 65.3632C74.5443 65.7708 74.3154 66.3237 74.3154 66.9001C74.3154 67.4766 74.5443 68.0294 74.9517 68.437C75.359 68.8447 75.9115 69.0737 76.4876 69.0737H143.067C143.643 69.0737 144.195 68.8447 144.603 68.437C145.01 68.0294 145.239 67.4766 145.239 66.9001C145.239 66.3237 145.01 65.7708 144.603 65.3632C144.195 64.9556 143.643 64.7266 143.067 64.7266Z" fill="#10CFC9"/>
<path d="M143.067 56.1406H76.4876C75.9115 56.1406 75.359 56.3696 74.9517 56.7772C74.5443 57.1849 74.3154 57.7377 74.3154 58.3142C74.3154 58.8906 74.5443 59.4435 74.9517 59.8511C75.359 60.2587 75.9115 60.4877 76.4876 60.4877H143.067C143.643 60.4877 144.195 60.2587 144.603 59.8511C145.01 59.4435 145.239 58.8906 145.239 58.3142C145.239 57.7377 145.01 57.1849 144.603 56.7772C144.195 56.3696 143.643 56.1406 143.067 56.1406Z" fill="#10CFC9"/>
<path d="M105.349 47.5547H76.4876C75.9115 47.5547 75.359 47.7837 74.9517 48.1913C74.5443 48.5989 74.3154 49.1518 74.3154 49.7282C74.3154 50.3047 74.5443 50.8575 74.9517 51.2652C75.359 51.6728 75.9115 51.9018 76.4876 51.9018H105.349C105.925 51.9018 106.477 51.6728 106.885 51.2652C107.292 50.8575 107.521 50.3047 107.521 49.7282C107.521 49.1518 107.292 48.5989 106.885 48.1913C106.477 47.7837 105.925 47.5547 105.349 47.5547Z" fill="#10CFC9"/>
<path d="M164.323 33.8221C173.657 33.8221 181.223 26.2508 181.223 16.9111C181.223 7.57134 173.657 0 164.323 0C154.989 0 147.422 7.57134 147.422 16.9111C147.422 26.2508 154.989 33.8221 164.323 33.8221Z" fill="#10CFC9"/>
<path d="M162.017 25.7125C161.725 25.7125 161.437 25.6445 161.176 25.5139C160.915 25.3833 160.688 25.1936 160.513 24.9599L155.903 18.8084C155.754 18.6108 155.645 18.3858 155.583 18.1462C155.521 17.9066 155.507 17.6571 155.542 17.4121C155.577 17.1671 155.659 16.9313 155.785 16.7183C155.911 16.5053 156.078 16.3192 156.275 16.1707C156.473 16.0223 156.699 15.9143 156.938 15.8531C157.178 15.7918 157.427 15.7785 157.672 15.8138C157.917 15.8492 158.152 15.9325 158.365 16.059C158.577 16.1855 158.763 16.3528 158.91 16.5512L161.927 20.5754L169.675 8.94706C169.951 8.53194 170.381 8.24376 170.87 8.14591C171.359 8.04807 171.867 8.14858 172.282 8.42532C172.696 8.70207 172.984 9.13239 173.082 9.62162C173.18 10.1108 173.08 10.6189 172.803 11.034L163.581 24.8748C163.415 25.1251 163.19 25.3318 162.927 25.4774C162.664 25.6231 162.37 25.7035 162.069 25.7119C162.052 25.7122 162.035 25.7125 162.017 25.7125Z" fill="white"/>
</svg>
