<svg width="121" height="127" viewBox="0 0 121 127" fill="none" xmlns="http://www.w3.org/2000/svg">
<path d="M72.3786 41.7227H2.52424C2.19293 41.7222 1.86476 41.787 1.55853 41.9133C1.2523 42.0397 0.973997 42.2251 0.739553 42.459C0.505108 42.693 0.319104 42.9708 0.192205 43.2766C0.0653049 43.5824 0 43.9103 0 44.2413C0 44.5724 0.0653049 44.9002 0.192205 45.2061C0.319104 45.5119 0.505108 45.7897 0.739553 46.0236C0.973997 46.2576 1.2523 46.443 1.55853 46.5694C1.86476 46.6957 2.19293 46.7605 2.52424 46.76H72.3786C73.0471 46.76 73.6882 46.4947 74.1609 46.0223C74.6336 45.55 74.8991 44.9093 74.8991 44.2413C74.8991 43.5733 74.6336 42.9327 74.1609 42.4604C73.6882 41.988 73.0471 41.7227 72.3786 41.7227Z" fill="#9CABCE"/>
<path d="M72.3786 79.8633H2.52424C1.85576 79.8633 1.21464 80.1286 0.741947 80.601C0.269258 81.0733 0.00372314 81.714 0.00372314 82.382C0.00372314 83.05 0.269258 83.6906 0.741947 84.1629C1.21464 84.6353 1.85576 84.9006 2.52424 84.9006H72.3786C73.0471 84.9006 73.6882 84.6353 74.1609 84.1629C74.6335 83.6906 74.8991 83.05 74.8991 82.382C74.8991 81.714 74.6335 81.0733 74.1609 80.601C73.6882 80.1286 73.0471 79.8633 72.3786 79.8633Z" fill="#9CABCE"/>
<path d="M72.3786 118.004H2.52424C1.85576 118.004 1.21464 118.269 0.741947 118.742C0.269259 119.214 0.00372314 119.855 0.00372314 120.523C0.00372314 121.191 0.269259 121.831 0.741947 122.304C1.21464 122.776 1.85576 123.041 2.52424 123.041H72.3786C73.047 123.041 73.6882 122.776 74.1609 122.304C74.6335 121.831 74.8991 121.191 74.8991 120.523C74.8991 119.855 74.6335 119.214 74.1609 118.742C73.6882 118.269 73.047 118.004 72.3786 118.004Z" fill="#9CABCE"/>
<path d="M114.705 50.7205C118.182 50.7205 121 47.9044 121 44.4305C121 40.9567 118.182 38.1406 114.705 38.1406C111.229 38.1406 108.411 40.9567 108.411 44.4305C108.411 47.9044 111.229 50.7205 114.705 50.7205Z" fill="#9CABCE"/>
<path d="M113.847 47.7036C113.738 47.7036 113.631 47.6783 113.534 47.6297C113.436 47.5811 113.352 47.5106 113.287 47.4237L111.569 45.1356C111.514 45.0621 111.474 44.9785 111.451 44.8894C111.428 44.8004 111.423 44.7077 111.436 44.6166C111.449 44.5256 111.48 44.438 111.526 44.3589C111.573 44.2797 111.635 44.2106 111.709 44.1554C111.783 44.1003 111.866 44.0601 111.955 44.0374C112.045 44.0146 112.137 44.0096 112.228 44.0226C112.32 44.0357 112.407 44.0666 112.486 44.1135C112.565 44.1604 112.635 44.2225 112.69 44.2961L113.813 45.7929L116.699 41.4678C116.802 41.3134 116.962 41.2062 117.144 41.1698C117.326 41.1334 117.515 41.1708 117.67 41.2738C117.824 41.3767 117.931 41.5367 117.968 41.7187C118.004 41.9007 117.967 42.0897 117.864 42.2441L114.429 47.392C114.367 47.4851 114.284 47.562 114.186 47.6161C114.088 47.6703 113.978 47.7002 113.866 47.7034L113.847 47.7036Z" fill="white"/>
<path d="M114.705 88.8572C118.182 88.8572 121 86.0411 121 82.5673C121 79.0934 118.182 76.2773 114.705 76.2773C111.229 76.2773 108.411 79.0934 108.411 82.5673C108.411 86.0411 111.229 88.8572 114.705 88.8572Z" fill="#9CABCE"/>
<path d="M113.847 85.8442C113.738 85.8442 113.631 85.8189 113.534 85.7703C113.436 85.7217 113.352 85.6512 113.287 85.5643L111.569 83.2763C111.514 83.2028 111.474 83.1191 111.451 83.03C111.428 82.941 111.423 82.8483 111.436 82.7573C111.449 82.6662 111.48 82.5786 111.526 82.4995C111.573 82.4204 111.635 82.3512 111.709 82.2961C111.783 82.2409 111.866 82.2008 111.955 82.178C112.045 82.1552 112.137 82.1502 112.228 82.1632C112.32 82.1763 112.407 82.2072 112.486 82.2541C112.565 82.301 112.635 82.3631 112.69 82.4367L113.813 83.9335L116.699 79.6084C116.75 79.532 116.815 79.4663 116.892 79.4152C116.968 79.3641 117.054 79.3285 117.144 79.3105C117.234 79.2924 117.327 79.2923 117.417 79.3102C117.507 79.328 117.593 79.3634 117.67 79.4144C117.746 79.4654 117.812 79.5309 117.863 79.6072C117.914 79.6836 117.95 79.7692 117.968 79.8593C117.986 79.9494 117.986 80.0422 117.968 80.1323C117.95 80.2225 117.915 80.3082 117.864 80.3847L114.429 85.5326C114.367 85.6257 114.284 85.7026 114.186 85.7568C114.088 85.8109 113.978 85.8408 113.866 85.844L113.847 85.8442Z" fill="white"/>
<path d="M114.705 126.998C118.182 126.998 121 124.182 121 120.708C121 117.234 118.182 114.418 114.705 114.418C111.229 114.418 108.411 117.234 108.411 120.708C108.411 124.182 111.229 126.998 114.705 126.998Z" fill="#9CABCE"/>
<path d="M72.3786 3.58594H2.52424C1.85576 3.58594 1.21464 3.85131 0.741947 4.32366C0.269258 4.796 0.00372314 5.43662 0.00372314 6.10461C0.00372314 6.77261 0.269258 7.41325 0.741947 7.88559C1.21464 8.35793 1.85576 8.62331 2.52424 8.62331H72.3786C73.0471 8.62331 73.6882 8.35793 74.1609 7.88559C74.6335 7.41325 74.8991 6.77261 74.8991 6.10461C74.8991 5.43662 74.6335 4.796 74.1609 4.32366C73.6882 3.85131 73.0471 3.58594 72.3786 3.58594Z" fill="#9CABCE"/>
<path d="M114.705 12.5798C118.182 12.5798 121 9.76374 121 6.28992C121 2.81609 118.182 0 114.705 0C111.229 0 108.411 2.81609 108.411 6.28992C108.411 9.76374 111.229 12.5798 114.705 12.5798Z" fill="#10CFC9"/>
<path d="M93.8212 12.5798C97.2975 12.5798 100.116 9.76374 100.116 6.28992C100.116 2.81609 97.2975 0 93.8212 0C90.3448 0 87.5266 2.81609 87.5266 6.28992C87.5266 9.76374 90.3448 12.5798 93.8212 12.5798Z" fill="#9CABCE"/>
<path d="M93.8212 50.7205C97.2975 50.7205 100.116 47.9044 100.116 44.4305C100.116 40.9567 97.2975 38.1406 93.8212 38.1406C90.3448 38.1406 87.5266 40.9567 87.5266 44.4305C87.5266 47.9044 90.3448 50.7205 93.8212 50.7205Z" fill="#9CABCE"/>
<path d="M93.8212 88.8572C97.2975 88.8572 100.116 86.0411 100.116 82.5673C100.116 79.0934 97.2975 76.2773 93.8212 76.2773C90.3448 76.2773 87.5266 79.0934 87.5266 82.5673C87.5266 86.0411 90.3448 88.8572 93.8212 88.8572Z" fill="#9CABCE"/>
<path d="M93.8212 126.998C97.2975 126.998 100.116 124.182 100.116 120.708C100.116 117.234 97.2975 114.418 93.8212 114.418C90.3448 114.418 87.5266 117.234 87.5266 120.708C87.5266 124.182 90.3448 126.998 93.8212 126.998Z" fill="#9CABCE"/>
<path d="M113.847 123.985C113.738 123.985 113.631 123.96 113.534 123.911C113.436 123.862 113.352 123.792 113.287 123.705L111.569 121.417C111.514 121.343 111.474 121.26 111.451 121.171C111.428 121.082 111.423 120.989 111.436 120.898C111.449 120.807 111.48 120.72 111.527 120.641C111.574 120.562 111.636 120.493 111.709 120.437C111.783 120.382 111.867 120.342 111.956 120.319C112.045 120.297 112.138 120.292 112.229 120.305C112.32 120.318 112.407 120.348 112.486 120.395C112.565 120.442 112.635 120.504 112.69 120.577L113.813 122.074L116.699 117.749C116.802 117.595 116.962 117.487 117.144 117.451C117.326 117.415 117.515 117.452 117.67 117.555C117.824 117.658 117.931 117.818 117.968 118C118.004 118.182 117.967 118.371 117.864 118.525L114.429 123.673C114.367 123.766 114.284 123.843 114.186 123.897C114.088 123.952 113.978 123.981 113.866 123.985L113.847 123.985Z" fill="white"/>
<path d="M113.99 9.81296C113.882 9.81296 113.774 9.78768 113.677 9.73909C113.58 9.6905 113.495 9.61994 113.43 9.53303L111.713 7.24501C111.658 7.1715 111.618 7.08786 111.595 6.99885C111.572 6.90985 111.567 6.81723 111.58 6.72628C111.593 6.63532 111.624 6.54781 111.671 6.46875C111.718 6.38969 111.78 6.32063 111.853 6.2655C111.927 6.21038 112.01 6.17028 112.099 6.14748C112.189 6.12468 112.281 6.11963 112.372 6.13262C112.463 6.14562 112.551 6.17641 112.63 6.22323C112.709 6.27004 112.778 6.33196 112.833 6.40547L113.957 7.90223L116.842 3.5772C116.893 3.50075 116.959 3.43508 117.035 3.38396C117.112 3.33283 117.197 3.29723 117.288 3.27921C117.378 3.26119 117.471 3.2611 117.561 3.27893C117.651 3.29676 117.737 3.33218 117.813 3.38314C117.89 3.43411 117.956 3.49963 118.007 3.57597C118.058 3.65232 118.093 3.73799 118.111 3.82808C118.13 3.91818 118.13 4.01096 118.112 4.10109C118.094 4.19123 118.058 4.27697 118.007 4.35342L114.573 9.50138C114.511 9.59449 114.427 9.67134 114.329 9.72551C114.231 9.77969 114.122 9.8096 114.01 9.81273L113.99 9.81296Z" fill="white"/>
</svg>
