<svg width="182" height="164" viewBox="0 0 182 164" fill="none" xmlns="http://www.w3.org/2000/svg">
<g clip-path="url(#clip0_1061_20030)">
<path d="M39.3442 50.4961C38.8559 50.4961 38.3877 50.692 38.0424 51.0407C37.6971 51.3894 37.5032 51.8623 37.5032 52.3554C37.5032 52.8485 37.6971 53.3214 38.0424 53.6701C38.3877 54.0188 38.8559 54.2147 39.3442 54.2147H62.4861V53.4036C62.4861 52.8272 62.6278 52.2597 62.8985 51.7522C63.1692 51.2448 63.5605 50.8131 64.0372 50.4961H39.3442Z" fill="white"/>
<path d="M60.4021 46.3163H52.5776C52.0893 46.3163 51.6211 46.1204 51.2758 45.7717C50.9305 45.423 50.7366 44.9501 50.7366 44.457C50.7366 43.9638 50.9305 43.4909 51.2758 43.1422C51.6211 42.7935 52.0893 42.5977 52.5776 42.5977H60.4021C60.8903 42.5977 61.3586 42.7935 61.7039 43.1422C62.0491 43.4909 62.2431 43.9638 62.2431 44.457C62.2431 44.9501 62.0491 45.423 61.7039 45.7717C61.3586 46.1204 60.8903 46.3163 60.4021 46.3163Z" fill="white"/>
<path d="M42.8536 33.0663H12.4763C11.988 33.0663 11.5197 32.8704 11.1745 32.5217C10.8292 32.173 10.6353 31.7001 10.6353 31.207C10.6353 30.7138 10.8292 30.2409 11.1745 29.8922C11.5197 29.5435 11.988 29.3477 12.4763 29.3477H42.8536C43.3418 29.3477 43.8101 29.5435 44.1554 29.8922C44.5006 30.2409 44.6946 30.7138 44.6946 31.207C44.6946 31.7001 44.5006 32.173 44.1554 32.5217C43.8101 32.8704 43.3418 33.0663 42.8536 33.0663Z" fill="white"/>
<path d="M29.6209 25.1639H25.7087C25.2204 25.1639 24.7522 24.968 24.4069 24.6194C24.0616 24.2707 23.8677 23.7977 23.8677 23.3046C23.8677 22.8115 24.0616 22.3386 24.4069 21.9899C24.7522 21.6412 25.2204 21.4453 25.7087 21.4453H29.6209C30.1092 21.4453 30.5775 21.6412 30.9227 21.9899C31.268 22.3386 31.462 22.8115 31.462 23.3046C31.462 23.7977 31.268 24.2707 30.9227 24.6194C30.5775 24.968 30.1092 25.1639 29.6209 25.1639Z" fill="white"/>
<path d="M62.255 87.8926H33.618C32.5808 87.8914 31.5864 87.4747 30.853 86.734C30.1195 85.9933 29.707 84.9891 29.7058 83.9415V38.1932C29.707 37.1457 30.1195 36.1414 30.853 35.4007C31.5864 34.66 32.5808 34.2434 33.618 34.2422H79.3619C80.3991 34.2434 81.3936 34.66 82.127 35.4007C82.8604 36.1414 83.273 37.1457 83.2741 38.1932V49.5321H82.8139V38.1932C82.8128 37.2689 82.4488 36.3828 81.8017 35.7293C81.1545 35.0757 80.2771 34.7081 79.3619 34.707H33.618C32.7028 34.7081 31.8254 35.0757 31.1783 35.7293C30.5311 36.3828 30.1671 37.2689 30.1661 38.1932V83.9415C30.1671 84.8658 30.5311 85.7519 31.1783 86.4055C31.8254 87.0591 32.7028 87.4267 33.618 87.4277H62.255V87.8926Z" fill="#9CABCE"/>
<path d="M29.9359 60.5043H9.0609C8.02367 60.5031 7.02927 60.0864 6.29584 59.3457C5.56241 58.605 5.14985 57.6007 5.14868 56.5532V19.3534C5.14985 18.3059 5.56241 17.3016 6.29584 16.5609C7.02927 15.8202 8.02367 15.4035 9.0609 15.4023H46.2687C47.306 15.4035 48.3004 15.8202 49.0338 16.5609C49.7672 17.3016 50.1798 18.3059 50.1809 19.3534V34.473H49.7207V19.3534C49.7197 18.4291 49.3556 17.543 48.7085 16.8894C48.0614 16.2358 47.1839 15.8682 46.2687 15.8672H9.0609C8.1457 15.8682 7.26829 16.2358 6.62114 16.8894C5.974 17.543 5.60998 18.4291 5.60894 19.3534V56.5532C5.60998 57.4775 5.974 58.3636 6.62114 59.0172C7.26829 59.6707 8.1457 60.0384 9.0609 60.0394H29.9359V60.5043Z" fill="#9CABCE"/>
<path d="M123.112 50.4961C123.588 50.8131 123.98 51.2448 124.25 51.7522C124.521 52.2597 124.663 52.8272 124.663 53.4036V54.2147H147.805C148.293 54.2147 148.761 54.0188 149.106 53.6701C149.452 53.3214 149.646 52.8485 149.646 52.3554C149.646 51.8623 149.452 51.3894 149.106 51.0407C148.761 50.692 148.293 50.4961 147.805 50.4961H123.112Z" fill="white"/>
<path d="M124.906 44.457C124.906 43.964 125.1 43.4914 125.445 43.1429C125.791 42.7943 126.258 42.5982 126.747 42.5977H134.571C135.059 42.5977 135.528 42.7935 135.873 43.1422C136.218 43.4909 136.412 43.9638 136.412 44.457C136.412 44.9501 136.218 45.423 135.873 45.7717C135.528 46.1204 135.059 46.3163 134.571 46.3163H126.747C126.258 46.3157 125.791 46.1196 125.445 45.7711C125.1 45.4225 124.906 44.9499 124.906 44.457Z" fill="white"/>
<path d="M142.454 31.207C142.455 30.714 142.649 30.2414 142.994 29.8929C143.339 29.5443 143.807 29.3482 144.295 29.3477H174.672C175.161 29.3477 175.629 29.5435 175.974 29.8922C176.319 30.2409 176.513 30.7138 176.513 31.207C176.513 31.7001 176.319 32.173 175.974 32.5217C175.629 32.8704 175.161 33.0663 174.672 33.0663H144.295C143.807 33.0657 143.339 32.8696 142.994 32.5211C142.649 32.1725 142.455 31.6999 142.454 31.207Z" fill="white"/>
<path d="M155.687 23.3046C155.687 22.8117 155.881 22.3391 156.227 21.9905C156.572 21.6419 157.04 21.4459 157.528 21.4453H161.44C161.928 21.4453 162.397 21.6412 162.742 21.9899C163.087 22.3386 163.281 22.8115 163.281 23.3046C163.281 23.7977 163.087 24.2707 162.742 24.6194C162.397 24.968 161.928 25.1639 161.44 25.1639H157.528C157.04 25.1634 156.572 24.9673 156.227 24.6187C155.881 24.2702 155.687 23.7976 155.687 23.3046Z" fill="white"/>
<path d="M124.894 87.8926H153.531C154.568 87.8914 155.562 87.4747 156.296 86.734C157.029 85.9933 157.442 84.9891 157.443 83.9415V38.1932C157.442 37.1457 157.029 36.1414 156.296 35.4007C155.562 34.66 154.568 34.2434 153.531 34.2422H107.787C106.75 34.2434 105.755 34.66 105.022 35.4007C104.288 36.1414 103.876 37.1457 103.875 38.1932V49.5321H104.335V38.1932C104.336 37.2689 104.7 36.3828 105.347 35.7293C105.994 35.0757 106.872 34.7081 107.787 34.707H153.531C154.446 34.7081 155.323 35.0757 155.97 35.7293C156.618 36.3828 156.982 37.2689 156.983 38.1932V83.9415C156.982 84.8658 156.618 85.7519 155.97 86.4055C155.323 87.0591 154.446 87.4267 153.531 87.4277H124.894V87.8926Z" fill="#9CABCE"/>
<path d="M157.213 60.5043H178.088C179.125 60.5031 180.119 60.0864 180.853 59.3457C181.586 58.605 181.999 57.6007 182 56.5532V19.3534C181.999 18.3059 181.586 17.3016 180.853 16.5609C180.119 15.8202 179.125 15.4035 178.088 15.4023H140.88C139.843 15.4035 138.848 15.8202 138.115 16.5609C137.381 17.3016 136.969 18.3059 136.968 19.3534V34.473H137.428V19.3534C137.429 18.4291 137.793 17.543 138.44 16.8894C139.087 16.2358 139.965 15.8682 140.88 15.8672H178.088C179.003 15.8682 179.88 16.2358 180.528 16.8894C181.175 17.543 181.539 18.4291 181.54 19.3534V56.5532C181.539 57.4775 181.175 58.3636 180.528 59.0172C179.88 59.6707 179.003 60.0384 178.088 60.0394H157.213V60.5043Z" fill="#9CABCE"/>
<path d="M121.114 49.4531H65.9381C64.9011 49.4552 63.9073 49.8721 63.174 50.6127C62.4408 51.3532 62.0279 52.3569 62.0259 53.4042V108.6C62.027 109.648 62.4395 110.652 63.1729 111.393C63.9064 112.133 64.9008 112.55 65.9381 112.551H121.114C122.151 112.55 123.146 112.133 123.879 111.393C124.613 110.652 125.025 109.648 125.026 108.6V53.4042C125.025 52.3566 124.613 51.3523 123.879 50.6116C123.146 49.8708 122.151 49.4542 121.114 49.4531V49.4531ZM124.566 108.6C124.565 109.524 124.201 110.41 123.554 111.064C122.907 111.718 122.029 112.085 121.114 112.086H65.9381C65.0229 112.085 64.1456 111.718 63.4984 111.064C62.8513 110.41 62.4873 109.524 62.4861 108.6V53.4042C62.4876 52.48 62.8517 51.5941 63.4988 50.9406C64.1458 50.2871 65.023 49.9194 65.9381 49.918H121.114C122.029 49.9191 122.907 50.2867 123.554 50.9403C124.201 51.5938 124.565 52.4799 124.566 53.4042V108.6Z" fill="#3F3D56"/>
<path d="M116.769 70.9491H70.2827C69.7944 70.9491 69.3261 70.7532 68.9809 70.4045C68.6356 70.0558 68.4417 69.5829 68.4417 69.0898C68.4417 68.5967 68.6356 68.1237 68.9809 67.775C69.3261 67.4264 69.7944 67.2305 70.2827 67.2305H116.769C117.257 67.2305 117.726 67.4264 118.071 67.775C118.416 68.1237 118.61 68.5967 118.61 69.0898C118.61 69.5829 118.416 70.0558 118.071 70.4045C117.726 70.7532 117.257 70.9491 116.769 70.9491Z" fill="#9CABCE"/>
<path d="M103.537 63.0468H83.5151C83.0268 63.0468 82.5586 62.8509 82.2133 62.5022C81.868 62.1535 81.6741 61.6806 81.6741 61.1874C81.6741 60.6943 81.868 60.2214 82.2133 59.8727C82.5586 59.524 83.0268 59.3281 83.5151 59.3281H103.537C104.025 59.3281 104.493 59.524 104.838 59.8727C105.184 60.2214 105.378 60.6943 105.378 61.1874C105.378 61.6806 105.184 62.1535 104.838 62.5022C104.493 62.8509 104.025 63.0468 103.537 63.0468Z" fill="#10CFC9"/>
<path d="M90.189 82.1053H70.1677C69.6794 82.1053 69.2112 81.9094 68.8659 81.5607C68.5206 81.2121 68.3267 80.7391 68.3267 80.246C68.3267 79.7529 68.5206 79.28 68.8659 78.9313C69.2112 78.5826 69.6794 78.3867 70.1677 78.3867H90.189C90.6773 78.3867 91.1456 78.5826 91.4909 78.9313C91.8361 79.28 92.0301 79.7529 92.0301 80.246C92.0301 80.7391 91.8361 81.2121 91.4909 81.5607C91.1456 81.9094 90.6773 82.1053 90.189 82.1053Z" fill="#9CABCE"/>
<path d="M90.189 90.2421H70.1677C69.6794 90.2421 69.2112 90.0462 68.8659 89.6975C68.5206 89.3488 68.3267 88.8759 68.3267 88.3828C68.3267 87.8896 68.5206 87.4167 68.8659 87.068C69.2112 86.7193 69.6794 86.5234 70.1677 86.5234H90.189C90.6773 86.5234 91.1456 86.7193 91.4909 87.068C91.8361 87.4167 92.0301 87.8896 92.0301 88.3828C92.0301 88.8759 91.8361 89.3488 91.4909 89.6975C91.1456 90.0462 90.6773 90.2421 90.189 90.2421Z" fill="#9CABCE"/>
<path d="M90.189 98.3749H70.1677C69.6794 98.3749 69.2112 98.179 68.8659 97.8303C68.5206 97.4816 68.3267 97.0087 68.3267 96.5156C68.3267 96.0224 68.5206 95.5495 68.8659 95.2008C69.2112 94.8521 69.6794 94.6562 70.1677 94.6562H90.189C90.6773 94.6562 91.1456 94.8521 91.4909 95.2008C91.8361 95.5495 92.0301 96.0224 92.0301 96.5156C92.0301 97.0087 91.8361 97.4816 91.4909 97.8303C91.1456 98.179 90.6773 98.3749 90.189 98.3749Z" fill="#9CABCE"/>
<path d="M115.16 83.7012C117.057 83.7012 118.595 82.1477 118.595 80.2314C118.595 78.3152 117.057 76.7617 115.16 76.7617C113.262 76.7617 111.724 78.3152 111.724 80.2314C111.724 82.1477 113.262 83.7012 115.16 83.7012Z" fill="#10CFC9"/>
<path d="M114.819 81.553C114.742 81.5531 114.666 81.5279 114.605 81.481L114.601 81.4781L113.793 80.8544C113.718 80.7959 113.668 80.7095 113.656 80.6142C113.643 80.5189 113.669 80.4226 113.727 80.3463C113.785 80.27 113.87 80.2201 113.965 80.2075C114.059 80.1949 114.154 80.2207 114.23 80.2792L114.753 80.6842L115.989 79.0559C116.017 79.0182 116.053 78.9865 116.094 78.9627C116.135 78.9389 116.18 78.9234 116.226 78.9172C116.273 78.911 116.321 78.9141 116.366 78.9264C116.412 78.9387 116.454 78.9599 116.492 78.9888L116.492 78.9889L116.484 78.9997L116.492 78.9889C116.567 79.0474 116.617 79.1338 116.629 79.229C116.642 79.3243 116.616 79.4206 116.558 79.4969L115.105 81.4112C115.071 81.4554 115.028 81.491 114.978 81.5155C114.929 81.54 114.874 81.5527 114.819 81.5525L114.819 81.553Z" fill="white"/>
<path d="M27.6648 10.7861C26.6086 10.7861 25.5762 10.4698 24.698 9.87723C23.8198 9.28463 23.1354 8.44235 22.7312 7.45689C22.327 6.47144 22.2213 5.38707 22.4273 4.34092C22.6334 3.29477 23.142 2.33382 23.8888 1.57959C24.6356 0.825355 25.5871 0.311718 26.623 0.103627C27.6589 -0.104463 28.7326 0.00233741 29.7084 0.410527C30.6841 0.818716 31.5182 1.50996 32.1049 2.39685C32.6917 3.28373 33.0049 4.32642 33.0049 5.39307C33.0033 6.82291 32.4401 8.19372 31.439 9.20476C30.4379 10.2158 29.0806 10.7845 27.6648 10.7861V10.7861ZM27.6648 0.46483C26.6996 0.464836 25.7562 0.753877 24.9537 1.2954C24.1512 1.83693 23.5258 2.60662 23.1564 3.50713C22.7871 4.40765 22.6904 5.39856 22.8787 6.35454C23.067 7.31052 23.5318 8.18865 24.2143 8.87787C24.8967 9.5671 25.7662 10.0365 26.7128 10.2266C27.6594 10.4168 28.6406 10.3192 29.5322 9.94617C30.4239 9.57316 31.186 8.9415 31.7222 8.13105C32.2584 7.32061 32.5446 6.36778 32.5446 5.39307C32.5432 4.08647 32.0286 2.83381 31.1137 1.9099C30.1989 0.985996 28.9585 0.466301 27.6648 0.46483V0.46483Z" fill="#9CABCE"/>
<path d="M27.1585 7.36246C27.0435 7.36265 26.9316 7.32509 26.8397 7.25544L26.834 7.25112L25.6331 6.32334C25.5774 6.28028 25.5308 6.22657 25.4957 6.16529C25.4606 6.10401 25.4378 6.03636 25.4287 5.96619C25.4195 5.89602 25.4241 5.82471 25.4422 5.75634C25.4603 5.68796 25.4916 5.62386 25.5342 5.56769C25.5769 5.51151 25.63 5.46437 25.6907 5.42896C25.7514 5.39354 25.8184 5.37054 25.8879 5.36128C25.9573 5.35201 26.0279 5.35665 26.0957 5.37494C26.1634 5.39323 26.2268 5.42481 26.2824 5.46787L27.0603 6.07029L28.8984 3.64847C28.941 3.59232 28.9942 3.5452 29.0549 3.5098C29.1155 3.47439 29.1825 3.4514 29.2519 3.44214C29.3214 3.43287 29.392 3.43752 29.4596 3.4558C29.5273 3.47408 29.5907 3.50565 29.6463 3.5487L29.6465 3.54882L29.6351 3.56481L29.6468 3.54882C29.759 3.63587 29.8324 3.76432 29.8509 3.90595C29.8694 4.04759 29.8315 4.19086 29.7455 4.30431L27.5835 7.15163C27.5334 7.21723 27.4691 7.27032 27.3955 7.30677C27.3219 7.34322 27.241 7.36206 27.159 7.36181L27.1585 7.36246Z" fill="#9CABCE"/>
<path d="M61.539 29.6104C60.4828 29.6104 59.4504 29.294 58.5722 28.7014C57.6941 28.1088 57.0096 27.2665 56.6055 26.2811C56.2013 25.2956 56.0955 24.2113 56.3016 23.1651C56.5076 22.119 57.0162 21.158 57.7631 20.4038C58.5099 19.6496 59.4614 19.1359 60.4973 18.9278C61.5332 18.7198 62.6069 18.8266 63.5826 19.2347C64.5584 19.6429 65.3924 20.3342 65.9792 21.2211C66.566 22.108 66.8792 23.1506 66.8792 24.2173C66.8776 25.6471 66.3144 27.018 65.3133 28.029C64.3122 29.04 62.9548 29.6088 61.539 29.6104V29.6104ZM61.539 19.2891C60.5739 19.2891 59.6304 19.5781 58.8279 20.1196C58.0255 20.6612 57.4 21.4309 57.0307 22.3314C56.6613 23.2319 56.5647 24.2228 56.753 25.1788C56.9413 26.1348 57.4061 27.0129 58.0885 27.7021C58.771 28.3913 59.6405 28.8607 60.5871 29.0508C61.5337 29.241 62.5148 29.1434 63.4065 28.7704C64.2982 28.3974 65.0603 27.7657 65.5965 26.9553C66.1327 26.1448 66.4189 25.192 66.4189 24.2173C66.4174 22.9107 65.9028 21.658 64.988 20.7341C64.0731 19.8102 62.8328 19.2905 61.539 19.2891V19.2891Z" fill="#9CABCE"/>
<path d="M61.0328 26.1867C60.9178 26.1869 60.8059 26.1493 60.7139 26.0797L60.7082 26.0753L59.5073 25.1476C59.395 25.0606 59.3215 24.9321 59.3029 24.7904C59.2844 24.6487 59.3224 24.5053 59.4085 24.3919C59.4946 24.2785 59.6218 24.2042 59.7621 24.1855C59.9025 24.1668 60.0444 24.2051 60.1567 24.2921L60.9346 24.8945L62.7727 22.4727C62.8153 22.4165 62.8685 22.3694 62.9291 22.334C62.9898 22.2986 63.0567 22.2756 63.1262 22.2664C63.1956 22.2571 63.2662 22.2617 63.3339 22.28C63.4016 22.2983 63.465 22.3299 63.5206 22.3729L63.5208 22.373L63.5094 22.389L63.5211 22.373C63.6332 22.4601 63.7066 22.5885 63.7251 22.7302C63.7436 22.8718 63.7057 23.0151 63.6197 23.1285L61.4577 25.9758C61.4077 26.0415 61.3434 26.0945 61.2698 26.131C61.1962 26.1674 61.1152 26.1863 61.0332 26.186L61.0328 26.1867Z" fill="#9CABCE"/>
<path d="M115.16 91.834C117.057 91.834 118.595 90.2806 118.595 88.3643C118.595 86.448 117.057 84.8945 115.16 84.8945C113.262 84.8945 111.724 86.448 111.724 88.3643C111.724 90.2806 113.262 91.834 115.16 91.834Z" fill="#10CFC9"/>
<path d="M114.819 89.6897C114.742 89.6898 114.666 89.6646 114.605 89.6177L114.601 89.6148L113.793 88.991C113.756 88.9621 113.725 88.926 113.701 88.8848C113.677 88.8436 113.662 88.7981 113.656 88.7509C113.65 88.7037 113.653 88.6558 113.665 88.6098C113.677 88.5639 113.698 88.5207 113.727 88.483C113.756 88.4452 113.791 88.4135 113.832 88.3897C113.873 88.3659 113.918 88.3504 113.965 88.3442C114.011 88.338 114.059 88.3411 114.104 88.3534C114.15 88.3657 114.193 88.3869 114.23 88.4159L114.753 88.8209L115.989 87.1926C116.017 87.1549 116.053 87.1232 116.094 87.0994C116.135 87.0756 116.18 87.0601 116.226 87.0539C116.273 87.0477 116.321 87.0508 116.366 87.0631C116.412 87.0754 116.454 87.0966 116.492 87.1255L116.492 87.1256L116.484 87.1364L116.492 87.1256C116.567 87.1841 116.617 87.2705 116.629 87.3657C116.642 87.461 116.616 87.5573 116.558 87.6336L115.105 89.5479C115.071 89.592 115.028 89.6277 114.978 89.6522C114.929 89.6767 114.874 89.6894 114.819 89.6892L114.819 89.6897Z" fill="white"/>
<path d="M115.16 99.9864C117.057 99.9864 118.595 98.4329 118.595 96.5166C118.595 94.6003 117.057 93.0469 115.16 93.0469C113.262 93.0469 111.724 94.6003 111.724 96.5166C111.724 98.4329 113.262 99.9864 115.16 99.9864Z" fill="#10CFC9"/>
<path d="M114.819 97.8381C114.742 97.8382 114.667 97.813 114.605 97.7662L114.601 97.7632L113.794 97.1395C113.718 97.081 113.669 96.9946 113.656 96.8994C113.644 96.8042 113.67 96.7079 113.727 96.6317C113.785 96.5554 113.871 96.5055 113.965 96.4929C114.059 96.4803 114.155 96.506 114.23 96.5643L114.753 96.9693L115.989 95.3411C116.018 95.3033 116.053 95.2716 116.094 95.2478C116.135 95.224 116.18 95.2086 116.227 95.2023C116.273 95.1961 116.321 95.1992 116.366 95.2115C116.412 95.2238 116.454 95.245 116.492 95.274L116.492 95.2741L116.484 95.2848L116.492 95.2741C116.568 95.3326 116.617 95.4189 116.629 95.5142C116.642 95.6094 116.616 95.7057 116.558 95.782L115.105 97.6963C115.071 97.7405 115.028 97.7762 114.979 97.8007C114.929 97.8252 114.875 97.8378 114.819 97.8377L114.819 97.8381Z" fill="white"/>
<path d="M93.5308 44.7197C89.9064 44.6573 88.2594 41.8802 88.2595 39.3262C88.2598 36.7723 89.907 33.9954 93.5232 33.9336H93.531C97.1477 33.9959 98.7948 36.7731 98.7946 39.327C98.7945 41.8809 97.1471 44.6579 93.5308 44.7197ZM93.5271 34.3984C90.2243 34.4568 88.72 36.9933 88.7198 39.3262C88.7196 41.6601 90.2251 44.1979 93.5308 44.2549C96.8285 44.1984 98.3342 41.6608 98.3344 39.327C98.3345 36.9941 96.83 34.4575 93.5271 34.3984V34.3984Z" fill="#10CFC9"/>
<path d="M94.7258 39.6185C95.6496 41.2392 93.1139 41.8722 92.1438 40.8959L92.3868 40.3715C93.9641 41.7475 95.3538 39.3641 92.9446 39.5906V39.016C95.1508 39.1957 93.9116 36.953 92.442 38.2797L92.2045 37.7554C93.4022 36.5 96.0911 38.018 94.1929 39.2726C94.4046 39.3226 94.5928 39.4448 94.7258 39.6185V39.6185Z" fill="#10CFC9"/>
<path d="M125.976 29.6104C124.919 29.6104 123.887 29.294 123.009 28.7014C122.131 28.1088 121.446 27.2665 121.042 26.2811C120.638 25.2956 120.532 24.2113 120.738 23.1651C120.944 22.119 121.453 21.158 122.2 20.4038C122.946 19.6496 123.898 19.1359 124.934 18.9278C125.97 18.7198 127.043 18.8266 128.019 19.2347C128.995 19.6429 129.829 20.3342 130.416 21.2211C131.002 22.108 131.316 23.1506 131.316 24.2173C131.314 25.6471 130.751 27.018 129.75 28.029C128.749 29.04 127.391 29.6088 125.976 29.6104V29.6104ZM125.976 19.2891C125.01 19.2891 124.067 19.5781 123.264 20.1196C122.462 20.6612 121.837 21.4309 121.467 22.3314C121.098 23.2319 121.001 24.2228 121.19 25.1788C121.378 26.1348 121.843 27.0129 122.525 27.7021C123.207 28.3913 124.077 28.8607 125.024 29.0508C125.97 29.241 126.951 29.1434 127.843 28.7704C128.735 28.3974 129.497 27.7657 130.033 26.9553C130.569 26.1448 130.855 25.192 130.855 24.2173C130.854 22.9107 130.339 21.658 129.425 20.7341C128.51 19.8102 127.269 19.2905 125.976 19.2891V19.2891Z" fill="#9CABCE"/>
<path d="M127.459 25.4305H126.901V26.2058H126.205V25.4305H124.493V24.895L126.332 22.2344H126.901V24.8672H127.459V25.4305ZM126.205 24.8672V23.3555L125.167 24.8672H126.205Z" fill="#9CABCE"/>
<path d="M159.484 10.7861C158.428 10.7861 157.395 10.4698 156.517 9.87722C155.639 9.28461 154.954 8.44233 154.55 7.45687C154.146 6.47141 154.04 5.38705 154.246 4.3409C154.452 3.29475 154.961 2.3338 155.708 1.57958C156.455 0.825348 157.406 0.311712 158.442 0.103624C159.478 -0.104464 160.552 0.00234087 161.527 0.410531C162.503 0.818722 163.337 1.50997 163.924 2.39685C164.511 3.28373 164.824 4.32643 164.824 5.39307C164.822 6.82291 164.259 8.19372 163.258 9.20477C162.257 10.2158 160.9 10.7845 159.484 10.7861ZM159.484 0.464831C158.519 0.464843 157.575 0.753889 156.773 1.29542C155.97 1.83695 155.345 2.60664 154.976 3.50716C154.606 4.40768 154.51 5.39858 154.698 6.35456C154.886 7.31054 155.351 8.18866 156.033 8.87788C156.716 9.56711 157.585 10.0365 158.532 10.2266C159.478 10.4168 160.46 10.3192 161.351 9.94617C162.243 9.57316 163.005 8.94149 163.541 8.13105C164.078 7.32061 164.364 6.36778 164.364 5.39307C164.362 4.08647 163.848 2.8338 162.933 1.90989C162.018 0.985987 160.778 0.466295 159.484 0.464831Z" fill="#9CABCE"/>
<path d="M160.279 4.97923C160.464 5.08241 160.616 5.23736 160.716 5.42545C160.822 5.62905 160.875 5.85642 160.87 6.08637C160.875 6.32806 160.814 6.56643 160.693 6.77533C160.573 6.9768 160.396 7.13783 160.185 7.23823C159.945 7.35214 159.683 7.40845 159.418 7.40278C159.169 7.40256 158.923 7.36013 158.689 7.27728C158.471 7.20625 158.27 7.09148 158.098 6.93989L158.335 6.41548C158.644 6.67279 159.029 6.81816 159.429 6.82833C159.634 6.84255 159.837 6.77553 159.995 6.64143C160.122 6.49455 160.192 6.30569 160.191 6.11046C160.19 5.91523 160.118 5.72712 159.989 5.58161C159.917 5.51408 159.832 5.46179 159.74 5.42778C159.647 5.39378 159.549 5.37876 159.451 5.38359C159.301 5.38261 159.153 5.41201 159.014 5.47006C158.878 5.5277 158.756 5.61424 158.655 5.72381H158.225V3.38672H160.688V3.94449H158.921V5.02655C159.13 4.88599 159.376 4.81395 159.628 4.82024C159.855 4.81542 160.079 4.8702 160.279 4.97923V4.97923Z" fill="#9CABCE"/>
<path d="M0.460355 162.789H88.1401C88.2011 162.789 88.2597 162.764 88.3028 162.721C88.346 162.677 88.3702 162.618 88.3702 162.556C88.3702 162.495 88.346 162.436 88.3028 162.392C88.2597 162.349 88.2011 162.324 88.1401 162.324H0.460355C0.399321 162.324 0.340786 162.349 0.297628 162.392C0.25447 162.436 0.230225 162.495 0.230225 162.556C0.230225 162.618 0.25447 162.677 0.297628 162.721C0.340786 162.764 0.399321 162.789 0.460355 162.789V162.789Z" fill="#9CABCE"/>
<path d="M42.5247 62.7889L42.8712 61.039C42.8712 61.039 47.9685 59.2891 48.5388 62.7889H42.5247Z" fill="#E6E6E6"/>
<path d="M52.3073 159.142L55.6491 159.142L57.2388 146.125L52.3066 146.125L52.3073 159.142Z" fill="#FFCFD3"/>
<path d="M51.4548 158.043L58.0359 158.043H58.0361C59.1484 158.043 60.2151 158.489 61.0016 159.284C61.7881 160.078 62.23 161.155 62.2301 162.278V162.416L51.455 162.417L51.4548 158.043Z" fill="#202739"/>
<path d="M36.1982 159.142L39.5399 159.142L41.1297 146.125L36.1975 146.125L36.1982 159.142Z" fill="#FFCFD3"/>
<path d="M35.3457 158.043L41.9267 158.043H41.927C43.0393 158.043 44.106 158.489 44.8925 159.284C45.679 160.078 46.1209 161.155 46.1209 162.278V162.416L35.3459 162.417L35.3457 158.043Z" fill="#202739"/>
<path d="M37.673 70.1391L33.8609 69.7891L31.4351 81.3386L31.7816 91.8381L35.5938 105.838L40.792 102.688L38.0196 88.3382L37.673 70.1391Z" fill="#1F2A44"/>
<path d="M35.2602 104.615L36.1135 111.964L36.915 129.114L35.074 154.669L41.6582 154.313L44.8856 127.714L46.8564 115.464L49.6288 129.464L51.3617 155.713L58.1192 155.166V129.371L58.2925 110.564L55.8667 103.215L35.2602 104.615Z" fill="#1F2A44"/>
<path d="M49.4555 63.1391C49.4555 63.1391 47.0297 59.6393 42.5246 62.0892L40.4453 64.889L33.8609 69.7888L35.2471 86.2381L33.5144 106.887L58.1192 106.537L53.9606 85.8881V63.8391L49.4555 63.1391Z" fill="#1F2A44"/>
<path opacity="0.25" d="M36.1134 75.5977L34.1265 99.5919L36.6333 86.5878L36.1134 75.5977Z" fill="black"/>
<path d="M77.474 95.7154C77.1202 95.8368 76.7443 95.8784 76.3729 95.8372C76.0015 95.7961 75.6435 95.6731 75.3242 95.4771C75.0049 95.2811 74.7321 95.0168 74.5249 94.7028C74.3177 94.3887 74.1811 94.0326 74.125 93.6596L68.4548 92.2443L68.466 88.5547L76.4455 90.6668C77.0723 90.613 77.697 90.7933 78.201 91.1735C78.705 91.5537 79.0534 92.1075 79.1802 92.7298C79.3069 93.3521 79.2033 93.9997 78.8888 94.55C78.5743 95.1003 78.0709 95.515 77.474 95.7154Z" fill="#FFCFD3"/>
<path d="M71.5448 88.511L70.5913 94.0273L72.981 94.4486L73.9344 88.9323L71.5448 88.511Z" fill="#E6E6E6"/>
<path d="M48.9371 58.2359C52.3094 56.3741 53.5488 52.1039 51.7053 48.6981C49.8618 45.2923 45.6335 44.0406 42.2612 45.9024C38.8889 47.7642 37.6495 52.0344 39.493 55.4402C41.3364 58.846 45.5647 60.0977 48.9371 58.2359Z" fill="#FFCFD3"/>
<path d="M46.1189 58.2673C44.4163 58.6801 42.6226 58.4392 41.0862 57.5913C39.5497 56.7433 38.3801 55.349 37.8044 53.679C37.2288 52.0089 37.2883 50.1825 37.9714 48.5543C38.6544 46.9261 39.9123 45.6124 41.5006 44.8683C42.7238 44.317 44.0615 44.0745 45.3981 44.162C47.4794 44.2725 49.5022 45.0493 51.5855 44.9921L51.8875 45.4823L53.0255 45.2035L53.2694 46.116L53.5691 46.1055C54.1061 47.1133 53.2422 48.5561 52.1091 48.5439C51.6605 48.539 51.2363 48.3503 50.7976 48.2553C50.3589 48.1604 49.8423 48.1841 49.5398 48.5187C49.1467 48.9535 49.3179 49.6321 49.3998 50.215C49.4818 50.798 49.2771 51.5833 48.6943 51.6023C48.3967 51.612 48.1136 51.3964 47.8211 51.4531C47.4804 51.5191 47.3081 51.9346 47.3579 52.2813C47.4422 52.6215 47.5798 52.9459 47.7655 53.2423C48.6102 54.9453 47.8969 57.2619 46.2449 58.1807" fill="#202739"/>
<path d="M52.3066 65.1914L53.9606 63.8391C53.9606 63.8391 57.2989 63.6047 57.2386 67.1788L62.58 84.053L72.8271 87.719L71.4464 94.9239L56.9482 89.3459L49.584 77.0188L52.3066 65.1914Z" fill="#1F2A44"/>
</g>
<defs>
<clipPath id="clip0_1061_20030">
<rect width="182" height="164" fill="white"/>
</clipPath>
</defs>
</svg>
