<svg width="195" height="157" viewBox="0 0 195 157" fill="none" xmlns="http://www.w3.org/2000/svg">
<path d="M127.957 87.7929C123.875 90.2411 116.601 93.3088 109.169 90.1562L104.365 88.1182L113.992 77.3256C106.31 68.8546 102.059 57.8245 102.071 46.3884C102.083 34.9522 106.355 23.9309 114.056 15.4755C121.756 7.02022 132.331 1.7378 143.716 0.659351C155.101 -0.419094 166.479 2.78385 175.63 9.64299C184.781 16.5021 191.047 26.5252 193.206 37.7557C195.365 48.9862 193.261 60.6182 187.305 70.3811C181.35 80.1441 171.97 87.3373 160.996 90.5568C150.022 93.7762 138.243 92.7908 127.957 87.7929V87.7929ZM109.51 46.3626C109.489 51.6344 110.559 56.8536 112.652 61.6918C114.746 66.5301 117.818 70.8828 121.676 74.4761L124.331 76.9717L118.273 83.7629C121.429 83.1226 124.177 81.4155 125.571 80.424L127.483 79.0633L129.54 80.1934C135.225 83.3061 141.602 84.9373 148.084 84.9366C169.354 84.9366 186.658 67.6325 186.658 46.3626C186.658 25.0928 169.354 7.78852 148.084 7.78852C126.814 7.78852 109.51 25.0928 109.51 46.3626V46.3626Z" fill="#323C55"/>
<path d="M105.77 46.3625C105.77 22.9932 124.715 4.04858 148.084 4.04858C171.453 4.04858 190.398 22.9932 190.398 46.3625C190.398 69.7319 171.453 88.6764 148.084 88.6764C140.972 88.6869 133.972 86.8961 127.739 83.4712C124.814 85.5524 117.679 89.7034 110.629 86.7133L119.115 77.2015C114.897 73.2493 111.536 68.4726 109.24 63.1677C106.944 57.8628 105.763 52.1428 105.77 46.3625Z" fill="#10CFC9"/>
<path opacity="0.1" d="M183.19 46.4543C183.19 24.3455 166.233 6.20034 144.616 4.30676C145.848 4.1988 147.095 4.14038 148.356 4.14038C171.725 4.14038 190.67 23.085 190.67 46.4543C190.67 69.8237 171.725 88.7682 148.356 88.7682C147.097 88.7682 145.852 88.7091 144.622 88.6013C166.236 86.705 183.19 68.561 183.19 46.4543Z" fill="black"/>
<path d="M50.5762 146.576C40.0033 146.581 29.7499 142.952 21.5345 136.296C13.319 129.641 7.64067 120.364 5.45114 110.021C3.2616 99.6769 4.6939 88.8949 9.508 79.4815C14.3221 70.0682 22.2254 62.5955 31.8935 58.3159C41.5616 54.0363 52.4069 53.2098 62.6118 55.975C72.8168 58.7401 81.7612 64.9289 87.9461 73.504C94.1311 82.0792 97.1807 92.5196 96.5838 103.076C95.987 113.632 91.78 123.662 84.6679 131.485L94.2956 142.278L89.4912 144.316C82.0589 147.468 74.7857 144.401 70.7035 141.953C64.4297 144.994 57.5484 146.575 50.5762 146.576V146.576ZM50.5762 61.9481C29.3065 61.9481 12.0022 79.2524 12.0022 100.522C12.0022 121.792 29.3065 139.096 50.5762 139.096C57.0577 139.097 63.4351 137.466 69.1202 134.353L71.1769 133.223L73.0892 134.584C74.4829 135.575 77.2315 137.282 80.3872 137.923L74.3288 131.131L76.9845 128.636C80.842 125.042 83.9142 120.69 86.0079 115.851C88.1016 111.013 89.1715 105.794 89.1503 100.522C89.1503 79.2524 71.846 61.9481 50.5762 61.9481V61.9481Z" fill="#323C55"/>
<path d="M92.89 100.522C92.89 77.1526 73.9455 58.208 50.5761 58.208C27.2068 58.208 8.26221 77.1526 8.26221 100.522C8.26221 123.891 27.2068 142.836 50.5761 142.836C57.6885 142.846 64.6876 141.056 70.921 137.631C73.846 139.712 80.9816 143.863 88.0307 140.873L79.5454 131.361C83.7635 127.409 87.1245 122.632 89.4201 117.327C91.7156 112.022 92.8967 106.302 92.89 100.522Z" fill="#10CFC9"/>
<path opacity="0.1" d="M15.7419 100.308C15.7419 78.1995 32.6988 60.0543 54.316 58.1608C53.0835 58.0528 51.8367 57.9944 50.5761 57.9944C27.2068 57.9944 8.26221 76.939 8.26221 100.308C8.26221 123.678 27.2068 142.622 50.5761 142.622C51.8348 142.622 53.0794 142.563 54.3101 142.455C32.6957 140.559 15.7419 122.415 15.7419 100.308Z" fill="black"/>
<path d="M158.018 32.9195C155.249 28.2415 149.772 28.0235 149.772 28.0235C149.772 28.0235 144.435 27.341 141.011 34.4656C137.82 41.1063 133.415 47.518 140.302 49.0726L141.546 45.2009L142.316 49.3608C143.297 49.4313 144.28 49.4481 145.263 49.4111C152.638 49.173 159.661 49.4808 159.435 46.8343C159.135 43.3162 160.682 37.4206 158.018 32.9195Z" fill="#202739"/>
<path d="M139.909 73.8868C139.827 74.4013 139.709 74.9094 139.555 75.407C139.382 75.8942 139.115 76.3447 138.956 76.8369C138.451 78.4058 139.151 80.155 140.269 81.3659C141.239 82.4119 142.49 83.1549 143.873 83.5056C144.89 83.7233 145.928 83.8324 146.969 83.831C149.847 83.9286 152.799 84.0159 155.526 83.0909C156.388 82.7915 157.22 82.4135 158.013 81.9615C158.263 81.8423 158.483 81.6688 158.658 81.4536C158.84 81.1383 158.922 80.7745 158.89 80.4115C158.884 79.1915 158.637 77.9776 158.696 76.7589C158.728 76.0839 158.855 75.4094 158.792 74.7365C158.706 73.9722 158.386 73.2532 157.876 72.6779C157.365 72.1026 156.69 71.6991 155.941 71.5226C155.167 71.3565 154.365 71.447 153.577 71.5227C151.533 71.7192 149.48 71.811 147.426 71.7978C145.327 71.7844 143.242 71.464 141.154 71.4306C140.536 71.4207 140.549 71.6111 140.352 72.2087C140.171 72.7587 140.023 73.3191 139.909 73.8868V73.8868Z" fill="#202739"/>
<path d="M145.864 43.7599C145.763 44.2879 145.654 44.8353 145.337 45.2692C144.972 45.7685 144.376 46.0537 143.984 46.5315C143.392 47.2507 143.359 48.2627 143.356 49.1937C143.354 50.0513 143.371 50.966 143.85 51.6779C144.19 52.1202 144.612 52.4926 145.094 52.7749C146.887 53.9836 148.825 55.214 150.988 55.2539C151.884 55.2704 152.845 55.039 153.434 54.3641C153.689 54.0471 153.889 53.69 154.026 53.3074C154.579 51.9444 154.915 50.503 155.02 49.0358C155.099 48.3461 155.035 47.6474 154.831 46.9838C154.568 46.2514 154.037 45.6487 153.686 44.9543C153.271 44.1286 153.119 43.1954 153.251 42.2807C153.268 42.2163 153.263 42.1478 153.236 42.0869C153.207 42.0543 153.171 42.0289 153.13 42.0125C153.09 41.9962 153.046 41.9894 153.003 41.9927L148.715 41.684C148.316 41.6641 147.918 41.6187 147.525 41.5478C147.294 41.5008 146.683 41.1725 146.463 41.2598C146.055 41.4214 145.948 43.322 145.864 43.7599Z" fill="#A0616A"/>
<path opacity="0.1" d="M145.864 43.8939C145.763 44.422 145.654 44.9693 145.337 45.4032C144.972 45.9025 144.376 46.1877 143.984 46.6655C143.392 47.3847 143.359 48.3967 143.356 49.3277C143.354 50.1853 143.371 51.1001 143.85 51.8119C144.19 52.2542 144.612 52.6266 145.094 52.9089C146.887 54.1177 148.825 55.3481 150.988 55.3879C151.884 55.4044 152.845 55.173 153.434 54.4981C153.689 54.1811 153.889 53.824 154.026 53.4415C154.579 52.0785 154.915 50.637 155.02 49.1699C155.099 48.4802 155.035 47.7814 154.831 47.1179C154.568 46.3854 154.037 45.7828 153.686 45.0883C153.271 44.2626 153.119 43.3294 153.251 42.4147C153.268 42.3503 153.263 42.2818 153.236 42.221C153.207 42.1884 153.171 42.1629 153.13 42.1466C153.09 42.1302 153.046 42.1234 153.003 42.1267L148.715 41.818C148.316 41.7982 147.918 41.7527 147.525 41.6818C147.294 41.6348 146.683 41.3065 146.463 41.3938C146.055 41.5554 145.948 43.456 145.864 43.8939Z" fill="black"/>
<path d="M149.964 44.3351C153.438 44.3351 156.255 41.5187 156.255 38.0444C156.255 34.5701 153.438 31.7537 149.964 31.7537C146.49 31.7537 143.673 34.5701 143.673 38.0444C143.673 41.5187 146.49 44.3351 149.964 44.3351Z" fill="#A0616A"/>
<path d="M146.746 52.1341C147.057 52.4939 147.432 52.7933 147.851 53.017C148.289 53.1978 148.758 53.2872 149.232 53.2798C150.365 53.3117 151.595 53.1039 152.384 52.2887C153.4 51.2378 153.367 49.5428 154.164 48.3168C154.228 48.2056 154.316 48.1098 154.421 48.0359C154.555 47.9631 154.706 47.9284 154.858 47.9355C155.864 47.9261 156.741 48.5789 157.533 49.2011C157.905 49.4575 158.225 49.7831 158.474 50.1602C158.631 50.4655 158.738 50.7937 158.792 51.1325C159.184 53.0496 159.312 55.0098 159.438 56.9626C159.507 58.0412 159.577 59.1209 159.572 60.2018C159.555 63.7628 158.727 67.2642 157.904 70.7288C157.798 71.1753 157.653 71.6742 157.247 71.8881C157.066 71.9694 156.872 72.0169 156.674 72.028C154.316 72.3049 151.954 72.5821 149.58 72.6186C148.654 72.6329 147.728 72.6105 146.803 72.5514C146.644 72.5493 146.486 72.5217 146.335 72.4698C146.131 72.3717 145.955 72.2225 145.825 72.0367C144.541 70.4189 144.465 68.1823 144.474 66.1171C144.494 61.0678 144.674 56.0225 145.015 50.9812C145.043 50.5651 145.049 50.0598 144.749 49.7325C145.333 50.5976 146.002 51.4022 146.746 52.1341V52.1341Z" fill="white"/>
<path d="M145.414 44.8703C145.201 45.2549 143.635 46.2099 143.332 46.5287C141.643 48.3097 138.559 48.2428 137.014 50.1504C136.47 50.8215 136.187 51.6648 135.98 52.5032C135.686 53.6889 135.529 54.9821 136.021 56.1001C136.495 57.1759 137.492 57.9197 138.169 58.8806C138.912 59.9358 139.246 61.2169 139.566 62.4672C139.803 63.3903 140.041 64.3363 139.949 65.2848C139.844 66.3632 139.323 67.3506 139.014 68.3894C138.706 69.4281 138.653 70.6653 139.366 71.4816C139.889 72.0814 140.71 72.3191 141.495 72.4529C142.5 72.6039 143.513 72.6921 144.529 72.717C145.426 72.7567 146.415 72.7644 147.104 72.1893C147.649 71.7356 147.885 70.9993 147.916 70.2915C147.946 69.5837 147.799 68.8822 147.707 68.1797C147.611 67.4515 147.574 66.717 147.544 65.9832C147.406 62.6908 147.387 59.3963 147.487 56.0997C147.538 55.4145 147.504 54.7257 147.387 54.0487C147.195 53.1669 146.718 52.3788 146.32 51.5685C145.526 50.0424 145.166 48.3272 145.28 46.6103C145.4 44.8459 146.17 43.5017 145.414 44.8703Z" fill="white"/>
<path d="M154.247 45.0041C154.571 45.3367 155.671 45.4464 156.082 45.6606C156.47 45.8394 156.874 45.9793 157.289 46.0782C158.79 46.5114 160.219 47.167 161.526 48.0231C161.798 48.182 162.038 48.3895 162.235 48.6352C162.442 48.9724 162.576 49.3496 162.627 49.7421C162.828 50.7406 163.031 51.7511 162.986 52.7688C162.938 53.849 162.612 54.8952 162.289 55.9271L161.083 59.7831C160.183 62.6613 159.277 65.5679 159.024 68.573C158.883 70.2385 158.946 71.9148 159.209 73.5653C159.234 73.6456 159.241 73.7302 159.231 73.8136C159.22 73.897 159.192 73.9772 159.148 74.0488C159.069 74.1274 158.964 74.1755 158.853 74.1847C158.271 74.2758 157.708 73.9789 157.18 73.7163C155.568 72.9141 153.848 72.3511 152.073 72.0453C152.767 71.0432 153.302 69.9404 153.659 68.7755C153.863 68.0358 154.023 67.285 154.139 66.5267L154.7 63.2816C154.928 62.0955 155.089 60.8974 155.181 59.6931C155.223 59.2411 155.197 58.7853 155.103 58.3413C154.974 57.9187 154.802 57.5102 154.59 57.1222C153.666 55.1988 153.232 53.0038 153.596 50.9009C153.755 49.9806 154.064 49.059 153.935 48.134C153.811 47.2447 153.94 46.5535 153.712 45.6733C152.775 42.0595 153.639 44.3783 154.247 45.0041Z" fill="white"/>
<path d="M136.998 53.1917C136.576 54.0664 135.871 54.8117 135.632 55.7526C135.538 56.1924 135.498 56.6418 135.512 57.0911C135.471 57.7683 135.538 58.4478 135.711 59.1038C135.845 59.5188 136.063 59.9014 136.22 60.3082C136.438 60.8766 136.536 61.4844 136.506 62.0926C136.463 62.9352 136.177 63.7532 136.155 64.5966C136.12 65.9229 136.733 67.1697 137.332 68.3538C137.482 67.9807 137.713 67.645 138.007 67.3702C138.301 67.0954 138.651 66.8882 139.033 66.763C139.416 66.6378 139.821 66.5977 140.22 66.6454C140.62 66.6932 141.004 66.8276 141.346 67.0394C141.483 66.871 141.549 66.6553 141.527 66.4392C141.572 64.9005 141.614 63.3617 141.655 61.8229C141.72 59.443 141.782 57.0314 141.234 54.7144C140.987 53.6683 140.603 52.6262 139.898 51.8148C139.526 51.3876 138.266 50.2622 137.657 50.7409C137.382 50.9561 137.447 51.542 137.403 51.8387C137.338 52.3077 137.201 52.7639 136.998 53.1917V53.1917Z" fill="white"/>
<path d="M163.109 50.6706C163.279 51.3014 163.351 51.9543 163.324 52.6069C163.332 53.9371 163.315 55.2671 163.271 56.597C163.278 57.279 163.191 57.9587 163.012 58.617C162.876 59.0451 162.666 59.4466 162.525 59.8732C162.104 61.1518 162.334 62.5386 162.37 63.8844C162.396 64.32 162.359 64.757 162.26 65.182C162.038 66.0162 161.44 66.6904 161.023 67.4463C160.627 68.1643 160.388 68.9691 159.915 69.6388C159.442 70.3086 158.623 70.8393 157.829 70.6337C157.227 70.4779 156.8 69.9455 156.504 69.3991C155.859 68.1976 155.639 66.8135 155.878 65.471C156.175 63.8376 157.135 62.3885 157.481 60.7649C157.956 58.5352 157.234 56.2344 157.255 53.9547C157.245 53.5974 157.294 53.2409 157.399 52.8991C157.58 52.3784 157.97 51.9626 158.33 51.5449C158.78 51.0231 159.198 50.4744 159.582 49.9021C159.84 49.5176 160.19 48.5287 160.647 48.4465C161.667 48.2629 162.856 49.8822 163.109 50.6706Z" fill="white"/>
<path d="M131.703 72.8951C131.138 72.7532 130.557 72.6914 129.975 72.7114C129.364 72.7452 128.768 72.9087 128.225 73.1909C127.682 73.4732 127.205 73.8678 126.827 74.3486C126.448 74.8293 126.176 75.3851 126.029 75.9791C125.882 76.573 125.863 77.1915 125.973 77.7934C126.114 78.4453 126.344 79.0747 126.657 79.6636C127.116 80.5932 127.665 81.5207 128.513 82.1164C129.024 82.4439 129.574 82.7058 130.15 82.8958L134.617 84.5783C135.274 84.8259 135.931 85.0734 136.594 85.3029C139.928 86.4552 143.403 87.1461 146.924 87.3565C147.996 87.4569 149.076 87.4021 150.131 87.194C150.387 87.1607 150.621 87.0343 150.788 86.8391C150.873 86.6908 150.924 86.525 150.935 86.3544L151.21 84.4304C151.271 84.1625 151.263 83.8833 151.187 83.6193C151.061 83.296 150.745 83.0926 150.444 82.9197C147.508 81.2333 144.08 80.3029 141.608 77.9883C141.026 77.4434 140.539 76.5797 139.832 76.2096C139.031 75.7899 138.087 75.5503 137.258 75.1635C135.447 74.318 133.666 73.3463 131.703 72.8951Z" fill="#202739"/>
<path opacity="0.1" d="M136.162 75.4888C137.74 75.9834 144.405 79.4104 145.548 80.607C145.394 80.6622 140.199 77.7505 140.043 77.7037C138.614 77.3113 137.215 76.8181 135.855 76.228C135.585 76.1027 134.096 75.5142 134.164 75.1726C134.24 74.7872 135.881 75.4009 136.162 75.4888Z" fill="black"/>
<path d="M155.856 88.3543C155.946 88.3608 156.035 88.3347 156.106 88.2806C156.138 88.2402 156.161 88.1939 156.174 88.1445C156.188 88.095 156.191 88.0434 156.184 87.9926L156.177 85.3715C155.423 85.0124 154.58 84.8973 153.753 84.7866L149.891 84.2705C149.98 84.2824 149.288 85.9336 149.394 86.154C149.581 86.5426 151.011 86.8869 151.415 87.0704C152.818 87.7081 154.276 88.4092 155.856 88.3543Z" fill="#A0616A"/>
<path d="M143.741 85.3623C143.012 85.4784 142.198 85.5811 141.726 86.1486C141.127 86.8683 141.382 87.9411 141.668 88.8327C141.685 88.9477 141.726 89.0581 141.786 89.1574C141.847 89.2566 141.927 89.3426 142.022 89.4103C142.117 89.478 142.224 89.526 142.337 89.5515C142.451 89.577 142.569 89.5795 142.683 89.5588C143.348 89.6009 144.055 89.6339 144.636 89.3078C144.9 89.1339 145.153 88.9456 145.395 88.7438C145.824 88.4587 146.294 88.2434 146.79 88.1059C147.702 87.8192 148.64 87.6258 149.591 87.5288C149.965 87.5117 150.336 87.4464 150.694 87.3343C150.873 87.2767 151.036 87.1787 151.171 87.0479C151.305 86.9171 151.408 86.757 151.471 86.58C151.605 86.1037 151.329 85.6181 151.063 85.2003C150.757 84.6532 150.36 84.1623 149.889 83.7489C149.169 83.1901 148.813 83.6191 148.089 83.9767C146.717 84.6537 145.251 85.1208 143.741 85.3623V85.3623Z" fill="#A0616A"/>
<path d="M141.836 86.0192L137.207 84.651C136.652 84.4576 136.071 84.3452 135.484 84.3172C135.19 84.3051 134.897 84.3559 134.624 84.4663C134.351 84.5766 134.105 84.7439 133.902 84.9569C133.543 85.3782 133.44 85.954 133.351 86.5002L133.159 87.6686C133.032 88.2576 132.996 88.8628 133.052 89.4628C133.083 89.7629 133.182 90.052 133.341 90.3082C133.501 90.5643 133.716 90.7807 133.972 90.941C134.613 91.2905 135.398 91.1198 136.113 90.9736C137.557 90.6784 139.026 90.5209 140.499 90.5032C141.053 90.4965 141.635 90.5035 142.124 90.244C142.408 90.0755 142.647 89.8402 142.82 89.5584C142.992 89.2767 143.093 88.9571 143.114 88.6274C143.205 87.6293 142.873 86.3256 141.836 86.0192Z" fill="#202739"/>
<path d="M157.675 84.8269C158.276 84.7217 158.805 84.3806 159.38 84.1793C160.19 83.896 161.067 83.896 161.924 83.8991C162.239 83.8703 162.556 83.9338 162.836 84.0818C163.214 84.3332 163.311 84.8365 163.375 85.2857L163.763 87.996C163.866 88.5017 163.877 89.022 163.794 89.5315C163.681 90.0338 163.338 90.518 162.84 90.6475C162.234 90.8049 161.641 90.4182 161.069 90.1642C159.641 89.5293 157.98 89.6916 156.491 89.2171C156.349 89.1885 156.214 89.1301 156.096 89.0456C155.978 88.9612 155.879 88.8526 155.806 88.7271C155.755 88.5765 155.737 88.4168 155.752 88.2587C155.778 87.3875 155.594 86.1979 155.856 85.3653C156.092 84.6165 157.006 84.8269 157.675 84.8269Z" fill="#202739"/>
<path d="M167.472 71.8042C168.397 71.5722 169.356 71.5067 170.304 71.6107C171.061 71.6941 171.841 71.9047 172.393 72.4287C173.066 73.0665 173.282 74.0528 173.3 74.9796C173.33 76.8256 172.717 78.6246 171.568 80.0694C171.287 80.4348 170.953 80.7561 170.578 81.0227C170.172 81.2763 169.74 81.4845 169.289 81.6436L159.287 85.5887C156.656 86.6266 154.015 87.6674 151.271 88.3516C151.196 88.3879 151.114 88.4087 151.031 88.413C150.948 88.4172 150.865 88.4048 150.786 88.3764C150.708 88.348 150.636 88.3042 150.575 88.2476C150.514 88.191 150.464 88.1227 150.43 88.0468C149.554 86.7951 148.819 85.4502 148.238 84.0368C148.21 84.0032 148.191 83.9635 148.182 83.921C148.174 83.8785 148.175 83.8345 148.187 83.7927C148.199 83.751 148.22 83.7126 148.25 83.6809C148.279 83.6492 148.316 83.6252 148.357 83.6108L155.432 79.546C155.951 79.2754 156.434 78.9422 156.872 78.5539C157.177 78.2576 157.428 77.909 157.611 77.5247C157.758 77.2184 157.771 76.4956 157.959 76.2692C158.142 76.0476 158.769 76.0299 159.059 75.9427C159.468 75.8175 159.868 75.6662 160.257 75.4898C161.84 74.7818 163.249 73.7532 164.766 72.9243C165.617 72.4378 166.526 72.0614 167.472 71.8042V71.8042Z" fill="#202739"/>
<path opacity="0.1" d="M163.461 74.8396C162.246 75.7525 160.672 76.5916 159.467 77.5285C159.056 77.8483 152.203 81.7014 152.106 82.2131C153.23 82.4025 160.389 77.3943 161.413 76.8945C162.437 76.3948 163.345 75.6901 164.245 74.9905C164.474 74.8123 165.446 74.2763 164.788 74.0772C164.417 73.965 163.735 74.6571 163.461 74.8396Z" fill="black"/>
<path d="M155.098 45.0925H144.429C143.996 45.0925 143.58 45.2647 143.273 45.5712C142.967 45.8777 142.795 46.2934 142.795 46.7269V47.3254H142.679V48.6638H142.795V49.6007H142.679V50.4038H142.795V60.2797C142.795 60.7131 142.967 61.1288 143.273 61.4353C143.58 61.7418 143.996 61.914 144.429 61.914H155.098C155.532 61.914 155.947 61.7418 156.254 61.4353C156.56 61.1288 156.732 60.7131 156.732 60.2797V46.7269C156.732 46.2934 156.56 45.8777 156.254 45.5712C155.947 45.2647 155.532 45.0925 155.098 45.0925V45.0925Z" fill="#D0CDE1"/>
<path d="M156.794 32.4686L151.383 29.634L143.91 30.7937L142.364 37.6223L146.212 37.4741L147.288 34.9654V37.4329L149.063 37.3646L150.094 33.3704L150.738 37.6223L157.052 37.4933L156.794 32.4686Z" fill="#202739"/>
<path d="M138.414 70.9195C138.658 71.3356 139.006 71.6817 139.424 71.9244C139.697 72.0494 139.996 72.1103 140.297 72.1022C140.598 72.0941 140.893 72.0174 141.16 71.8778C141.693 71.5922 142.129 71.155 142.413 70.6215C143.001 69.583 143.123 68.3403 143.05 67.1491C142.976 65.9579 142.722 64.7849 142.609 63.5968C142.527 62.7331 142.521 61.8642 142.514 60.9967C142.494 60.8142 142.532 60.6301 142.623 60.4708C142.781 60.3145 142.984 60.2129 143.204 60.1812C144.39 59.8285 145.178 58.716 145.743 57.6141C146.12 56.8784 146.448 56.0741 146.376 55.2505C146.303 54.4269 145.711 53.5972 144.888 53.5132C144.21 53.4439 143.584 53.8747 143.095 54.3494C141.861 55.5544 141.068 57.1392 140.843 58.8493C140.736 59.6867 140.767 60.5469 140.539 61.3598C140.053 63.0956 138.531 64.1598 137.773 65.7218C136.937 67.4428 137.398 69.3967 138.414 70.9195Z" fill="#A0616A"/>
<path d="M160.805 64.288C160.632 64.6906 160.38 65.0544 160.064 65.358C159.748 65.6616 159.374 65.8988 158.965 66.0557C158.457 66.2599 157.896 66.2943 157.366 66.1536C157.103 66.0807 156.861 65.9483 156.658 65.7666C156.455 65.5848 156.296 65.3587 156.194 65.1057C156.113 64.8509 156.069 64.5859 156.062 64.3186C155.986 63.1481 156.016 61.9419 156.441 60.8486C156.605 60.4269 156.826 60.027 156.955 59.5935C157.083 59.0928 157.148 58.5784 157.149 58.0618L157.289 54.8679C157.312 54.6361 157.296 54.402 157.242 54.1754C157.102 53.7133 156.67 53.413 156.274 53.1374C155.317 52.4718 154.371 51.6951 153.907 50.6256C153.748 50.3036 153.691 49.9405 153.744 49.5852C153.875 48.9509 154.515 48.5404 155.147 48.402C155.561 48.3115 155.989 48.3058 156.405 48.3851C156.821 48.4644 157.217 48.6271 157.569 48.8634C157.921 49.0998 158.221 49.4049 158.451 49.7604C158.682 50.1158 158.838 50.5143 158.911 50.9317C158.973 51.2921 158.972 51.6603 159.009 52.0243C159.087 52.7964 159.332 53.5407 159.485 54.3014C159.863 56.1752 159.667 58.1121 160.041 59.9856C160.353 61.552 161.531 62.5741 160.805 64.288Z" fill="#A0616A"/>
<path d="M149.906 52.2777C150.646 52.2777 151.245 51.6785 151.245 50.9393C151.245 50.2001 150.646 49.6008 149.906 49.6008C149.167 49.6008 148.568 50.2001 148.568 50.9393C148.568 51.6785 149.167 52.2777 149.906 52.2777Z" fill="#10CFC9"/>
<path d="M4.57522 99.0435C6.75579 99.0435 8.52348 97.2758 8.52348 95.0952C8.52348 92.9147 6.75579 91.147 4.57522 91.147C2.39465 91.147 0.626953 92.9147 0.626953 95.0952C0.626953 97.2758 2.39465 99.0435 4.57522 99.0435Z" fill="#202739"/>
<path d="M18.8868 106.816L16.8981 104.883L12.9048 106.124L13.2883 110.748L21.4992 110.366L18.9768 106.939L18.8868 106.816Z" fill="#FBBEBE"/>
<path d="M14.5376 106.777C18.0629 106.777 20.9208 103.919 20.9208 100.393C20.9208 96.8679 18.0629 94.01 14.5376 94.01C11.0122 94.01 8.1543 96.8679 8.1543 100.393C8.1543 103.919 11.0122 106.777 14.5376 106.777Z" fill="#FBBEBE"/>
<path d="M54.1653 115.01C54.1653 115.01 62.0073 128.486 63.8736 130.509C64.7611 131.505 65.7067 132.447 66.7054 133.332C66.7054 133.332 65.8278 136.242 64.4305 136.138C63.634 136.09 62.853 135.897 62.1254 135.57C62.1254 135.57 61.5017 133.953 60.4138 133.244C59.3259 132.535 50.4379 123.791 50.6457 120.996C50.8534 118.202 54.1653 115.01 54.1653 115.01Z" fill="#202739"/>
<path d="M26.2378 134.241C26.2378 134.241 34.5991 140.731 45.9624 134.633L46.9416 133.912C46.9416 133.912 45.289 137.63 45.1357 138.638C44.9579 139.806 40.6553 146.652 39.9532 146.98C39.2511 147.308 39.0963 147.611 39.0963 147.611L42.076 150.891L43.1776 150.08C43.1776 150.08 47.4733 143.994 48.7297 142.88C49.9861 141.767 55.9723 130.285 55.9723 130.285C55.9723 130.285 58.2609 125.959 52.5491 125.634C46.8373 125.308 44.209 126.865 44.209 126.865L34.0719 128.476L26.2378 134.241Z" fill="#202739"/>
<path d="M66.8024 132.694L71.0315 135.62C71.0315 135.62 76.427 137.31 73.1035 138.435C69.7799 139.56 61.0216 139.967 60.8229 138.415C60.6242 136.863 61.1684 134.42 61.6053 134.554C62.0423 134.687 65.0749 135.475 66.8024 132.694Z" fill="#202739"/>
<path d="M43.5517 149.075L44.3344 153.373C44.3344 153.373 46.5602 157.63 43.8878 156.309C41.2153 154.988 35.7095 149.971 36.5225 148.92C37.3355 147.868 39.13 146.727 39.3122 147.07C39.4945 147.413 40.8432 149.708 43.5517 149.075Z" fill="#202739"/>
<path d="M35.4875 129.887C35.4875 129.887 29.8038 136.523 26.353 134.911C22.9023 133.299 8.78476 114.628 10.3967 111.177C12.0087 107.727 12.5492 108.461 12.5492 108.461L19.8386 109.135L17.7412 105.773C17.7412 105.773 18.7205 105.052 19.6537 106.063C20.5868 107.075 24.3332 109.602 25.6383 113.17C26.9435 116.738 30.7752 116.56 30.7752 116.56L35.4875 129.887Z" fill="white"/>
<path d="M58.4403 116.203L48.5878 126.662L39.7617 111.079L48.1523 100.941L58.4403 116.203Z" fill="#323C55"/>
<path d="M57.6969 116.09L48.7981 125.281L40.7344 111.118L48.1296 101.808L57.6969 116.09Z" fill="white"/>
<path d="M48.1052 126.262L48.5879 126.662L48.2783 127.267L34.5014 131.367L34.3711 130.895L34.9979 130.247L48.1052 126.262Z" fill="#B3B3B3"/>
<path d="M48.7102 126.572L34.4437 131.033L25.7471 114.6L39.7618 111.079L48.7102 126.572Z" fill="#D0CDE1"/>
<path d="M47.6362 124.343L47.0241 124.793L40.231 112.998L40.933 112.67L47.6362 124.343Z" fill="#323C55"/>
<path d="M46.2317 124.999L40.1966 126.798L33.3457 114.668L39.3161 113.294L46.2317 124.999Z" fill="#323C55"/>
<path d="M29.2302 115.999L30.4797 115.646C30.4797 115.646 37.4479 114.858 37.5496 117.047C37.6514 119.237 29.5444 118.221 29.5444 118.221L28.4634 116.752L29.2302 115.999Z" fill="#FBBEBE"/>
<path d="M35.342 125.843L37.0811 125.129C37.0811 125.129 42.3309 122.775 40.8249 121.242C39.319 119.708 34.6743 122.371 34.6743 122.371L33.7852 123.214L35.342 125.843Z" fill="#FBBEBE"/>
<path d="M33.7921 122.454C33.7921 122.454 36.6239 125.277 35.9795 125.94C35.3351 126.602 24.7688 135.322 22.1495 132.532C19.5302 129.742 6.76867 115.734 11.7344 114.533C16.7001 113.332 18.0121 116.14 18.0121 116.14L24.5675 127.356L33.7921 122.454Z" fill="white"/>
<path d="M25.3127 113.881L29.9643 115.459L29.8884 118.817L24.9688 118.286L25.3127 113.881Z" fill="white"/>
<path opacity="0.2" d="M29.5055 124.194L24.4937 127.127L18.7676 118.321L24.2949 125.575L29.5055 124.194Z" fill="black"/>
<path d="M11.7358 106.142C15.9327 106.142 19.335 102.74 19.335 98.543C19.335 94.3461 15.9327 90.9438 11.7358 90.9438C7.53896 90.9438 4.13672 94.3461 4.13672 98.543C4.13672 102.74 7.53896 106.142 11.7358 106.142Z" fill="#202739"/>
<path d="M52.7955 116.867L47.4746 109.083L49.7302 106.291L55.259 114.299L52.7955 116.867Z" fill="#10CFC9"/>
<path d="M52.6455 119.996L44.5449 108.22L44.9445 107.737L53.0071 119.541L52.6455 119.996Z" fill="#E6E6E6"/>
<path d="M51.602 121.142L43.5015 109.365L43.901 108.882L51.9637 120.687L51.602 121.142Z" fill="#E6E6E6"/>
<path d="M50.7124 121.985L42.6118 110.208L43.0113 109.726L51.074 121.53L50.7124 121.985Z" fill="#E6E6E6"/>
<path d="M15.1011 93.4697H17.4519C18.6421 93.4697 19.7836 93.9425 20.6252 94.7842C21.4669 95.6258 21.9397 96.7673 21.9397 97.9576V97.9576H15.1011V93.4697Z" fill="#202739"/>
<path d="M47.4825 90.6138L47.0564 90.582C47.0398 90.8036 47.028 91.0265 47.0139 91.2488L45.1011 91.1848L47.1076 94.9449L49.3611 91.3274L47.4412 91.2631C47.455 91.0467 47.4664 90.8296 47.4825 90.6138Z" fill="#323C55"/>
<path d="M58.7021 59.9645L59.0419 60.2239C59.5516 59.5564 60.0838 58.89 60.6241 58.2433L60.296 57.9692C59.7518 58.6208 59.2155 59.2921 58.7021 59.9645Z" fill="#323C55"/>
<path d="M61.9766 56.0465L62.2921 56.3347C62.8591 55.7137 63.4479 55.097 64.0417 54.5015L63.7391 54.1997C63.1408 54.7995 62.5478 55.4209 61.9766 56.0465Z" fill="#323C55"/>
<path d="M65.5806 52.4324L65.8696 52.7473C66.4898 52.1779 67.13 51.6154 67.7726 51.0755L67.4978 50.7483C66.8504 51.2922 66.2053 51.8589 65.5806 52.4324Z" fill="#323C55"/>
<path d="M55.7852 64.1578L56.1464 64.3861C56.5956 63.6754 57.0674 62.9645 57.5484 62.273L57.1976 62.0288C56.7129 62.7255 56.2377 63.4418 55.7852 64.1578Z" fill="#323C55"/>
<path d="M69.4868 49.1501L69.7471 49.489C70.4149 48.9762 71.1019 48.4724 71.7891 47.9916L71.5441 47.6414C70.8517 48.1259 70.1596 48.6334 69.4868 49.1501Z" fill="#323C55"/>
<path d="M53.249 68.5939L53.6291 68.7892C54.0141 68.0404 54.4213 67.2902 54.8392 66.5594L54.4681 66.3472C54.0471 67.0835 53.6369 67.8394 53.249 68.5939Z" fill="#323C55"/>
<path d="M49.1264 80.6249L48.7126 80.5183C48.5014 81.3384 48.3058 82.1746 48.1313 83.004L48.5496 83.0921C48.7228 82.269 48.9169 81.4388 49.1264 80.6249Z" fill="#323C55"/>
<path d="M73.6655 46.2256L73.8949 46.5863C74.6033 46.1355 75.3317 45.6944 76.0598 45.2752L75.8465 44.9048C75.1129 45.3272 74.3792 45.7715 73.6655 46.2256Z" fill="#323C55"/>
<path d="M48.0827 85.5822L47.661 85.5129C47.5237 86.3473 47.4032 87.1976 47.3027 88.0401L47.7272 88.0906C47.8269 87.2545 47.9466 86.4106 48.0827 85.5822Z" fill="#323C55"/>
<path d="M51.1152 73.24L51.5111 73.4009C51.828 72.6209 52.1671 71.8371 52.5187 71.0713L52.1303 70.8928C51.776 71.6645 51.4344 72.4542 51.1152 73.24Z" fill="#323C55"/>
<path d="M49.4033 78.0607L49.8122 78.1855C50.0586 77.379 50.3265 76.5676 50.6083 75.7738L50.2055 75.6309C49.9216 76.4305 49.6517 77.248 49.4033 78.0607Z" fill="#323C55"/>
<path d="M102.578 37.7064C103.416 37.6774 104.269 37.6658 105.113 37.6737L105.116 37.2463C104.267 37.2384 103.407 37.25 102.563 37.2792L102.578 37.7064Z" fill="#323C55"/>
<path d="M78.083 43.682L78.2796 44.0614C79.026 43.6747 79.7901 43.3 80.5508 42.9476L80.3711 42.5598C79.6047 42.9148 78.8349 43.2923 78.083 43.682Z" fill="#323C55"/>
<path d="M112.691 38.2392C113.525 38.3572 114.367 38.4953 115.192 38.6499L115.271 38.2298C114.439 38.0741 113.591 37.9348 112.751 37.8159L112.691 38.2392Z" fill="#323C55"/>
<path d="M117.673 39.1713C118.492 39.3624 119.318 39.5749 120.128 39.8027L120.244 39.3911C119.427 39.1617 118.595 38.9478 117.771 38.7551L117.673 39.1713Z" fill="#323C55"/>
<path d="M122.551 40.5429C123.349 40.8062 124.153 41.0912 124.94 41.3903L125.092 40.9909C124.299 40.6895 123.489 40.4022 122.685 40.137L122.551 40.5429Z" fill="#323C55"/>
<path d="M107.646 37.7513C108.488 37.7954 109.339 37.8588 110.174 37.9396L110.216 37.5143C109.374 37.4328 108.517 37.3689 107.669 37.3245L107.646 37.7513Z" fill="#323C55"/>
<path d="M97.4751 37.6791L97.5273 38.1034C98.3602 38.0009 99.2083 37.9154 100.048 37.8495L100.015 37.4233C99.1685 37.4898 98.3141 37.5759 97.4751 37.6791Z" fill="#323C55"/>
<path d="M87.5039 39.8173L87.6304 40.2255C88.4336 39.9769 89.2532 39.7429 90.0667 39.5301L89.9586 39.1167C89.1391 39.3309 88.3131 39.5667 87.5039 39.8173Z" fill="#323C55"/>
<path d="M82.7061 41.5408L82.8683 41.9363C83.6454 41.6174 84.4392 41.3122 85.2277 41.0289L85.0832 40.6267C84.2887 40.912 83.489 41.2196 82.7061 41.5408Z" fill="#323C55"/>
<path d="M92.4419 38.5261L92.5314 38.9441C93.3526 38.7681 94.1897 38.6079 95.0199 38.4682L94.949 38.0466C94.1126 38.1875 93.2691 38.3488 92.4419 38.5261Z" fill="#323C55"/>
<path d="M131.318 44.033L128.929 40.5032L128.089 42.2319C127.886 42.1411 127.684 42.0484 127.481 41.9605L127.311 42.3528C127.509 42.4386 127.705 42.5286 127.902 42.6166L127.066 44.3371L131.318 44.033Z" fill="#323C55"/>
</svg>
