<svg width="149" height="136" viewBox="0 0 149 136" fill="none" xmlns="http://www.w3.org/2000/svg">
<path d="M128.187 12.608L4.30151 48.7031L7.5829 59.9655L131.469 23.8703L128.187 12.608Z" fill="#323C55"/>
<path d="M19.1024 100.437L0.842619 37.766C0.707246 37.3013 0.762001 36.8019 0.994829 36.3777C1.22766 35.9534 1.61949 35.639 2.08413 35.5036L122.967 0.283395C123.431 0.148477 123.931 0.203417 124.355 0.436162C124.779 0.668907 125.093 1.06044 125.229 1.52481L141.406 57.047L140.905 57.1928L124.729 1.67068C124.631 1.33912 124.407 1.05962 124.104 0.893396C123.801 0.727175 123.444 0.687791 123.113 0.783878L2.22997 36.0041C1.89808 36.1008 1.6182 36.3254 1.4519 36.6284C1.28559 36.9315 1.24648 37.2882 1.34317 37.6201L19.603 100.291L19.1024 100.437Z" fill="#525F7E"/>
<path d="M114.65 57.3027C114.284 57.3023 113.927 57.1831 113.634 56.9631C113.34 56.743 113.126 56.4338 113.023 56.0819L109.96 45.5704C109.835 45.1389 109.886 44.6755 110.102 44.2816C110.318 43.8878 110.682 43.5958 111.113 43.4696L121.625 40.407C122.056 40.2818 122.52 40.3329 122.913 40.5491C123.307 40.7652 123.599 41.1288 123.725 41.56L126.788 52.0715C126.913 52.5029 126.862 52.9664 126.646 53.3602C126.43 53.754 126.066 54.046 125.635 54.1722L115.124 57.2348C114.97 57.2797 114.811 57.3026 114.65 57.3027Z" fill="#10CFC9"/>
<path d="M18.8202 37.9576C18.7888 37.8496 18.7513 37.7434 18.7081 37.6396C18.4142 36.9262 17.867 36.3467 17.1718 36.0123C16.4765 35.6779 15.6822 35.6122 14.9414 35.8278C14.2007 36.0435 13.5658 36.5253 13.1587 37.1807C12.7516 37.836 12.601 38.6187 12.736 39.3783C12.7549 39.4892 12.7802 39.5988 12.8116 39.7068C13.0019 40.3565 13.3977 40.9272 13.9395 41.3332C14.4813 41.7392 15.1401 41.9588 15.8172 41.9591C16.1128 41.9597 16.4069 41.9176 16.6905 41.8339C17.4863 41.6014 18.1575 41.0627 18.5567 40.3361C18.956 39.6094 19.0507 38.754 18.8202 37.9576ZM16.5445 41.3334C15.8808 41.526 15.1678 41.4476 14.5618 41.1153C13.9559 40.783 13.5064 40.224 13.3121 39.5608C13.2815 39.4528 13.2572 39.3431 13.239 39.2323C13.1412 38.6065 13.2748 37.9664 13.6146 37.4319C13.9545 36.8973 14.4775 36.5049 15.0857 36.3279C15.6939 36.1509 16.3458 36.2016 16.9194 36.4703C17.493 36.7391 17.9491 37.2076 18.2024 37.7882C18.2496 37.8901 18.2888 37.9956 18.3197 38.1036C18.5121 38.7673 18.4332 39.4802 18.1004 40.0858C17.7675 40.6914 17.2079 41.1401 16.5445 41.3334V41.3334Z" fill="#10CFC9"/>
<path d="M11.1476 40.1933C10.9808 39.6204 10.9968 39.0097 11.1934 38.4463C11.3901 37.883 11.7575 37.3949 12.2446 37.0503C11.7883 37.028 11.3332 37.1152 10.9173 37.3044C10.5015 37.4936 10.1369 37.7795 9.85386 38.1382C9.57086 38.4969 9.37766 38.918 9.29037 39.3665C9.20308 39.815 9.22422 40.2778 9.35202 40.7165C9.47983 41.1551 9.7106 41.5569 10.0251 41.8883C10.3396 42.2197 10.7288 42.4712 11.1602 42.6217C11.5915 42.7723 12.0526 42.8176 12.5051 42.7538C12.9575 42.6901 13.3881 42.5191 13.7611 42.2553C13.1651 42.2262 12.5931 42.0119 12.1246 41.6423C11.6561 41.2727 11.3146 40.7662 11.1476 40.1933Z" fill="#10CFC9"/>
<path d="M92.1835 53.1141C92.128 52.9146 92.0338 52.728 91.9061 52.565C91.7784 52.4019 91.6199 52.2657 91.4395 52.164C91.2592 52.0623 91.0605 51.9972 90.8549 51.9723C90.6494 51.9475 90.4409 51.9634 90.2415 52.0192L72.9349 56.86L71.071 57.3814H82.7756L84.6394 56.86L91.0913 55.0561C91.4935 54.9431 91.8344 54.6752 92.0392 54.311C92.244 53.9469 92.2959 53.5164 92.1835 53.1141Z" fill="#EFF2FA"/>
<path d="M79.9395 49.4982C79.8267 49.0959 79.5588 48.7548 79.1946 48.55C78.8304 48.3452 78.3997 48.2934 77.9974 48.406L52.0284 55.6686C51.6655 55.7714 51.3513 56.0004 51.1425 56.3145C50.9336 56.6285 50.8438 57.0068 50.8892 57.3812H57.6122L59.4786 56.8599L78.8472 51.4429C79.2498 51.3296 79.5908 51.0611 79.7956 50.6965C80.0004 50.3319 80.0521 49.9009 79.9395 49.4982Z" fill="#EFF2FA"/>
<path d="M146.795 56.8594H20.8856C20.4018 56.8599 19.9379 57.0523 19.5959 57.3944C19.2538 57.7365 19.0613 58.2004 19.0608 58.6841V133.239C19.0613 133.723 19.2537 134.187 19.5958 134.529C19.9379 134.871 20.4018 135.063 20.8856 135.064H146.795C147.279 135.063 147.742 134.871 148.084 134.529C148.426 134.187 148.619 133.723 148.619 133.239V58.6841C148.619 58.2004 148.426 57.7365 148.084 57.3945C147.742 57.0524 147.278 56.8599 146.795 56.8594ZM148.098 133.239C148.098 133.585 147.961 133.916 147.716 134.16C147.472 134.405 147.14 134.542 146.795 134.542H20.8856C20.5399 134.542 20.2085 134.405 19.9641 134.16C19.7196 133.916 19.5823 133.585 19.5822 133.239V58.6841C19.5823 58.3385 19.7197 58.0071 19.9641 57.7627C20.2085 57.5183 20.5399 57.3809 20.8856 57.3807H146.795C147.14 57.3809 147.472 57.5183 147.716 57.7627C147.961 58.0071 148.098 58.3385 148.098 58.6841V133.239Z" fill="#525F7E"/>
<path d="M33.1367 67.0259C32.518 67.0259 31.9132 66.8424 31.3988 66.4987C30.8844 66.1549 30.4834 65.6664 30.2467 65.0948C30.0099 64.5232 29.948 63.8942 30.0687 63.2874C30.1894 62.6806 30.4873 62.1232 30.9248 61.6858C31.3622 61.2483 31.9196 60.9503 32.5264 60.8296C33.1332 60.7089 33.7622 60.7709 34.3338 61.0076C34.9054 61.2444 35.394 61.6454 35.7377 62.1598C36.0814 62.6742 36.2649 63.279 36.2649 63.8977C36.2639 64.727 35.9341 65.5222 35.3476 66.1086C34.7612 66.695 33.9661 67.0249 33.1367 67.0259ZM33.1367 61.2909C32.6211 61.2909 32.1171 61.4438 31.6884 61.7302C31.2598 62.0167 30.9256 62.4238 30.7283 62.9001C30.531 63.3764 30.4794 63.9006 30.58 64.4063C30.6806 64.9119 30.9289 65.3764 31.2934 65.741C31.658 66.1056 32.1225 66.3538 32.6281 66.4544C33.1338 66.555 33.658 66.5034 34.1343 66.3061C34.6106 66.1088 35.0178 65.7746 35.3042 65.346C35.5906 64.9173 35.7435 64.4133 35.7435 63.8977C35.7427 63.2066 35.4678 62.544 34.9791 62.0553C34.4904 61.5666 33.8278 61.2917 33.1367 61.2909Z" fill="#10CFC9"/>
<path d="M28.2743 63.8948C28.2744 63.2981 28.4606 62.7163 28.807 62.2304C29.1533 61.7445 29.6426 61.3788 30.2067 61.1841C29.7748 61.0351 29.3135 60.9915 28.8613 61.0568C28.4091 61.1222 27.9791 61.2947 27.6071 61.5599C27.235 61.8251 26.9317 62.1753 26.7225 62.5815C26.5132 62.9877 26.4041 63.4379 26.4041 63.8948C26.4041 64.3517 26.5132 64.802 26.7225 65.2082C26.9317 65.6143 27.235 65.9646 27.6071 66.2298C27.9791 66.495 28.4091 66.6675 28.8613 66.7328C29.3135 66.7982 29.7748 66.7545 30.2067 66.6055C29.6426 66.4109 29.1533 66.0451 28.807 65.5592C28.4606 65.0734 28.2744 64.4915 28.2743 63.8948Z" fill="#10CFC9"/>
<path d="M45.8171 100.856C45.1951 100.855 44.5987 100.608 44.1589 100.168C43.7191 99.7279 43.4717 99.1316 43.4709 98.5095V91.4711C43.4709 90.8489 43.7181 90.2522 44.1581 89.8122C44.5981 89.3722 45.1948 89.125 45.8171 89.125C46.4393 89.125 47.036 89.3722 47.476 89.8122C47.916 90.2522 48.1632 90.8489 48.1632 91.4711V98.5095C48.1625 99.1316 47.9151 99.7279 47.4752 100.168C47.0354 100.608 46.4391 100.855 45.8171 100.856Z" fill="#10CFC9"/>
<path d="M52.0734 100.856C51.4514 100.855 50.8551 100.608 50.4152 100.168C49.9754 99.7279 49.728 99.1316 49.7273 98.5095V91.4711C49.7273 90.8489 49.9745 90.2522 50.4145 89.8122C50.8544 89.3722 51.4512 89.125 52.0734 89.125C52.6957 89.125 53.2924 89.3722 53.7324 89.8122C54.1724 90.2522 54.4196 90.8489 54.4196 91.4711V98.5095C54.4189 99.1316 54.1714 99.7279 53.7316 100.168C53.2918 100.608 52.6954 100.855 52.0734 100.856Z" fill="#10CFC9"/>
<path d="M58.33 100.856C57.708 100.855 57.1117 100.608 56.6718 100.168C56.232 99.7279 55.9846 99.1316 55.9839 98.5095V91.4711C55.9839 90.8489 56.2311 90.2522 56.6711 89.8122C57.111 89.3722 57.7078 89.125 58.33 89.125C58.9522 89.125 59.549 89.3722 59.989 89.8122C60.429 90.2522 60.6761 90.8489 60.6761 91.4711V98.5095C60.6754 99.1316 60.428 99.7279 59.9882 100.168C59.5484 100.608 58.952 100.855 58.33 100.856Z" fill="#10CFC9"/>
<path d="M67.975 100.856C67.353 100.855 66.7567 100.608 66.3169 100.168C65.877 99.7279 65.6296 99.1316 65.6289 98.5095V91.4711C65.6289 90.8489 65.8761 90.2522 66.3161 89.8122C66.7561 89.3722 67.3528 89.125 67.975 89.125C68.5973 89.125 69.194 89.3722 69.634 89.8122C70.074 90.2522 70.3212 90.8489 70.3212 91.4711V98.5095C70.3205 99.1316 70.0731 99.7279 69.6332 100.168C69.1934 100.608 68.5971 100.855 67.975 100.856Z" fill="#10CFC9"/>
<path d="M74.2314 100.856C73.6094 100.855 73.013 100.608 72.5732 100.168C72.1334 99.7279 71.886 99.1316 71.8853 98.5095V91.4711C71.8853 90.8489 72.1324 90.2522 72.5724 89.8122C73.0124 89.3722 73.6092 89.125 74.2314 89.125C74.8536 89.125 75.4504 89.3722 75.8903 89.8122C76.3303 90.2522 76.5775 90.8489 76.5775 91.4711V98.5095C76.5768 99.1316 76.3294 99.7279 75.8896 100.168C75.4497 100.608 74.8534 100.855 74.2314 100.856Z" fill="#10CFC9"/>
<path d="M80.488 100.856C79.866 100.855 79.2696 100.608 78.8298 100.168C78.39 99.7279 78.1426 99.1316 78.1418 98.5095V91.4711C78.1418 90.8489 78.389 90.2522 78.829 89.8122C79.269 89.3722 79.8658 89.125 80.488 89.125C81.1102 89.125 81.707 89.3722 82.147 89.8122C82.5869 90.2522 82.8341 90.8489 82.8341 91.4711V98.5095C82.8334 99.1316 82.586 99.7279 82.1462 100.168C81.7063 100.608 81.11 100.855 80.488 100.856Z" fill="#10CFC9"/>
<path d="M90.1328 100.856C89.5107 100.855 88.9144 100.608 88.4746 100.168C88.0348 99.7279 87.7873 99.1316 87.7866 98.5095V91.4711C87.7866 90.8489 88.0338 90.2522 88.4738 89.8122C88.9138 89.3722 89.5105 89.125 90.1328 89.125C90.755 89.125 91.3517 89.3722 91.7917 89.8122C92.2317 90.2522 92.4789 90.8489 92.4789 91.4711V98.5095C92.4782 99.1316 92.2308 99.7279 91.7909 100.168C91.3511 100.608 90.7548 100.855 90.1328 100.856Z" fill="#10CFC9"/>
<path d="M96.3893 100.856C95.7673 100.855 95.171 100.608 94.7312 100.168C94.2913 99.7279 94.0439 99.1316 94.0432 98.5095V91.4711C94.0432 90.8489 94.2904 90.2522 94.7304 89.8122C95.1704 89.3722 95.7671 89.125 96.3893 89.125C97.0116 89.125 97.6083 89.3722 98.0483 89.8122C98.4883 90.2522 98.7355 90.8489 98.7355 91.4711V98.5095C98.7347 99.1316 98.4873 99.7279 98.0475 100.168C97.6077 100.608 97.0113 100.855 96.3893 100.856Z" fill="#10CFC9"/>
<path d="M102.646 100.856C102.024 100.855 101.428 100.608 100.988 100.168C100.548 99.7279 100.301 99.1316 100.3 98.5095V91.4711C100.3 90.8489 100.547 90.2522 100.987 89.8122C101.427 89.3722 102.024 89.125 102.646 89.125C103.268 89.125 103.865 89.3722 104.305 89.8122C104.745 90.2522 104.992 90.8489 104.992 91.4711V98.5095C104.991 99.1316 104.744 99.7279 104.304 100.168C103.864 100.608 103.268 100.855 102.646 100.856Z" fill="#10CFC9"/>
<path d="M112.291 100.856C111.669 100.855 111.072 100.608 110.633 100.168C110.193 99.7279 109.945 99.1316 109.945 98.5095V91.4711C109.945 90.8489 110.192 90.2522 110.632 89.8122C111.072 89.3722 111.668 89.125 112.291 89.125C112.913 89.125 113.51 89.3722 113.95 89.8122C114.39 90.2522 114.637 90.8489 114.637 91.4711V98.5095C114.636 99.1316 114.389 99.7279 113.949 100.168C113.509 100.608 112.913 100.855 112.291 100.856Z" fill="#10CFC9"/>
<path d="M118.547 100.856C117.925 100.855 117.329 100.608 116.889 100.168C116.449 99.7279 116.202 99.1316 116.201 98.5095V91.4711C116.201 90.8489 116.448 90.2522 116.888 89.8122C117.328 89.3722 117.925 89.125 118.547 89.125C119.17 89.125 119.766 89.3722 120.206 89.8122C120.646 90.2522 120.893 90.8489 120.893 91.4711V98.5095C120.893 99.1316 120.645 99.7279 120.205 100.168C119.766 100.608 119.169 100.855 118.547 100.856Z" fill="#10CFC9"/>
<path d="M124.804 100.856C124.182 100.855 123.586 100.608 123.146 100.168C122.706 99.7279 122.458 99.1316 122.458 98.5095V91.4711C122.458 90.8489 122.705 90.2522 123.145 89.8122C123.585 89.3722 124.182 89.125 124.804 89.125C125.426 89.125 126.023 89.3722 126.463 89.8122C126.903 90.2522 127.15 90.8489 127.15 91.4711V98.5095C127.149 99.1316 126.902 99.7279 126.462 100.168C126.022 100.608 125.426 100.855 124.804 100.856Z" fill="#10CFC9"/>
<path d="M61.7236 126.969H27.981C27.5629 126.969 27.1619 126.803 26.8663 126.508C26.5706 126.212 26.4045 125.811 26.4045 125.393C26.4045 124.975 26.5706 124.574 26.8663 124.278C27.1619 123.982 27.5629 123.816 27.981 123.816H61.7236C62.1417 123.816 62.5427 123.982 62.8384 124.278C63.134 124.574 63.3001 124.975 63.3001 125.393C63.3001 125.811 63.134 126.212 62.8384 126.508C62.5427 126.803 62.1417 126.969 61.7236 126.969Z" fill="#FAFBFF"/>
<path d="M50.9052 120.192H38.7991C38.381 120.192 37.98 120.026 37.6844 119.73C37.3887 119.435 37.2227 119.034 37.2227 118.615C37.2227 118.197 37.3887 117.796 37.6844 117.501C37.98 117.205 38.381 117.039 38.7991 117.039H50.9052C51.3233 117.039 51.7243 117.205 52.0199 117.501C52.3156 117.796 52.4816 118.197 52.4816 118.615C52.4816 119.034 52.3156 119.435 52.0199 119.73C51.7243 120.026 51.3233 120.192 50.9052 120.192Z" fill="#FAFBFF"/>
<path d="M148.004 72.4414H19.4883V72.9628H148.004V72.4414Z" fill="#525F7E"/>
</svg>
